%FSLAX45Y45*%
G04 Gerber Fmt 4.5, Leading zero omitted, Abs format (unit mm)*
G04 Created by KiCad (PCBNEW 4.0.7) date Mon Jan 29 08:21:49 2018*
%MOMM*%
%LPD*%
G01*
G04 APERTURE LIST*
%ADD10C,0.127000*%
%ADD11C,0.150000*%
%ADD12C,0.200000*%
%ADD13C,0.300000*%
G04 APERTURE END LIST*
D10*
D11*
X9200000Y-8400000D02*
X9200000Y-8200000D01*
X3800000Y-8400000D02*
X9200000Y-8400000D01*
X3800000Y-8200000D02*
X3800000Y-8400000D01*
X9200000Y-3000000D02*
X9200000Y-8200000D01*
X8200000Y-3000000D02*
X9200000Y-3000000D01*
X3800000Y-8200000D02*
X3800000Y-3000000D01*
X3800000Y-3000000D02*
X8200000Y-3000000D01*
D12*
X3956850Y-5226950D02*
X4036850Y-5306950D01*
X4036850Y-5226950D02*
X3956850Y-5306950D01*
X4007650Y-7068450D02*
X4087650Y-7148450D01*
X4087650Y-7068450D02*
X4007650Y-7148450D01*
X4026700Y-5525400D02*
X4106700Y-5605400D01*
X4106700Y-5525400D02*
X4026700Y-5605400D01*
X4229900Y-5296800D02*
X4309900Y-5376800D01*
X4309900Y-5296800D02*
X4229900Y-5376800D01*
X4293400Y-4725300D02*
X4373400Y-4805300D01*
X4373400Y-4725300D02*
X4293400Y-4805300D01*
X4325150Y-7284350D02*
X4405150Y-7364350D01*
X4405150Y-7284350D02*
X4325150Y-7364350D01*
X4331500Y-5773050D02*
X4411500Y-5853050D01*
X4411500Y-5773050D02*
X4331500Y-5853050D01*
X4464850Y-5830200D02*
X4544850Y-5910200D01*
X4544850Y-5830200D02*
X4464850Y-5910200D01*
X4471200Y-4725300D02*
X4551200Y-4805300D01*
X4551200Y-4725300D02*
X4471200Y-4805300D01*
X4560100Y-5265050D02*
X4640100Y-5345050D01*
X4640100Y-5265050D02*
X4560100Y-5345050D01*
X4610900Y-8109850D02*
X4690900Y-8189850D01*
X4690900Y-8109850D02*
X4610900Y-8189850D01*
X4629950Y-5823850D02*
X4709950Y-5903850D01*
X4709950Y-5823850D02*
X4629950Y-5903850D01*
X4922050Y-5525400D02*
X5002050Y-5605400D01*
X5002050Y-5525400D02*
X4922050Y-5605400D01*
X4979200Y-5804800D02*
X5059200Y-5884800D01*
X5059200Y-5804800D02*
X4979200Y-5884800D01*
X5004600Y-5404750D02*
X5084600Y-5484750D01*
X5084600Y-5404750D02*
X5004600Y-5484750D01*
X5131600Y-6027050D02*
X5211600Y-6107050D01*
X5211600Y-6027050D02*
X5131600Y-6107050D01*
X5245900Y-4230000D02*
X5325900Y-4310000D01*
X5325900Y-4230000D02*
X5245900Y-4310000D01*
X5305100Y-6880000D02*
X5385100Y-6960000D01*
X5385100Y-6880000D02*
X5305100Y-6960000D01*
X5328450Y-5919100D02*
X5408450Y-5999100D01*
X5408450Y-5919100D02*
X5328450Y-5999100D01*
X5677700Y-7100200D02*
X5757700Y-7180200D01*
X5757700Y-7100200D02*
X5677700Y-7180200D01*
X5919000Y-3468000D02*
X5999000Y-3548000D01*
X5999000Y-3468000D02*
X5919000Y-3548000D01*
X6376200Y-4992000D02*
X6456200Y-5072000D01*
X6456200Y-4992000D02*
X6376200Y-5072000D01*
X6376200Y-7405000D02*
X6456200Y-7485000D01*
X6456200Y-7405000D02*
X6376200Y-7485000D01*
X6726200Y-4992000D02*
X6806200Y-5072000D01*
X6806200Y-4992000D02*
X6726200Y-5072000D01*
X6726200Y-7405000D02*
X6806200Y-7485000D01*
X6806200Y-7405000D02*
X6726200Y-7485000D01*
X7570000Y-5607950D02*
X7650000Y-5687950D01*
X7650000Y-5607950D02*
X7570000Y-5687950D01*
X7697000Y-5734950D02*
X7777000Y-5814950D01*
X7777000Y-5734950D02*
X7697000Y-5814950D01*
X8147850Y-5525400D02*
X8227850Y-5605400D01*
X8227850Y-5525400D02*
X8147850Y-5605400D01*
X8205000Y-7703450D02*
X8285000Y-7783450D01*
X8285000Y-7703450D02*
X8205000Y-7783450D01*
X8281200Y-5334900D02*
X8361200Y-5414900D01*
X8361200Y-5334900D02*
X8281200Y-5414900D01*
X8351050Y-7881250D02*
X8431050Y-7961250D01*
X8431050Y-7881250D02*
X8351050Y-7961250D01*
X4059550Y-3971550D02*
G75*
G03X4059550Y-3971550I-50000J0D01*
G01*
X4059550Y-4225550D02*
G75*
G03X4059550Y-4225550I-50000J0D01*
G01*
X4059550Y-4479550D02*
G75*
G03X4059550Y-4479550I-50000J0D01*
G01*
X6009000Y-3508000D02*
G75*
G03X6009000Y-3508000I-50000J0D01*
G01*
X6009000Y-3762000D02*
G75*
G03X6009000Y-3762000I-50000J0D01*
G01*
X6009000Y-4016000D02*
G75*
G03X6009000Y-4016000I-50000J0D01*
G01*
X6009000Y-4270000D02*
G75*
G03X6009000Y-4270000I-50000J0D01*
G01*
X6009000Y-4524000D02*
G75*
G03X6009000Y-4524000I-50000J0D01*
G01*
X6009000Y-4778000D02*
G75*
G03X6009000Y-4778000I-50000J0D01*
G01*
X6009000Y-5032000D02*
G75*
G03X6009000Y-5032000I-50000J0D01*
G01*
X6009000Y-5286000D02*
G75*
G03X6009000Y-5286000I-50000J0D01*
G01*
X6009000Y-5921000D02*
G75*
G03X6009000Y-5921000I-50000J0D01*
G01*
X6009000Y-6175000D02*
G75*
G03X6009000Y-6175000I-50000J0D01*
G01*
X6009000Y-6429000D02*
G75*
G03X6009000Y-6429000I-50000J0D01*
G01*
X6009000Y-6683000D02*
G75*
G03X6009000Y-6683000I-50000J0D01*
G01*
X6009000Y-6937000D02*
G75*
G03X6009000Y-6937000I-50000J0D01*
G01*
X6009000Y-7191000D02*
G75*
G03X6009000Y-7191000I-50000J0D01*
G01*
X6009000Y-7445000D02*
G75*
G03X6009000Y-7445000I-50000J0D01*
G01*
X6009000Y-7699000D02*
G75*
G03X6009000Y-7699000I-50000J0D01*
G01*
X7279000Y-3508000D02*
G75*
G03X7279000Y-3508000I-50000J0D01*
G01*
X7279000Y-3762000D02*
G75*
G03X7279000Y-3762000I-50000J0D01*
G01*
X7279000Y-4016000D02*
G75*
G03X7279000Y-4016000I-50000J0D01*
G01*
X7279000Y-4270000D02*
G75*
G03X7279000Y-4270000I-50000J0D01*
G01*
X7279000Y-4524000D02*
G75*
G03X7279000Y-4524000I-50000J0D01*
G01*
X7279000Y-4778000D02*
G75*
G03X7279000Y-4778000I-50000J0D01*
G01*
X7279000Y-5032000D02*
G75*
G03X7279000Y-5032000I-50000J0D01*
G01*
X7279000Y-5286000D02*
G75*
G03X7279000Y-5286000I-50000J0D01*
G01*
X7279000Y-5921000D02*
G75*
G03X7279000Y-5921000I-50000J0D01*
G01*
X7279000Y-6175000D02*
G75*
G03X7279000Y-6175000I-50000J0D01*
G01*
X7279000Y-6429000D02*
G75*
G03X7279000Y-6429000I-50000J0D01*
G01*
X7279000Y-6683000D02*
G75*
G03X7279000Y-6683000I-50000J0D01*
G01*
X7279000Y-6937000D02*
G75*
G03X7279000Y-6937000I-50000J0D01*
G01*
X7279000Y-7191000D02*
G75*
G03X7279000Y-7191000I-50000J0D01*
G01*
X7279000Y-7445000D02*
G75*
G03X7279000Y-7445000I-50000J0D01*
G01*
X7279000Y-7699000D02*
G75*
G03X7279000Y-7699000I-50000J0D01*
G01*
X8612500Y-4016000D02*
G75*
G03X8612500Y-4016000I-50000J0D01*
G01*
X8612500Y-4270000D02*
G75*
G03X8612500Y-4270000I-50000J0D01*
G01*
X8612500Y-4524000D02*
G75*
G03X8612500Y-4524000I-50000J0D01*
G01*
X8612500Y-4778000D02*
G75*
G03X8612500Y-4778000I-50000J0D01*
G01*
X8612500Y-5032000D02*
G75*
G03X8612500Y-5032000I-50000J0D01*
G01*
X8612500Y-6429000D02*
G75*
G03X8612500Y-6429000I-50000J0D01*
G01*
X8612500Y-6683000D02*
G75*
G03X8612500Y-6683000I-50000J0D01*
G01*
X8612500Y-6937000D02*
G75*
G03X8612500Y-6937000I-50000J0D01*
G01*
X8612500Y-7191000D02*
G75*
G03X8612500Y-7191000I-50000J0D01*
G01*
X8612500Y-7445000D02*
G75*
G03X8612500Y-7445000I-50000J0D01*
G01*
X8866500Y-4016000D02*
G75*
G03X8866500Y-4016000I-50000J0D01*
G01*
X8866500Y-4270000D02*
G75*
G03X8866500Y-4270000I-50000J0D01*
G01*
X8866500Y-4524000D02*
G75*
G03X8866500Y-4524000I-50000J0D01*
G01*
X8866500Y-4778000D02*
G75*
G03X8866500Y-4778000I-50000J0D01*
G01*
X8866500Y-5032000D02*
G75*
G03X8866500Y-5032000I-50000J0D01*
G01*
X8866500Y-6429000D02*
G75*
G03X8866500Y-6429000I-50000J0D01*
G01*
X8866500Y-6683000D02*
G75*
G03X8866500Y-6683000I-50000J0D01*
G01*
X8866500Y-6937000D02*
G75*
G03X8866500Y-6937000I-50000J0D01*
G01*
X8866500Y-7191000D02*
G75*
G03X8866500Y-7191000I-50000J0D01*
G01*
X8866500Y-7445000D02*
G75*
G03X8866500Y-7445000I-50000J0D01*
G01*
X4938300Y-3379500D02*
X4938300Y-3509500D01*
X4873300Y-3444500D02*
X5003300Y-3444500D01*
X5438300Y-3379500D02*
X5438300Y-3509500D01*
X5373300Y-3444500D02*
X5503300Y-3444500D01*
D13*
X4063928Y-8873214D02*
X4063928Y-8573214D01*
X4135357Y-8573214D01*
X4178214Y-8587500D01*
X4206786Y-8616072D01*
X4221071Y-8644643D01*
X4235357Y-8701786D01*
X4235357Y-8744643D01*
X4221071Y-8801786D01*
X4206786Y-8830357D01*
X4178214Y-8858929D01*
X4135357Y-8873214D01*
X4063928Y-8873214D01*
X4363929Y-8873214D02*
X4363929Y-8673214D01*
X4363929Y-8730357D02*
X4378214Y-8701786D01*
X4392500Y-8687500D01*
X4421071Y-8673214D01*
X4449643Y-8673214D01*
X4549643Y-8873214D02*
X4549643Y-8673214D01*
X4549643Y-8573214D02*
X4535357Y-8587500D01*
X4549643Y-8601786D01*
X4563929Y-8587500D01*
X4549643Y-8573214D01*
X4549643Y-8601786D01*
X4735357Y-8873214D02*
X4706786Y-8858929D01*
X4692500Y-8830357D01*
X4692500Y-8573214D01*
X4892500Y-8873214D02*
X4863929Y-8858929D01*
X4849643Y-8830357D01*
X4849643Y-8573214D01*
X5235357Y-8873214D02*
X5235357Y-8573214D01*
X5335357Y-8787500D01*
X5435357Y-8573214D01*
X5435357Y-8873214D01*
X5706786Y-8873214D02*
X5706786Y-8716072D01*
X5692500Y-8687500D01*
X5663928Y-8673214D01*
X5606786Y-8673214D01*
X5578214Y-8687500D01*
X5706786Y-8858929D02*
X5678214Y-8873214D01*
X5606786Y-8873214D01*
X5578214Y-8858929D01*
X5563929Y-8830357D01*
X5563929Y-8801786D01*
X5578214Y-8773214D01*
X5606786Y-8758929D01*
X5678214Y-8758929D01*
X5706786Y-8744643D01*
X5849643Y-8673214D02*
X5849643Y-8973214D01*
X5849643Y-8687500D02*
X5878214Y-8673214D01*
X5935357Y-8673214D01*
X5963928Y-8687500D01*
X5978214Y-8701786D01*
X5992500Y-8730357D01*
X5992500Y-8816072D01*
X5978214Y-8844643D01*
X5963928Y-8858929D01*
X5935357Y-8873214D01*
X5878214Y-8873214D01*
X5849643Y-8858929D01*
X6121071Y-8844643D02*
X6135357Y-8858929D01*
X6121071Y-8873214D01*
X6106786Y-8858929D01*
X6121071Y-8844643D01*
X6121071Y-8873214D01*
X6121071Y-8687500D02*
X6135357Y-8701786D01*
X6121071Y-8716072D01*
X6106786Y-8701786D01*
X6121071Y-8687500D01*
X6121071Y-8716072D01*
X3712500Y-9327500D02*
X3792500Y-9407500D01*
X3792500Y-9327500D02*
X3712500Y-9407500D01*
X4121071Y-9203214D02*
X4149643Y-9203214D01*
X4178214Y-9217500D01*
X4192500Y-9231786D01*
X4206786Y-9260357D01*
X4221071Y-9317500D01*
X4221071Y-9388929D01*
X4206786Y-9446072D01*
X4192500Y-9474643D01*
X4178214Y-9488929D01*
X4149643Y-9503214D01*
X4121071Y-9503214D01*
X4092500Y-9488929D01*
X4078214Y-9474643D01*
X4063928Y-9446072D01*
X4049643Y-9388929D01*
X4049643Y-9317500D01*
X4063928Y-9260357D01*
X4078214Y-9231786D01*
X4092500Y-9217500D01*
X4121071Y-9203214D01*
X4349643Y-9474643D02*
X4363929Y-9488929D01*
X4349643Y-9503214D01*
X4335357Y-9488929D01*
X4349643Y-9474643D01*
X4349643Y-9503214D01*
X4535357Y-9331786D02*
X4506786Y-9317500D01*
X4492500Y-9303214D01*
X4478214Y-9274643D01*
X4478214Y-9260357D01*
X4492500Y-9231786D01*
X4506786Y-9217500D01*
X4535357Y-9203214D01*
X4592500Y-9203214D01*
X4621071Y-9217500D01*
X4635357Y-9231786D01*
X4649643Y-9260357D01*
X4649643Y-9274643D01*
X4635357Y-9303214D01*
X4621071Y-9317500D01*
X4592500Y-9331786D01*
X4535357Y-9331786D01*
X4506786Y-9346072D01*
X4492500Y-9360357D01*
X4478214Y-9388929D01*
X4478214Y-9446072D01*
X4492500Y-9474643D01*
X4506786Y-9488929D01*
X4535357Y-9503214D01*
X4592500Y-9503214D01*
X4621071Y-9488929D01*
X4635357Y-9474643D01*
X4649643Y-9446072D01*
X4649643Y-9388929D01*
X4635357Y-9360357D01*
X4621071Y-9346072D01*
X4592500Y-9331786D01*
X4835357Y-9203214D02*
X4863929Y-9203214D01*
X4892500Y-9217500D01*
X4906786Y-9231786D01*
X4921071Y-9260357D01*
X4935357Y-9317500D01*
X4935357Y-9388929D01*
X4921071Y-9446072D01*
X4906786Y-9474643D01*
X4892500Y-9488929D01*
X4863929Y-9503214D01*
X4835357Y-9503214D01*
X4806786Y-9488929D01*
X4792500Y-9474643D01*
X4778214Y-9446072D01*
X4763929Y-9388929D01*
X4763929Y-9317500D01*
X4778214Y-9260357D01*
X4792500Y-9231786D01*
X4806786Y-9217500D01*
X4835357Y-9203214D01*
X5063929Y-9503214D02*
X5063929Y-9303214D01*
X5063929Y-9331786D02*
X5078214Y-9317500D01*
X5106786Y-9303214D01*
X5149643Y-9303214D01*
X5178214Y-9317500D01*
X5192500Y-9346072D01*
X5192500Y-9503214D01*
X5192500Y-9346072D02*
X5206786Y-9317500D01*
X5235357Y-9303214D01*
X5278214Y-9303214D01*
X5306786Y-9317500D01*
X5321071Y-9346072D01*
X5321071Y-9503214D01*
X5463929Y-9503214D02*
X5463929Y-9303214D01*
X5463929Y-9331786D02*
X5478214Y-9317500D01*
X5506786Y-9303214D01*
X5549643Y-9303214D01*
X5578214Y-9317500D01*
X5592500Y-9346072D01*
X5592500Y-9503214D01*
X5592500Y-9346072D02*
X5606786Y-9317500D01*
X5635357Y-9303214D01*
X5678214Y-9303214D01*
X5706786Y-9317500D01*
X5721071Y-9346072D01*
X5721071Y-9503214D01*
X6306786Y-9188929D02*
X6049643Y-9574643D01*
X6692500Y-9203214D02*
X6721071Y-9203214D01*
X6749643Y-9217500D01*
X6763928Y-9231786D01*
X6778214Y-9260357D01*
X6792500Y-9317500D01*
X6792500Y-9388929D01*
X6778214Y-9446072D01*
X6763928Y-9474643D01*
X6749643Y-9488929D01*
X6721071Y-9503214D01*
X6692500Y-9503214D01*
X6663928Y-9488929D01*
X6649643Y-9474643D01*
X6635357Y-9446072D01*
X6621071Y-9388929D01*
X6621071Y-9317500D01*
X6635357Y-9260357D01*
X6649643Y-9231786D01*
X6663928Y-9217500D01*
X6692500Y-9203214D01*
X6921071Y-9474643D02*
X6935357Y-9488929D01*
X6921071Y-9503214D01*
X6906786Y-9488929D01*
X6921071Y-9474643D01*
X6921071Y-9503214D01*
X7121071Y-9203214D02*
X7149643Y-9203214D01*
X7178214Y-9217500D01*
X7192500Y-9231786D01*
X7206785Y-9260357D01*
X7221071Y-9317500D01*
X7221071Y-9388929D01*
X7206785Y-9446072D01*
X7192500Y-9474643D01*
X7178214Y-9488929D01*
X7149643Y-9503214D01*
X7121071Y-9503214D01*
X7092500Y-9488929D01*
X7078214Y-9474643D01*
X7063928Y-9446072D01*
X7049643Y-9388929D01*
X7049643Y-9317500D01*
X7063928Y-9260357D01*
X7078214Y-9231786D01*
X7092500Y-9217500D01*
X7121071Y-9203214D01*
X7321071Y-9203214D02*
X7506785Y-9203214D01*
X7406785Y-9317500D01*
X7449643Y-9317500D01*
X7478214Y-9331786D01*
X7492500Y-9346072D01*
X7506785Y-9374643D01*
X7506785Y-9446072D01*
X7492500Y-9474643D01*
X7478214Y-9488929D01*
X7449643Y-9503214D01*
X7363928Y-9503214D01*
X7335357Y-9488929D01*
X7321071Y-9474643D01*
X7792500Y-9503214D02*
X7621071Y-9503214D01*
X7706785Y-9503214D02*
X7706785Y-9203214D01*
X7678214Y-9246072D01*
X7649643Y-9274643D01*
X7621071Y-9288929D01*
X7906786Y-9203214D02*
X7906786Y-9260357D01*
X8021071Y-9203214D02*
X8021071Y-9260357D01*
X8463928Y-9617500D02*
X8449643Y-9603214D01*
X8421071Y-9560357D01*
X8406786Y-9531786D01*
X8392500Y-9488929D01*
X8378214Y-9417500D01*
X8378214Y-9360357D01*
X8392500Y-9288929D01*
X8406786Y-9246072D01*
X8421071Y-9217500D01*
X8449643Y-9174643D01*
X8463928Y-9160357D01*
X8549643Y-9203214D02*
X8735357Y-9203214D01*
X8635357Y-9317500D01*
X8678214Y-9317500D01*
X8706786Y-9331786D01*
X8721071Y-9346072D01*
X8735357Y-9374643D01*
X8735357Y-9446072D01*
X8721071Y-9474643D01*
X8706786Y-9488929D01*
X8678214Y-9503214D01*
X8592500Y-9503214D01*
X8563928Y-9488929D01*
X8549643Y-9474643D01*
X9021071Y-9503214D02*
X8849643Y-9503214D01*
X8935357Y-9503214D02*
X8935357Y-9203214D01*
X8906786Y-9246072D01*
X8878214Y-9274643D01*
X8849643Y-9288929D01*
X9378214Y-9503214D02*
X9378214Y-9203214D01*
X9506786Y-9503214D02*
X9506786Y-9346072D01*
X9492500Y-9317500D01*
X9463928Y-9303214D01*
X9421071Y-9303214D01*
X9392500Y-9317500D01*
X9378214Y-9331786D01*
X9692500Y-9503214D02*
X9663928Y-9488929D01*
X9649643Y-9474643D01*
X9635357Y-9446072D01*
X9635357Y-9360357D01*
X9649643Y-9331786D01*
X9663928Y-9317500D01*
X9692500Y-9303214D01*
X9735357Y-9303214D01*
X9763928Y-9317500D01*
X9778214Y-9331786D01*
X9792500Y-9360357D01*
X9792500Y-9446072D01*
X9778214Y-9474643D01*
X9763928Y-9488929D01*
X9735357Y-9503214D01*
X9692500Y-9503214D01*
X9963928Y-9503214D02*
X9935357Y-9488929D01*
X9921071Y-9460357D01*
X9921071Y-9203214D01*
X10192500Y-9488929D02*
X10163929Y-9503214D01*
X10106786Y-9503214D01*
X10078214Y-9488929D01*
X10063929Y-9460357D01*
X10063929Y-9346072D01*
X10078214Y-9317500D01*
X10106786Y-9303214D01*
X10163929Y-9303214D01*
X10192500Y-9317500D01*
X10206786Y-9346072D01*
X10206786Y-9374643D01*
X10063929Y-9403214D01*
X10321071Y-9488929D02*
X10349643Y-9503214D01*
X10406786Y-9503214D01*
X10435357Y-9488929D01*
X10449643Y-9460357D01*
X10449643Y-9446072D01*
X10435357Y-9417500D01*
X10406786Y-9403214D01*
X10363929Y-9403214D01*
X10335357Y-9388929D01*
X10321071Y-9360357D01*
X10321071Y-9346072D01*
X10335357Y-9317500D01*
X10363929Y-9303214D01*
X10406786Y-9303214D01*
X10435357Y-9317500D01*
X10549643Y-9617500D02*
X10563929Y-9603214D01*
X10592500Y-9560357D01*
X10606786Y-9531786D01*
X10621071Y-9488929D01*
X10635357Y-9417500D01*
X10635357Y-9360357D01*
X10621071Y-9288929D01*
X10606786Y-9246072D01*
X10592500Y-9217500D01*
X10563929Y-9174643D01*
X10549643Y-9160357D01*
X3792500Y-9763500D02*
G75*
G03X3792500Y-9763500I-50000J0D01*
G01*
X4221071Y-9899214D02*
X4049643Y-9899214D01*
X4135357Y-9899214D02*
X4135357Y-9599214D01*
X4106786Y-9642072D01*
X4078214Y-9670643D01*
X4049643Y-9684929D01*
X4349643Y-9870643D02*
X4363929Y-9884929D01*
X4349643Y-9899214D01*
X4335357Y-9884929D01*
X4349643Y-9870643D01*
X4349643Y-9899214D01*
X4549643Y-9599214D02*
X4578214Y-9599214D01*
X4606786Y-9613500D01*
X4621071Y-9627786D01*
X4635357Y-9656357D01*
X4649643Y-9713500D01*
X4649643Y-9784929D01*
X4635357Y-9842072D01*
X4621071Y-9870643D01*
X4606786Y-9884929D01*
X4578214Y-9899214D01*
X4549643Y-9899214D01*
X4521071Y-9884929D01*
X4506786Y-9870643D01*
X4492500Y-9842072D01*
X4478214Y-9784929D01*
X4478214Y-9713500D01*
X4492500Y-9656357D01*
X4506786Y-9627786D01*
X4521071Y-9613500D01*
X4549643Y-9599214D01*
X4835357Y-9599214D02*
X4863929Y-9599214D01*
X4892500Y-9613500D01*
X4906786Y-9627786D01*
X4921071Y-9656357D01*
X4935357Y-9713500D01*
X4935357Y-9784929D01*
X4921071Y-9842072D01*
X4906786Y-9870643D01*
X4892500Y-9884929D01*
X4863929Y-9899214D01*
X4835357Y-9899214D01*
X4806786Y-9884929D01*
X4792500Y-9870643D01*
X4778214Y-9842072D01*
X4763929Y-9784929D01*
X4763929Y-9713500D01*
X4778214Y-9656357D01*
X4792500Y-9627786D01*
X4806786Y-9613500D01*
X4835357Y-9599214D01*
X5063929Y-9899214D02*
X5063929Y-9699214D01*
X5063929Y-9727786D02*
X5078214Y-9713500D01*
X5106786Y-9699214D01*
X5149643Y-9699214D01*
X5178214Y-9713500D01*
X5192500Y-9742072D01*
X5192500Y-9899214D01*
X5192500Y-9742072D02*
X5206786Y-9713500D01*
X5235357Y-9699214D01*
X5278214Y-9699214D01*
X5306786Y-9713500D01*
X5321071Y-9742072D01*
X5321071Y-9899214D01*
X5463929Y-9899214D02*
X5463929Y-9699214D01*
X5463929Y-9727786D02*
X5478214Y-9713500D01*
X5506786Y-9699214D01*
X5549643Y-9699214D01*
X5578214Y-9713500D01*
X5592500Y-9742072D01*
X5592500Y-9899214D01*
X5592500Y-9742072D02*
X5606786Y-9713500D01*
X5635357Y-9699214D01*
X5678214Y-9699214D01*
X5706786Y-9713500D01*
X5721071Y-9742072D01*
X5721071Y-9899214D01*
X6306786Y-9584929D02*
X6049643Y-9970643D01*
X6692500Y-9599214D02*
X6721071Y-9599214D01*
X6749643Y-9613500D01*
X6763928Y-9627786D01*
X6778214Y-9656357D01*
X6792500Y-9713500D01*
X6792500Y-9784929D01*
X6778214Y-9842072D01*
X6763928Y-9870643D01*
X6749643Y-9884929D01*
X6721071Y-9899214D01*
X6692500Y-9899214D01*
X6663928Y-9884929D01*
X6649643Y-9870643D01*
X6635357Y-9842072D01*
X6621071Y-9784929D01*
X6621071Y-9713500D01*
X6635357Y-9656357D01*
X6649643Y-9627786D01*
X6663928Y-9613500D01*
X6692500Y-9599214D01*
X6921071Y-9870643D02*
X6935357Y-9884929D01*
X6921071Y-9899214D01*
X6906786Y-9884929D01*
X6921071Y-9870643D01*
X6921071Y-9899214D01*
X7121071Y-9599214D02*
X7149643Y-9599214D01*
X7178214Y-9613500D01*
X7192500Y-9627786D01*
X7206785Y-9656357D01*
X7221071Y-9713500D01*
X7221071Y-9784929D01*
X7206785Y-9842072D01*
X7192500Y-9870643D01*
X7178214Y-9884929D01*
X7149643Y-9899214D01*
X7121071Y-9899214D01*
X7092500Y-9884929D01*
X7078214Y-9870643D01*
X7063928Y-9842072D01*
X7049643Y-9784929D01*
X7049643Y-9713500D01*
X7063928Y-9656357D01*
X7078214Y-9627786D01*
X7092500Y-9613500D01*
X7121071Y-9599214D01*
X7321071Y-9599214D02*
X7506785Y-9599214D01*
X7406785Y-9713500D01*
X7449643Y-9713500D01*
X7478214Y-9727786D01*
X7492500Y-9742072D01*
X7506785Y-9770643D01*
X7506785Y-9842072D01*
X7492500Y-9870643D01*
X7478214Y-9884929D01*
X7449643Y-9899214D01*
X7363928Y-9899214D01*
X7335357Y-9884929D01*
X7321071Y-9870643D01*
X7649643Y-9899214D02*
X7706785Y-9899214D01*
X7735357Y-9884929D01*
X7749643Y-9870643D01*
X7778214Y-9827786D01*
X7792500Y-9770643D01*
X7792500Y-9656357D01*
X7778214Y-9627786D01*
X7763928Y-9613500D01*
X7735357Y-9599214D01*
X7678214Y-9599214D01*
X7649643Y-9613500D01*
X7635357Y-9627786D01*
X7621071Y-9656357D01*
X7621071Y-9727786D01*
X7635357Y-9756357D01*
X7649643Y-9770643D01*
X7678214Y-9784929D01*
X7735357Y-9784929D01*
X7763928Y-9770643D01*
X7778214Y-9756357D01*
X7792500Y-9727786D01*
X7906786Y-9599214D02*
X7906786Y-9656357D01*
X8021071Y-9599214D02*
X8021071Y-9656357D01*
X8463928Y-10013500D02*
X8449643Y-9999214D01*
X8421071Y-9956357D01*
X8406786Y-9927786D01*
X8392500Y-9884929D01*
X8378214Y-9813500D01*
X8378214Y-9756357D01*
X8392500Y-9684929D01*
X8406786Y-9642072D01*
X8421071Y-9613500D01*
X8449643Y-9570643D01*
X8463928Y-9556357D01*
X8721071Y-9599214D02*
X8578214Y-9599214D01*
X8563928Y-9742072D01*
X8578214Y-9727786D01*
X8606786Y-9713500D01*
X8678214Y-9713500D01*
X8706786Y-9727786D01*
X8721071Y-9742072D01*
X8735357Y-9770643D01*
X8735357Y-9842072D01*
X8721071Y-9870643D01*
X8706786Y-9884929D01*
X8678214Y-9899214D01*
X8606786Y-9899214D01*
X8578214Y-9884929D01*
X8563928Y-9870643D01*
X9006786Y-9599214D02*
X8863928Y-9599214D01*
X8849643Y-9742072D01*
X8863928Y-9727786D01*
X8892500Y-9713500D01*
X8963928Y-9713500D01*
X8992500Y-9727786D01*
X9006786Y-9742072D01*
X9021071Y-9770643D01*
X9021071Y-9842072D01*
X9006786Y-9870643D01*
X8992500Y-9884929D01*
X8963928Y-9899214D01*
X8892500Y-9899214D01*
X8863928Y-9884929D01*
X8849643Y-9870643D01*
X9378214Y-9899214D02*
X9378214Y-9599214D01*
X9506786Y-9899214D02*
X9506786Y-9742072D01*
X9492500Y-9713500D01*
X9463928Y-9699214D01*
X9421071Y-9699214D01*
X9392500Y-9713500D01*
X9378214Y-9727786D01*
X9692500Y-9899214D02*
X9663928Y-9884929D01*
X9649643Y-9870643D01*
X9635357Y-9842072D01*
X9635357Y-9756357D01*
X9649643Y-9727786D01*
X9663928Y-9713500D01*
X9692500Y-9699214D01*
X9735357Y-9699214D01*
X9763928Y-9713500D01*
X9778214Y-9727786D01*
X9792500Y-9756357D01*
X9792500Y-9842072D01*
X9778214Y-9870643D01*
X9763928Y-9884929D01*
X9735357Y-9899214D01*
X9692500Y-9899214D01*
X9963928Y-9899214D02*
X9935357Y-9884929D01*
X9921071Y-9856357D01*
X9921071Y-9599214D01*
X10192500Y-9884929D02*
X10163929Y-9899214D01*
X10106786Y-9899214D01*
X10078214Y-9884929D01*
X10063929Y-9856357D01*
X10063929Y-9742072D01*
X10078214Y-9713500D01*
X10106786Y-9699214D01*
X10163929Y-9699214D01*
X10192500Y-9713500D01*
X10206786Y-9742072D01*
X10206786Y-9770643D01*
X10063929Y-9799214D01*
X10321071Y-9884929D02*
X10349643Y-9899214D01*
X10406786Y-9899214D01*
X10435357Y-9884929D01*
X10449643Y-9856357D01*
X10449643Y-9842072D01*
X10435357Y-9813500D01*
X10406786Y-9799214D01*
X10363929Y-9799214D01*
X10335357Y-9784929D01*
X10321071Y-9756357D01*
X10321071Y-9742072D01*
X10335357Y-9713500D01*
X10363929Y-9699214D01*
X10406786Y-9699214D01*
X10435357Y-9713500D01*
X10549643Y-10013500D02*
X10563929Y-9999214D01*
X10592500Y-9956357D01*
X10606786Y-9927786D01*
X10621071Y-9884929D01*
X10635357Y-9813500D01*
X10635357Y-9756357D01*
X10621071Y-9684929D01*
X10606786Y-9642072D01*
X10592500Y-9613500D01*
X10563929Y-9570643D01*
X10549643Y-9556357D01*
X3727500Y-10094500D02*
X3727500Y-10224500D01*
X3662500Y-10159500D02*
X3792500Y-10159500D01*
X4221071Y-10295214D02*
X4049643Y-10295214D01*
X4135357Y-10295214D02*
X4135357Y-9995214D01*
X4106786Y-10038072D01*
X4078214Y-10066643D01*
X4049643Y-10080929D01*
X4349643Y-10266643D02*
X4363929Y-10280929D01*
X4349643Y-10295214D01*
X4335357Y-10280929D01*
X4349643Y-10266643D01*
X4349643Y-10295214D01*
X4463928Y-9995214D02*
X4649643Y-9995214D01*
X4549643Y-10109500D01*
X4592500Y-10109500D01*
X4621071Y-10123786D01*
X4635357Y-10138072D01*
X4649643Y-10166643D01*
X4649643Y-10238072D01*
X4635357Y-10266643D01*
X4621071Y-10280929D01*
X4592500Y-10295214D01*
X4506786Y-10295214D01*
X4478214Y-10280929D01*
X4463928Y-10266643D01*
X4835357Y-9995214D02*
X4863929Y-9995214D01*
X4892500Y-10009500D01*
X4906786Y-10023786D01*
X4921071Y-10052357D01*
X4935357Y-10109500D01*
X4935357Y-10180929D01*
X4921071Y-10238072D01*
X4906786Y-10266643D01*
X4892500Y-10280929D01*
X4863929Y-10295214D01*
X4835357Y-10295214D01*
X4806786Y-10280929D01*
X4792500Y-10266643D01*
X4778214Y-10238072D01*
X4763929Y-10180929D01*
X4763929Y-10109500D01*
X4778214Y-10052357D01*
X4792500Y-10023786D01*
X4806786Y-10009500D01*
X4835357Y-9995214D01*
X5063929Y-10295214D02*
X5063929Y-10095214D01*
X5063929Y-10123786D02*
X5078214Y-10109500D01*
X5106786Y-10095214D01*
X5149643Y-10095214D01*
X5178214Y-10109500D01*
X5192500Y-10138072D01*
X5192500Y-10295214D01*
X5192500Y-10138072D02*
X5206786Y-10109500D01*
X5235357Y-10095214D01*
X5278214Y-10095214D01*
X5306786Y-10109500D01*
X5321071Y-10138072D01*
X5321071Y-10295214D01*
X5463929Y-10295214D02*
X5463929Y-10095214D01*
X5463929Y-10123786D02*
X5478214Y-10109500D01*
X5506786Y-10095214D01*
X5549643Y-10095214D01*
X5578214Y-10109500D01*
X5592500Y-10138072D01*
X5592500Y-10295214D01*
X5592500Y-10138072D02*
X5606786Y-10109500D01*
X5635357Y-10095214D01*
X5678214Y-10095214D01*
X5706786Y-10109500D01*
X5721071Y-10138072D01*
X5721071Y-10295214D01*
X6306786Y-9980929D02*
X6049643Y-10366643D01*
X6692500Y-9995214D02*
X6721071Y-9995214D01*
X6749643Y-10009500D01*
X6763928Y-10023786D01*
X6778214Y-10052357D01*
X6792500Y-10109500D01*
X6792500Y-10180929D01*
X6778214Y-10238072D01*
X6763928Y-10266643D01*
X6749643Y-10280929D01*
X6721071Y-10295214D01*
X6692500Y-10295214D01*
X6663928Y-10280929D01*
X6649643Y-10266643D01*
X6635357Y-10238072D01*
X6621071Y-10180929D01*
X6621071Y-10109500D01*
X6635357Y-10052357D01*
X6649643Y-10023786D01*
X6663928Y-10009500D01*
X6692500Y-9995214D01*
X6921071Y-10266643D02*
X6935357Y-10280929D01*
X6921071Y-10295214D01*
X6906786Y-10280929D01*
X6921071Y-10266643D01*
X6921071Y-10295214D01*
X7121071Y-9995214D02*
X7149643Y-9995214D01*
X7178214Y-10009500D01*
X7192500Y-10023786D01*
X7206785Y-10052357D01*
X7221071Y-10109500D01*
X7221071Y-10180929D01*
X7206785Y-10238072D01*
X7192500Y-10266643D01*
X7178214Y-10280929D01*
X7149643Y-10295214D01*
X7121071Y-10295214D01*
X7092500Y-10280929D01*
X7078214Y-10266643D01*
X7063928Y-10238072D01*
X7049643Y-10180929D01*
X7049643Y-10109500D01*
X7063928Y-10052357D01*
X7078214Y-10023786D01*
X7092500Y-10009500D01*
X7121071Y-9995214D01*
X7492500Y-9995214D02*
X7349643Y-9995214D01*
X7335357Y-10138072D01*
X7349643Y-10123786D01*
X7378214Y-10109500D01*
X7449643Y-10109500D01*
X7478214Y-10123786D01*
X7492500Y-10138072D01*
X7506785Y-10166643D01*
X7506785Y-10238072D01*
X7492500Y-10266643D01*
X7478214Y-10280929D01*
X7449643Y-10295214D01*
X7378214Y-10295214D01*
X7349643Y-10280929D01*
X7335357Y-10266643D01*
X7792500Y-10295214D02*
X7621071Y-10295214D01*
X7706785Y-10295214D02*
X7706785Y-9995214D01*
X7678214Y-10038072D01*
X7649643Y-10066643D01*
X7621071Y-10080929D01*
X7906786Y-9995214D02*
X7906786Y-10052357D01*
X8021071Y-9995214D02*
X8021071Y-10052357D01*
X8463928Y-10409500D02*
X8449643Y-10395214D01*
X8421071Y-10352357D01*
X8406786Y-10323786D01*
X8392500Y-10280929D01*
X8378214Y-10209500D01*
X8378214Y-10152357D01*
X8392500Y-10080929D01*
X8406786Y-10038072D01*
X8421071Y-10009500D01*
X8449643Y-9966643D01*
X8463928Y-9952357D01*
X8563928Y-10023786D02*
X8578214Y-10009500D01*
X8606786Y-9995214D01*
X8678214Y-9995214D01*
X8706786Y-10009500D01*
X8721071Y-10023786D01*
X8735357Y-10052357D01*
X8735357Y-10080929D01*
X8721071Y-10123786D01*
X8549643Y-10295214D01*
X8735357Y-10295214D01*
X9092500Y-10295214D02*
X9092500Y-9995214D01*
X9221071Y-10295214D02*
X9221071Y-10138072D01*
X9206786Y-10109500D01*
X9178214Y-10095214D01*
X9135357Y-10095214D01*
X9106786Y-10109500D01*
X9092500Y-10123786D01*
X9406786Y-10295214D02*
X9378214Y-10280929D01*
X9363928Y-10266643D01*
X9349643Y-10238072D01*
X9349643Y-10152357D01*
X9363928Y-10123786D01*
X9378214Y-10109500D01*
X9406786Y-10095214D01*
X9449643Y-10095214D01*
X9478214Y-10109500D01*
X9492500Y-10123786D01*
X9506786Y-10152357D01*
X9506786Y-10238072D01*
X9492500Y-10266643D01*
X9478214Y-10280929D01*
X9449643Y-10295214D01*
X9406786Y-10295214D01*
X9678214Y-10295214D02*
X9649643Y-10280929D01*
X9635357Y-10252357D01*
X9635357Y-9995214D01*
X9906786Y-10280929D02*
X9878214Y-10295214D01*
X9821071Y-10295214D01*
X9792500Y-10280929D01*
X9778214Y-10252357D01*
X9778214Y-10138072D01*
X9792500Y-10109500D01*
X9821071Y-10095214D01*
X9878214Y-10095214D01*
X9906786Y-10109500D01*
X9921071Y-10138072D01*
X9921071Y-10166643D01*
X9778214Y-10195214D01*
X10035357Y-10280929D02*
X10063929Y-10295214D01*
X10121071Y-10295214D01*
X10149643Y-10280929D01*
X10163929Y-10252357D01*
X10163929Y-10238072D01*
X10149643Y-10209500D01*
X10121071Y-10195214D01*
X10078214Y-10195214D01*
X10049643Y-10180929D01*
X10035357Y-10152357D01*
X10035357Y-10138072D01*
X10049643Y-10109500D01*
X10078214Y-10095214D01*
X10121071Y-10095214D01*
X10149643Y-10109500D01*
X10263928Y-10409500D02*
X10278214Y-10395214D01*
X10306786Y-10352357D01*
X10321071Y-10323786D01*
X10335357Y-10280929D01*
X10349643Y-10209500D01*
X10349643Y-10152357D01*
X10335357Y-10080929D01*
X10321071Y-10038072D01*
X10306786Y-10009500D01*
X10278214Y-9966643D01*
X10263928Y-9952357D01*
M02*
