G04 #@! TF.FileFunction,Copper,L2,Bot,Signal*
%FSLAX46Y46*%
G04 Gerber Fmt 4.6, Leading zero omitted, Abs format (unit mm)*
G04 Created by KiCad (PCBNEW 4.0.7) date Mon Jan 29 08:29:15 2018*
%MOMM*%
%LPD*%
G01*
G04 APERTURE LIST*
%ADD10C,0.100000*%
%ADD11C,0.150000*%
%ADD12R,2.500000X2.500000*%
%ADD13C,2.500000*%
%ADD14R,1.727200X1.727200*%
%ADD15O,1.727200X1.727200*%
%ADD16R,3.800000X2.000000*%
%ADD17R,1.500000X2.000000*%
%ADD18R,1.200000X0.750000*%
%ADD19R,1.500000X1.250000*%
%ADD20R,1.250000X1.500000*%
%ADD21R,1.600000X1.600000*%
%ADD22C,1.600000*%
%ADD23R,0.800000X0.900000*%
%ADD24R,0.900000X0.800000*%
%ADD25R,1.560000X0.650000*%
%ADD26R,1.700000X1.700000*%
%ADD27O,1.700000X1.700000*%
%ADD28R,0.800000X1.900000*%
%ADD29R,0.900000X1.200000*%
%ADD30R,1.500000X3.200000*%
%ADD31R,1.500000X1.300000*%
%ADD32R,1.550000X0.600000*%
%ADD33C,1.200000*%
%ADD34C,0.500000*%
%ADD35C,1.000000*%
%ADD36C,0.250000*%
%ADD37C,0.254000*%
G04 APERTURE END LIST*
D10*
D11*
X92000000Y-84000000D02*
X92000000Y-82000000D01*
X38000000Y-84000000D02*
X92000000Y-84000000D01*
X38000000Y-82000000D02*
X38000000Y-84000000D01*
X92000000Y-30000000D02*
X92000000Y-82000000D01*
X82000000Y-30000000D02*
X92000000Y-30000000D01*
X38000000Y-82000000D02*
X38000000Y-30000000D01*
X38000000Y-30000000D02*
X82000000Y-30000000D01*
D12*
X54383000Y-34445000D03*
D13*
X49383000Y-34445000D03*
D14*
X88165000Y-40160000D03*
D15*
X85625000Y-40160000D03*
X88165000Y-42700000D03*
X85625000Y-42700000D03*
X88165000Y-45240000D03*
X85625000Y-45240000D03*
X88165000Y-47780000D03*
X85625000Y-47780000D03*
X88165000Y-50320000D03*
X85625000Y-50320000D03*
D14*
X88165000Y-64290000D03*
D15*
X85625000Y-64290000D03*
X88165000Y-66830000D03*
X85625000Y-66830000D03*
X88165000Y-69370000D03*
X85625000Y-69370000D03*
X88165000Y-71910000D03*
X85625000Y-71910000D03*
X88165000Y-74450000D03*
X85625000Y-74450000D03*
D16*
X44096000Y-68964000D03*
D17*
X44096000Y-62664000D03*
X46396000Y-62664000D03*
X41796000Y-62664000D03*
D18*
X47337000Y-44732000D03*
X49237000Y-44732000D03*
D19*
X54276000Y-61813500D03*
X56776000Y-61813500D03*
D20*
X52859000Y-64754500D03*
X52859000Y-67254500D03*
D21*
X64162000Y-74450000D03*
D22*
X67662000Y-74450000D03*
D21*
X64162000Y-50320000D03*
D22*
X67662000Y-50320000D03*
D23*
X43273000Y-49320000D03*
X45173000Y-49320000D03*
X44223000Y-51320000D03*
D24*
X48795000Y-66986500D03*
X48795000Y-69086500D03*
D25*
X80688500Y-65181500D03*
X80688500Y-66131500D03*
X80688500Y-67081500D03*
X77988500Y-67081500D03*
X77988500Y-65181500D03*
D26*
X40095500Y-39715500D03*
D27*
X40095500Y-42255500D03*
X40095500Y-44795500D03*
D26*
X72290000Y-59210000D03*
D27*
X72290000Y-61750000D03*
X72290000Y-64290000D03*
X72290000Y-66830000D03*
X72290000Y-69370000D03*
X72290000Y-71910000D03*
X72290000Y-74450000D03*
X72290000Y-76990000D03*
D26*
X72290000Y-35080000D03*
D27*
X72290000Y-37620000D03*
X72290000Y-40160000D03*
X72290000Y-42700000D03*
X72290000Y-45240000D03*
X72290000Y-47780000D03*
X72290000Y-50320000D03*
X72290000Y-52860000D03*
D26*
X59590000Y-59210000D03*
D27*
X59590000Y-61750000D03*
X59590000Y-64290000D03*
X59590000Y-66830000D03*
X59590000Y-69370000D03*
X59590000Y-71910000D03*
X59590000Y-74450000D03*
X59590000Y-76990000D03*
D26*
X59590000Y-35080000D03*
D27*
X59590000Y-37620000D03*
X59590000Y-40160000D03*
X59590000Y-42700000D03*
X59590000Y-45240000D03*
X59590000Y-47780000D03*
X59590000Y-50320000D03*
X59590000Y-52860000D03*
D28*
X49237000Y-42295000D03*
X47337000Y-42295000D03*
X48287000Y-39295000D03*
D29*
X57050000Y-59611500D03*
X57050000Y-57411500D03*
D30*
X39079500Y-67814000D03*
X39079500Y-63814000D03*
D29*
X55272000Y-57411500D03*
X55272000Y-59611500D03*
X48604500Y-64818500D03*
X48604500Y-62618500D03*
X50827000Y-69200000D03*
X50827000Y-67000000D03*
X50827000Y-64564500D03*
X50827000Y-62364500D03*
X43270500Y-45768500D03*
X43270500Y-43568500D03*
X45175500Y-45768500D03*
X45175500Y-43568500D03*
D31*
X75512000Y-70259000D03*
X78212000Y-70259000D03*
D32*
X49270000Y-51653500D03*
X49270000Y-50383500D03*
X49270000Y-49113500D03*
X49270000Y-47843500D03*
X54670000Y-47843500D03*
X54670000Y-49113500D03*
X54670000Y-50383500D03*
X54670000Y-51653500D03*
D19*
X44306500Y-60353000D03*
X46806500Y-60353000D03*
D31*
X75512000Y-73561000D03*
X78212000Y-73561000D03*
D33*
X40476500Y-71084500D03*
X52859000Y-42700000D03*
X77370000Y-57749500D03*
X57177000Y-71402000D03*
X45048500Y-58702000D03*
X53684500Y-59591000D03*
X51716000Y-60670500D03*
X43334000Y-47653000D03*
X45112000Y-47653000D03*
X82450000Y-77434500D03*
X83910500Y-79212500D03*
X42699000Y-53368000D03*
X50446000Y-54447500D03*
X83212000Y-53749000D03*
X40667000Y-55654000D03*
X49620500Y-55654000D03*
X81878500Y-55654000D03*
X50192000Y-58448000D03*
X43715000Y-58130500D03*
X43651500Y-73243500D03*
X59590000Y-35080000D03*
X53451000Y-69200000D03*
X39968500Y-52669500D03*
X46509000Y-81498500D03*
X46001000Y-53050500D03*
X46699500Y-58638500D03*
X76100000Y-56479500D03*
D34*
X40476500Y-68964000D02*
X40476500Y-71084500D01*
X52859000Y-42700000D02*
X54637000Y-42700000D01*
X75512000Y-70259000D02*
X75512000Y-69798000D01*
X75512000Y-69798000D02*
X74576000Y-68862000D01*
X77370000Y-60988000D02*
X77370000Y-57749500D01*
X74576000Y-63782000D02*
X77370000Y-60988000D01*
X74576000Y-68862000D02*
X74576000Y-63782000D01*
X44096000Y-68964000D02*
X44096000Y-69433500D01*
X44096000Y-69433500D02*
X46064500Y-71402000D01*
X46064500Y-71402000D02*
X57177000Y-71402000D01*
X54637000Y-42700000D02*
X59590000Y-42700000D01*
X45048500Y-58702000D02*
X44096000Y-59654500D01*
X44096000Y-59654500D02*
X44096000Y-60142500D01*
X44096000Y-60142500D02*
X44306500Y-60353000D01*
X44096000Y-62664000D02*
X44096000Y-59654500D01*
X75512000Y-70259000D02*
X75512000Y-73561000D01*
D35*
X44096000Y-68964000D02*
X40476500Y-68964000D01*
X40476500Y-68964000D02*
X40229500Y-68964000D01*
X40229500Y-68964000D02*
X39079500Y-67814000D01*
D34*
X44096000Y-68964000D02*
X44096000Y-62664000D01*
X48604500Y-62618500D02*
X48604500Y-61813500D01*
X52732000Y-51082000D02*
X50763500Y-49113500D01*
X52732000Y-52352000D02*
X52732000Y-51082000D01*
X53430500Y-53050500D02*
X52732000Y-52352000D01*
X53430500Y-56987500D02*
X53430500Y-53050500D01*
X48604500Y-61813500D02*
X53430500Y-56987500D01*
X46396000Y-62664000D02*
X48559000Y-62664000D01*
X48559000Y-62664000D02*
X48604500Y-62618500D01*
X49270000Y-49113500D02*
X50763500Y-49113500D01*
X46441500Y-62618500D02*
X46396000Y-62664000D01*
X49270000Y-49113500D02*
X47847500Y-49113500D01*
X47847500Y-49113500D02*
X47337000Y-49624000D01*
D35*
X47337000Y-44732000D02*
X47337000Y-49624000D01*
D34*
X48096500Y-50383500D02*
X49270000Y-50383500D01*
X47337000Y-49624000D02*
X48096500Y-50383500D01*
X47337000Y-42295000D02*
X47337000Y-44732000D01*
X53705000Y-59611500D02*
X53684500Y-59591000D01*
X53705000Y-59611500D02*
X55272000Y-59611500D01*
X54276000Y-61813500D02*
X54276000Y-60607500D01*
X54276000Y-60607500D02*
X55272000Y-59611500D01*
X50827000Y-61559500D02*
X51716000Y-60670500D01*
X50827000Y-61559500D02*
X50827000Y-62364500D01*
X50827000Y-62364500D02*
X52013000Y-62364500D01*
X52478000Y-62829500D02*
X52478000Y-64373500D01*
X52013000Y-62364500D02*
X52478000Y-62829500D01*
X52478000Y-64373500D02*
X52859000Y-64754500D01*
D35*
X64162000Y-74450000D02*
X63781000Y-74450000D01*
X63781000Y-74450000D02*
X62003000Y-72672000D01*
X62003000Y-72672000D02*
X62003000Y-53622000D01*
X64162000Y-50320000D02*
X62638000Y-50320000D01*
X62003000Y-50955000D02*
X62003000Y-53622000D01*
X62003000Y-53622000D02*
X62003000Y-55654000D01*
X62638000Y-50320000D02*
X62003000Y-50955000D01*
X56605500Y-49621500D02*
X56605500Y-54320500D01*
X57939000Y-55654000D02*
X62003000Y-55654000D01*
X56605500Y-54320500D02*
X57939000Y-55654000D01*
D34*
X54670000Y-50383500D02*
X55843500Y-50383500D01*
X56097500Y-49113500D02*
X56605500Y-49621500D01*
X56097500Y-49113500D02*
X54670000Y-49113500D01*
X55843500Y-50383500D02*
X56605500Y-49621500D01*
D36*
X43334000Y-47653000D02*
X43273000Y-47653000D01*
D34*
X43273000Y-49320000D02*
X43273000Y-47653000D01*
X43273000Y-47653000D02*
X43273000Y-45771000D01*
X43273000Y-45771000D02*
X43270500Y-45768500D01*
D36*
X45112000Y-47653000D02*
X45175500Y-47653000D01*
D34*
X45175500Y-45768500D02*
X45175500Y-47653000D01*
X45175500Y-47653000D02*
X45175500Y-49317500D01*
X45175500Y-49317500D02*
X45173000Y-49320000D01*
X50827000Y-67000000D02*
X50827000Y-64564500D01*
X50827000Y-67000000D02*
X48808500Y-67000000D01*
X48808500Y-67000000D02*
X48604500Y-66796000D01*
X48604500Y-66796000D02*
X48604500Y-64818500D01*
X78212000Y-73561000D02*
X80799000Y-73561000D01*
X82450000Y-75212000D02*
X82450000Y-77434500D01*
X80799000Y-73561000D02*
X82450000Y-75212000D01*
D36*
X76862000Y-69116000D02*
X76862000Y-69052500D01*
X76862000Y-69052500D02*
X77988500Y-67926000D01*
X77988500Y-67926000D02*
X77988500Y-67081500D01*
D34*
X77937500Y-67132500D02*
X77988500Y-67081500D01*
D36*
X76862000Y-72211000D02*
X78212000Y-73561000D01*
X76862000Y-69116000D02*
X76862000Y-72211000D01*
D34*
X78212000Y-70259000D02*
X79084500Y-70259000D01*
X83720000Y-79022000D02*
X83910500Y-79212500D01*
X83720000Y-79022000D02*
X83720000Y-74894500D01*
X79084500Y-70259000D02*
X83720000Y-74894500D01*
X80688500Y-68655000D02*
X80688500Y-67081500D01*
X79084500Y-70259000D02*
X80688500Y-68655000D01*
D36*
X78212000Y-70259000D02*
X78212000Y-69671000D01*
D34*
X78212000Y-70259000D02*
X78212000Y-70720000D01*
X80688500Y-65181500D02*
X80688500Y-62368500D01*
X81561000Y-57622500D02*
X83212000Y-55971500D01*
X81561000Y-61496000D02*
X81561000Y-57622500D01*
X80688500Y-62368500D02*
X81561000Y-61496000D01*
X80688500Y-65181500D02*
X80688500Y-65099000D01*
X42699000Y-53368000D02*
X42826000Y-53368000D01*
X42826000Y-53368000D02*
X43905500Y-54447500D01*
X43905500Y-54447500D02*
X50446000Y-54447500D01*
X83212000Y-53749000D02*
X83212000Y-55971500D01*
X77988500Y-65181500D02*
X77988500Y-63671500D01*
X80608500Y-56924000D02*
X81878500Y-55654000D01*
X80608500Y-61051500D02*
X80608500Y-56924000D01*
X77988500Y-63671500D02*
X80608500Y-61051500D01*
X49620500Y-55654000D02*
X40667000Y-55654000D01*
X40095500Y-42255500D02*
X41111500Y-42255500D01*
X45175500Y-42255500D02*
X45175500Y-43568500D01*
X44667500Y-41747500D02*
X45175500Y-42255500D01*
X41619500Y-41747500D02*
X44667500Y-41747500D01*
X41111500Y-42255500D02*
X41619500Y-41747500D01*
X40095500Y-44795500D02*
X40603500Y-44795500D01*
X40603500Y-44795500D02*
X41830500Y-43568500D01*
X41830500Y-43568500D02*
X43270500Y-43568500D01*
D35*
X49383000Y-34445000D02*
X49383000Y-38199000D01*
X49383000Y-38199000D02*
X48287000Y-39295000D01*
D34*
X47334500Y-57559000D02*
X47525000Y-57559000D01*
X47525000Y-57559000D02*
X48414000Y-58448000D01*
X48414000Y-58448000D02*
X50192000Y-58448000D01*
X43715000Y-58130500D02*
X44286500Y-57559000D01*
X44286500Y-57559000D02*
X47334500Y-57559000D01*
X59590000Y-58892500D02*
X59590000Y-59210000D01*
X59590000Y-76990000D02*
X47398000Y-76990000D01*
X47398000Y-76990000D02*
X43651500Y-73243500D01*
X57050000Y-57411500D02*
X55272000Y-57411500D01*
X55272000Y-57411500D02*
X54670000Y-56809500D01*
X54670000Y-56809500D02*
X54670000Y-51653500D01*
X50827000Y-69200000D02*
X53451000Y-69200000D01*
X52859000Y-68608000D02*
X52859000Y-67254500D01*
X53451000Y-69200000D02*
X52859000Y-68608000D01*
X48795000Y-69086500D02*
X50713500Y-69086500D01*
X50713500Y-69086500D02*
X50827000Y-69200000D01*
D35*
X41796000Y-62664000D02*
X41796000Y-61037500D01*
X39206500Y-53431500D02*
X39968500Y-52669500D01*
X39206500Y-58448000D02*
X39206500Y-53431500D01*
X41796000Y-61037500D02*
X39206500Y-58448000D01*
D34*
X80688500Y-66131500D02*
X82196000Y-66131500D01*
X84545500Y-59972000D02*
X88165000Y-59972000D01*
X82831000Y-61686500D02*
X84545500Y-59972000D01*
X82831000Y-65496500D02*
X82831000Y-61686500D01*
X82196000Y-66131500D02*
X82831000Y-65496500D01*
D35*
X88165000Y-64290000D02*
X88165000Y-59972000D01*
X88165000Y-59972000D02*
X88165000Y-55908000D01*
X90641500Y-40160000D02*
X88165000Y-40160000D01*
X90705000Y-40096500D02*
X90641500Y-40160000D01*
X90705000Y-53368000D02*
X90705000Y-40096500D01*
X88165000Y-55908000D02*
X90705000Y-53368000D01*
D34*
X49237000Y-42295000D02*
X51501500Y-42295000D01*
X51271500Y-44732000D02*
X49237000Y-44732000D01*
X51716000Y-44287500D02*
X51271500Y-44732000D01*
X51716000Y-42509500D02*
X51716000Y-44287500D01*
X51501500Y-42295000D02*
X51716000Y-42509500D01*
D36*
X46001000Y-53050500D02*
X44270500Y-51320000D01*
X44270500Y-51320000D02*
X44223000Y-51320000D01*
D34*
X57050000Y-59611500D02*
X57050000Y-61539500D01*
X57050000Y-61539500D02*
X56776000Y-61813500D01*
X46699500Y-58638500D02*
X46699500Y-60246000D01*
X46699500Y-60246000D02*
X46806500Y-60353000D01*
D35*
X41796000Y-62664000D02*
X40229500Y-62664000D01*
X40229500Y-62664000D02*
X39079500Y-63814000D01*
D34*
X76100000Y-56479500D02*
X76100000Y-54511000D01*
X73369500Y-37620000D02*
X72290000Y-37620000D01*
X74639500Y-38890000D02*
X73369500Y-37620000D01*
X74639500Y-46256000D02*
X74639500Y-38890000D01*
X76100000Y-47716500D02*
X74639500Y-46256000D01*
X76100000Y-54511000D02*
X76100000Y-47716500D01*
X75274500Y-61750000D02*
X72290000Y-61750000D01*
X76100000Y-60924500D02*
X75274500Y-61750000D01*
X76100000Y-58956000D02*
X76100000Y-60924500D01*
X76100000Y-58321000D02*
X76100000Y-58956000D01*
X76100000Y-56479500D02*
X76100000Y-58321000D01*
D37*
G36*
X91290000Y-83290000D02*
X38710000Y-83290000D01*
X38710000Y-78942619D01*
X39764613Y-78942619D01*
X40104155Y-79764372D01*
X40732321Y-80393636D01*
X41553481Y-80734611D01*
X42442619Y-80735387D01*
X43264372Y-80395845D01*
X43893636Y-79767679D01*
X44234611Y-78946519D01*
X44234725Y-78815119D01*
X75827613Y-78815119D01*
X76167155Y-79636872D01*
X76795321Y-80266136D01*
X77616481Y-80607111D01*
X78505619Y-80607887D01*
X79327372Y-80268345D01*
X79956636Y-79640179D01*
X80297611Y-78819019D01*
X80298387Y-77929881D01*
X79958845Y-77108128D01*
X79330679Y-76478864D01*
X78509519Y-76137889D01*
X77620381Y-76137113D01*
X76798628Y-76476655D01*
X76169364Y-77104821D01*
X75828389Y-77925981D01*
X75827613Y-78815119D01*
X44234725Y-78815119D01*
X44235387Y-78057381D01*
X43895845Y-77235628D01*
X43267679Y-76606364D01*
X42446519Y-76265389D01*
X41557381Y-76264613D01*
X40735628Y-76604155D01*
X40106364Y-77232321D01*
X39765389Y-78053481D01*
X39764613Y-78942619D01*
X38710000Y-78942619D01*
X38710000Y-70061440D01*
X39591500Y-70061440D01*
X39591500Y-70222926D01*
X39430129Y-70384015D01*
X39241715Y-70837766D01*
X39241286Y-71329079D01*
X39428908Y-71783157D01*
X39776015Y-72130871D01*
X40229766Y-72319285D01*
X40721079Y-72319714D01*
X41175157Y-72132092D01*
X41522871Y-71784985D01*
X41711285Y-71331234D01*
X41711714Y-70839921D01*
X41524092Y-70385843D01*
X41361500Y-70222967D01*
X41361500Y-70099000D01*
X41573962Y-70099000D01*
X41592838Y-70199317D01*
X41731910Y-70415441D01*
X41944110Y-70560431D01*
X42196000Y-70611440D01*
X44022360Y-70611440D01*
X45438708Y-72027787D01*
X45438710Y-72027790D01*
X45725825Y-72219633D01*
X46064500Y-72287000D01*
X56315426Y-72287000D01*
X56476515Y-72448371D01*
X56930266Y-72636785D01*
X57421579Y-72637214D01*
X57875657Y-72449592D01*
X58132282Y-72193415D01*
X58188946Y-72478285D01*
X58510853Y-72960054D01*
X58840026Y-73180000D01*
X58510853Y-73399946D01*
X58188946Y-73881715D01*
X58075907Y-74450000D01*
X58188946Y-75018285D01*
X58510853Y-75500054D01*
X58840026Y-75720000D01*
X58510853Y-75939946D01*
X58400568Y-76105000D01*
X47764579Y-76105000D01*
X44886515Y-73226935D01*
X44886714Y-72998921D01*
X44699092Y-72544843D01*
X44351985Y-72197129D01*
X43898234Y-72008715D01*
X43406921Y-72008286D01*
X42952843Y-72195908D01*
X42605129Y-72543015D01*
X42416715Y-72996766D01*
X42416286Y-73488079D01*
X42603908Y-73942157D01*
X42951015Y-74289871D01*
X43404766Y-74478285D01*
X43634906Y-74478486D01*
X46772208Y-77615787D01*
X46772210Y-77615790D01*
X47007755Y-77773175D01*
X47059325Y-77807633D01*
X47398000Y-77875001D01*
X47398005Y-77875000D01*
X58400568Y-77875000D01*
X58510853Y-78040054D01*
X58992622Y-78361961D01*
X59560907Y-78475000D01*
X59619093Y-78475000D01*
X60187378Y-78361961D01*
X60669147Y-78040054D01*
X60991054Y-77558285D01*
X61104093Y-76990000D01*
X70775907Y-76990000D01*
X70888946Y-77558285D01*
X71210853Y-78040054D01*
X71692622Y-78361961D01*
X72260907Y-78475000D01*
X72319093Y-78475000D01*
X72887378Y-78361961D01*
X73369147Y-78040054D01*
X73691054Y-77558285D01*
X73804093Y-76990000D01*
X73691054Y-76421715D01*
X73369147Y-75939946D01*
X73028447Y-75712298D01*
X73171358Y-75645183D01*
X73561645Y-75216924D01*
X73731476Y-74806890D01*
X73610155Y-74577000D01*
X72417000Y-74577000D01*
X72417000Y-74597000D01*
X72163000Y-74597000D01*
X72163000Y-74577000D01*
X70969845Y-74577000D01*
X70848524Y-74806890D01*
X71018355Y-75216924D01*
X71408642Y-75645183D01*
X71551553Y-75712298D01*
X71210853Y-75939946D01*
X70888946Y-76421715D01*
X70775907Y-76990000D01*
X61104093Y-76990000D01*
X60991054Y-76421715D01*
X60669147Y-75939946D01*
X60339974Y-75720000D01*
X60669147Y-75500054D01*
X60991054Y-75018285D01*
X61104093Y-74450000D01*
X60991054Y-73881715D01*
X60669147Y-73399946D01*
X60339974Y-73180000D01*
X60669147Y-72960054D01*
X60868000Y-72662449D01*
X60868000Y-72672000D01*
X60954397Y-73106346D01*
X61200434Y-73474566D01*
X62714560Y-74988692D01*
X62714560Y-75250000D01*
X62758838Y-75485317D01*
X62897910Y-75701441D01*
X63110110Y-75846431D01*
X63362000Y-75897440D01*
X64962000Y-75897440D01*
X65197317Y-75853162D01*
X65413441Y-75714090D01*
X65558431Y-75501890D01*
X65567370Y-75457745D01*
X66833861Y-75457745D01*
X66907995Y-75703864D01*
X67445223Y-75896965D01*
X68015454Y-75869778D01*
X68416005Y-75703864D01*
X68490139Y-75457745D01*
X67662000Y-74629605D01*
X66833861Y-75457745D01*
X65567370Y-75457745D01*
X65609440Y-75250000D01*
X65609440Y-74233223D01*
X66215035Y-74233223D01*
X66242222Y-74803454D01*
X66408136Y-75204005D01*
X66654255Y-75278139D01*
X67482395Y-74450000D01*
X67841605Y-74450000D01*
X68669745Y-75278139D01*
X68915864Y-75204005D01*
X69108965Y-74666777D01*
X69081778Y-74096546D01*
X68915864Y-73695995D01*
X68669745Y-73621861D01*
X67841605Y-74450000D01*
X67482395Y-74450000D01*
X66654255Y-73621861D01*
X66408136Y-73695995D01*
X66215035Y-74233223D01*
X65609440Y-74233223D01*
X65609440Y-73650000D01*
X65570351Y-73442255D01*
X66833861Y-73442255D01*
X67662000Y-74270395D01*
X68490139Y-73442255D01*
X68416005Y-73196136D01*
X67878777Y-73003035D01*
X67308546Y-73030222D01*
X66907995Y-73196136D01*
X66833861Y-73442255D01*
X65570351Y-73442255D01*
X65565162Y-73414683D01*
X65426090Y-73198559D01*
X65213890Y-73053569D01*
X64962000Y-73002560D01*
X63938692Y-73002560D01*
X63138000Y-72201868D01*
X63138000Y-58233690D01*
X70805000Y-58233690D01*
X70805000Y-58924250D01*
X70963750Y-59083000D01*
X72163000Y-59083000D01*
X72163000Y-57883750D01*
X72417000Y-57883750D01*
X72417000Y-59083000D01*
X73616250Y-59083000D01*
X73775000Y-58924250D01*
X73775000Y-58233690D01*
X73678327Y-58000301D01*
X73499698Y-57821673D01*
X73266309Y-57725000D01*
X72575750Y-57725000D01*
X72417000Y-57883750D01*
X72163000Y-57883750D01*
X72004250Y-57725000D01*
X71313691Y-57725000D01*
X71080302Y-57821673D01*
X70901673Y-58000301D01*
X70805000Y-58233690D01*
X63138000Y-58233690D01*
X63138000Y-52860000D01*
X70775907Y-52860000D01*
X70888946Y-53428285D01*
X71210853Y-53910054D01*
X71692622Y-54231961D01*
X72260907Y-54345000D01*
X72319093Y-54345000D01*
X72887378Y-54231961D01*
X73369147Y-53910054D01*
X73691054Y-53428285D01*
X73804093Y-52860000D01*
X73691054Y-52291715D01*
X73369147Y-51809946D01*
X73028447Y-51582298D01*
X73171358Y-51515183D01*
X73561645Y-51086924D01*
X73731476Y-50676890D01*
X73610155Y-50447000D01*
X72417000Y-50447000D01*
X72417000Y-50467000D01*
X72163000Y-50467000D01*
X72163000Y-50447000D01*
X70969845Y-50447000D01*
X70848524Y-50676890D01*
X71018355Y-51086924D01*
X71408642Y-51515183D01*
X71551553Y-51582298D01*
X71210853Y-51809946D01*
X70888946Y-52291715D01*
X70775907Y-52860000D01*
X63138000Y-52860000D01*
X63138000Y-51722079D01*
X63362000Y-51767440D01*
X64962000Y-51767440D01*
X65197317Y-51723162D01*
X65413441Y-51584090D01*
X65558431Y-51371890D01*
X65567370Y-51327745D01*
X66833861Y-51327745D01*
X66907995Y-51573864D01*
X67445223Y-51766965D01*
X68015454Y-51739778D01*
X68416005Y-51573864D01*
X68490139Y-51327745D01*
X67662000Y-50499605D01*
X66833861Y-51327745D01*
X65567370Y-51327745D01*
X65609440Y-51120000D01*
X65609440Y-50103223D01*
X66215035Y-50103223D01*
X66242222Y-50673454D01*
X66408136Y-51074005D01*
X66654255Y-51148139D01*
X67482395Y-50320000D01*
X67841605Y-50320000D01*
X68669745Y-51148139D01*
X68915864Y-51074005D01*
X69108965Y-50536777D01*
X69081778Y-49966546D01*
X68915864Y-49565995D01*
X68669745Y-49491861D01*
X67841605Y-50320000D01*
X67482395Y-50320000D01*
X66654255Y-49491861D01*
X66408136Y-49565995D01*
X66215035Y-50103223D01*
X65609440Y-50103223D01*
X65609440Y-49520000D01*
X65570351Y-49312255D01*
X66833861Y-49312255D01*
X67662000Y-50140395D01*
X68490139Y-49312255D01*
X68416005Y-49066136D01*
X67878777Y-48873035D01*
X67308546Y-48900222D01*
X66907995Y-49066136D01*
X66833861Y-49312255D01*
X65570351Y-49312255D01*
X65565162Y-49284683D01*
X65426090Y-49068559D01*
X65213890Y-48923569D01*
X64962000Y-48872560D01*
X63362000Y-48872560D01*
X63126683Y-48916838D01*
X62910559Y-49055910D01*
X62822356Y-49185000D01*
X62638000Y-49185000D01*
X62203655Y-49271396D01*
X61835434Y-49517434D01*
X61200434Y-50152434D01*
X61100509Y-50301982D01*
X60991054Y-49751715D01*
X60669147Y-49269946D01*
X60339974Y-49050000D01*
X60669147Y-48830054D01*
X60991054Y-48348285D01*
X61104093Y-47780000D01*
X60991054Y-47211715D01*
X60669147Y-46729946D01*
X60339974Y-46510000D01*
X60669147Y-46290054D01*
X60991054Y-45808285D01*
X61104093Y-45240000D01*
X60991054Y-44671715D01*
X60669147Y-44189946D01*
X60339974Y-43970000D01*
X60669147Y-43750054D01*
X60991054Y-43268285D01*
X61104093Y-42700000D01*
X60991054Y-42131715D01*
X60669147Y-41649946D01*
X60339974Y-41430000D01*
X60669147Y-41210054D01*
X60991054Y-40728285D01*
X61104093Y-40160000D01*
X60991054Y-39591715D01*
X60669147Y-39109946D01*
X60339974Y-38890000D01*
X60669147Y-38670054D01*
X60991054Y-38188285D01*
X61104093Y-37620000D01*
X70775907Y-37620000D01*
X70888946Y-38188285D01*
X71210853Y-38670054D01*
X71540026Y-38890000D01*
X71210853Y-39109946D01*
X70888946Y-39591715D01*
X70775907Y-40160000D01*
X70888946Y-40728285D01*
X71210853Y-41210054D01*
X71540026Y-41430000D01*
X71210853Y-41649946D01*
X70888946Y-42131715D01*
X70775907Y-42700000D01*
X70888946Y-43268285D01*
X71210853Y-43750054D01*
X71540026Y-43970000D01*
X71210853Y-44189946D01*
X70888946Y-44671715D01*
X70775907Y-45240000D01*
X70888946Y-45808285D01*
X71210853Y-46290054D01*
X71540026Y-46510000D01*
X71210853Y-46729946D01*
X70888946Y-47211715D01*
X70775907Y-47780000D01*
X70888946Y-48348285D01*
X71210853Y-48830054D01*
X71551553Y-49057702D01*
X71408642Y-49124817D01*
X71018355Y-49553076D01*
X70848524Y-49963110D01*
X70969845Y-50193000D01*
X72163000Y-50193000D01*
X72163000Y-50173000D01*
X72417000Y-50173000D01*
X72417000Y-50193000D01*
X73610155Y-50193000D01*
X73731476Y-49963110D01*
X73561645Y-49553076D01*
X73171358Y-49124817D01*
X73028447Y-49057702D01*
X73369147Y-48830054D01*
X73691054Y-48348285D01*
X73804093Y-47780000D01*
X73691054Y-47211715D01*
X73369147Y-46729946D01*
X73039974Y-46510000D01*
X73369147Y-46290054D01*
X73691054Y-45808285D01*
X73754500Y-45489321D01*
X73754500Y-46255995D01*
X73754499Y-46256000D01*
X73810690Y-46538484D01*
X73821867Y-46594675D01*
X73980836Y-46832590D01*
X74013710Y-46881790D01*
X75215000Y-48083079D01*
X75215000Y-55617926D01*
X75053629Y-55779015D01*
X74865215Y-56232766D01*
X74864786Y-56724079D01*
X75052408Y-57178157D01*
X75215000Y-57341033D01*
X75215000Y-60557921D01*
X74907920Y-60865000D01*
X73479432Y-60865000D01*
X73369147Y-60699946D01*
X73325223Y-60670597D01*
X73499698Y-60598327D01*
X73678327Y-60419699D01*
X73775000Y-60186310D01*
X73775000Y-59495750D01*
X73616250Y-59337000D01*
X72417000Y-59337000D01*
X72417000Y-59357000D01*
X72163000Y-59357000D01*
X72163000Y-59337000D01*
X70963750Y-59337000D01*
X70805000Y-59495750D01*
X70805000Y-60186310D01*
X70901673Y-60419699D01*
X71080302Y-60598327D01*
X71254777Y-60670597D01*
X71210853Y-60699946D01*
X70888946Y-61181715D01*
X70775907Y-61750000D01*
X70888946Y-62318285D01*
X71210853Y-62800054D01*
X71540026Y-63020000D01*
X71210853Y-63239946D01*
X70888946Y-63721715D01*
X70775907Y-64290000D01*
X70888946Y-64858285D01*
X71210853Y-65340054D01*
X71540026Y-65560000D01*
X71210853Y-65779946D01*
X70888946Y-66261715D01*
X70775907Y-66830000D01*
X70888946Y-67398285D01*
X71210853Y-67880054D01*
X71540026Y-68100000D01*
X71210853Y-68319946D01*
X70888946Y-68801715D01*
X70775907Y-69370000D01*
X70888946Y-69938285D01*
X71210853Y-70420054D01*
X71540026Y-70640000D01*
X71210853Y-70859946D01*
X70888946Y-71341715D01*
X70775907Y-71910000D01*
X70888946Y-72478285D01*
X71210853Y-72960054D01*
X71551553Y-73187702D01*
X71408642Y-73254817D01*
X71018355Y-73683076D01*
X70848524Y-74093110D01*
X70969845Y-74323000D01*
X72163000Y-74323000D01*
X72163000Y-74303000D01*
X72417000Y-74303000D01*
X72417000Y-74323000D01*
X73610155Y-74323000D01*
X73731476Y-74093110D01*
X73561645Y-73683076D01*
X73171358Y-73254817D01*
X73028447Y-73187702D01*
X73369147Y-72960054D01*
X73691054Y-72478285D01*
X73804093Y-71910000D01*
X73691054Y-71341715D01*
X73369147Y-70859946D01*
X73039974Y-70640000D01*
X73369147Y-70420054D01*
X73691054Y-69938285D01*
X73804093Y-69370000D01*
X73775518Y-69226343D01*
X73948847Y-69485750D01*
X73950210Y-69487790D01*
X74114560Y-69652140D01*
X74114560Y-70909000D01*
X74158838Y-71144317D01*
X74297910Y-71360441D01*
X74510110Y-71505431D01*
X74627000Y-71529102D01*
X74627000Y-72288962D01*
X74526683Y-72307838D01*
X74310559Y-72446910D01*
X74165569Y-72659110D01*
X74114560Y-72911000D01*
X74114560Y-74211000D01*
X74158838Y-74446317D01*
X74297910Y-74662441D01*
X74510110Y-74807431D01*
X74762000Y-74858440D01*
X76262000Y-74858440D01*
X76497317Y-74814162D01*
X76713441Y-74675090D01*
X76858431Y-74462890D01*
X76861081Y-74449803D01*
X76997910Y-74662441D01*
X77210110Y-74807431D01*
X77462000Y-74858440D01*
X78962000Y-74858440D01*
X79197317Y-74814162D01*
X79413441Y-74675090D01*
X79558431Y-74462890D01*
X79561851Y-74446000D01*
X80432420Y-74446000D01*
X81565000Y-75578579D01*
X81565000Y-76572926D01*
X81403629Y-76734015D01*
X81215215Y-77187766D01*
X81214786Y-77679079D01*
X81402408Y-78133157D01*
X81749515Y-78480871D01*
X82203266Y-78669285D01*
X82694579Y-78669714D01*
X82820200Y-78617808D01*
X82675715Y-78965766D01*
X82675286Y-79457079D01*
X82862908Y-79911157D01*
X83210015Y-80258871D01*
X83663766Y-80447285D01*
X84155079Y-80447714D01*
X84609157Y-80260092D01*
X84956871Y-79912985D01*
X85145285Y-79459234D01*
X85145714Y-78967921D01*
X84958092Y-78513843D01*
X84610985Y-78166129D01*
X84605000Y-78163644D01*
X84605000Y-76609000D01*
X90260500Y-76609000D01*
X90306659Y-76600315D01*
X90349053Y-76573035D01*
X90377494Y-76531410D01*
X90387500Y-76482000D01*
X90387500Y-66131500D01*
X90378166Y-66083711D01*
X90350303Y-66041697D01*
X89641608Y-65333002D01*
X89663600Y-65279909D01*
X89663600Y-64575750D01*
X89504850Y-64417000D01*
X88725606Y-64417000D01*
X88471606Y-64163000D01*
X89504850Y-64163000D01*
X89663600Y-64004250D01*
X89663600Y-63300091D01*
X89566927Y-63066702D01*
X89388299Y-62888073D01*
X89154910Y-62791400D01*
X88450750Y-62791400D01*
X88292000Y-62950150D01*
X88292000Y-63983394D01*
X88038000Y-63729394D01*
X88038000Y-62950150D01*
X87879250Y-62791400D01*
X87175090Y-62791400D01*
X87121998Y-62813392D01*
X86476803Y-62168197D01*
X86436410Y-62141006D01*
X86387000Y-62131000D01*
X83529500Y-62131000D01*
X83483341Y-62139685D01*
X83440947Y-62166965D01*
X83412506Y-62208590D01*
X83402500Y-62258000D01*
X83402500Y-73325421D01*
X80336080Y-70259000D01*
X81314287Y-69280792D01*
X81314290Y-69280790D01*
X81506133Y-68993675D01*
X81506134Y-68993674D01*
X81573501Y-68655000D01*
X81573500Y-68654995D01*
X81573500Y-68034183D01*
X81703817Y-68009662D01*
X81919941Y-67870590D01*
X82064931Y-67658390D01*
X82115940Y-67406500D01*
X82115940Y-66756500D01*
X82089581Y-66616414D01*
X82103500Y-66582810D01*
X82103500Y-66417250D01*
X81944750Y-66258500D01*
X81864449Y-66258500D01*
X81720390Y-66160069D01*
X81583380Y-66132324D01*
X81703817Y-66109662D01*
X81867243Y-66004500D01*
X81944750Y-66004500D01*
X82103500Y-65845750D01*
X82103500Y-65680190D01*
X82088232Y-65643329D01*
X82115940Y-65506500D01*
X82115940Y-64856500D01*
X82071662Y-64621183D01*
X81932590Y-64405059D01*
X81720390Y-64260069D01*
X81573500Y-64230323D01*
X81573500Y-62735080D01*
X82186787Y-62121792D01*
X82186790Y-62121790D01*
X82378633Y-61834675D01*
X82446000Y-61496000D01*
X82446000Y-57989080D01*
X83837787Y-56597292D01*
X83837790Y-56597290D01*
X84029633Y-56310175D01*
X84029634Y-56310174D01*
X84097001Y-55971500D01*
X84097000Y-55971495D01*
X84097000Y-54610574D01*
X84258371Y-54449485D01*
X84446785Y-53995734D01*
X84447214Y-53504421D01*
X84259592Y-53050343D01*
X83912485Y-52702629D01*
X83458734Y-52514215D01*
X82967421Y-52513786D01*
X82513343Y-52701408D01*
X82165629Y-53048515D01*
X81977215Y-53502266D01*
X81976786Y-53993579D01*
X82158335Y-54432960D01*
X82125234Y-54419215D01*
X81633921Y-54418786D01*
X81179843Y-54606408D01*
X80832129Y-54953515D01*
X80643715Y-55407266D01*
X80643514Y-55637406D01*
X79982710Y-56298210D01*
X79790867Y-56585325D01*
X79790867Y-56585326D01*
X79723499Y-56924000D01*
X79723500Y-56924005D01*
X79723500Y-60684921D01*
X77362710Y-63045710D01*
X77170867Y-63332825D01*
X77159690Y-63389016D01*
X77103499Y-63671500D01*
X77103500Y-63671505D01*
X77103500Y-64228817D01*
X76973183Y-64253338D01*
X76757059Y-64392410D01*
X76612069Y-64604610D01*
X76561060Y-64856500D01*
X76561060Y-65506500D01*
X76605338Y-65741817D01*
X76744410Y-65957941D01*
X76956610Y-66102931D01*
X77093620Y-66130676D01*
X76973183Y-66153338D01*
X76757059Y-66292410D01*
X76612069Y-66504610D01*
X76561060Y-66756500D01*
X76561060Y-67406500D01*
X76605338Y-67641817D01*
X76744410Y-67857941D01*
X76885413Y-67954285D01*
X76324599Y-68515099D01*
X76159852Y-68761661D01*
X76120089Y-68961560D01*
X75927139Y-68961560D01*
X75461000Y-68495420D01*
X75461000Y-64148580D01*
X77995787Y-61613792D01*
X77995790Y-61613790D01*
X78187633Y-61326675D01*
X78200264Y-61263175D01*
X78255001Y-60988000D01*
X78255000Y-60987995D01*
X78255000Y-58611074D01*
X78416371Y-58449985D01*
X78604785Y-57996234D01*
X78605214Y-57504921D01*
X78417592Y-57050843D01*
X78070485Y-56703129D01*
X77616734Y-56514715D01*
X77334970Y-56514469D01*
X77335214Y-56234921D01*
X77147592Y-55780843D01*
X76985000Y-55617967D01*
X76985000Y-47716505D01*
X76985001Y-47716500D01*
X76917633Y-47377826D01*
X76917633Y-47377825D01*
X76725790Y-47090710D01*
X76725787Y-47090708D01*
X75524500Y-45889420D01*
X75524500Y-38890005D01*
X75524501Y-38890000D01*
X75457133Y-38551325D01*
X75426180Y-38505000D01*
X75265290Y-38264210D01*
X75265287Y-38264208D01*
X75065580Y-38064500D01*
X83720000Y-38064500D01*
X83720000Y-51653500D01*
X83728685Y-51699659D01*
X83755965Y-51742053D01*
X83797590Y-51770494D01*
X83847000Y-51780500D01*
X85285861Y-51780500D01*
X85625000Y-51847959D01*
X85964139Y-51780500D01*
X87825861Y-51780500D01*
X88165000Y-51847959D01*
X88504139Y-51780500D01*
X90197000Y-51780500D01*
X90243159Y-51771815D01*
X90285553Y-51744535D01*
X90313994Y-51702910D01*
X90324000Y-51653500D01*
X90324000Y-41938000D01*
X90314666Y-41890211D01*
X90286803Y-41848197D01*
X89641608Y-41203002D01*
X89663600Y-41149909D01*
X89663600Y-40445750D01*
X89504850Y-40287000D01*
X88725606Y-40287000D01*
X88471606Y-40033000D01*
X89504850Y-40033000D01*
X89663600Y-39874250D01*
X89663600Y-39170091D01*
X89566927Y-38936702D01*
X89388299Y-38758073D01*
X89154910Y-38661400D01*
X88450750Y-38661400D01*
X88292000Y-38820150D01*
X88292000Y-39853394D01*
X88038000Y-39599394D01*
X88038000Y-38820150D01*
X87879250Y-38661400D01*
X87175090Y-38661400D01*
X87121998Y-38683392D01*
X86413303Y-37974697D01*
X86372910Y-37947506D01*
X86323500Y-37937500D01*
X83847000Y-37937500D01*
X83800841Y-37946185D01*
X83758447Y-37973465D01*
X83730006Y-38015090D01*
X83720000Y-38064500D01*
X75065580Y-38064500D01*
X73995290Y-36994210D01*
X73708175Y-36802367D01*
X73651984Y-36791190D01*
X73496283Y-36760218D01*
X73369147Y-36569946D01*
X73325223Y-36540597D01*
X73499698Y-36468327D01*
X73678327Y-36289699D01*
X73775000Y-36056310D01*
X73775000Y-35365750D01*
X73616250Y-35207000D01*
X72417000Y-35207000D01*
X72417000Y-35227000D01*
X72163000Y-35227000D01*
X72163000Y-35207000D01*
X70963750Y-35207000D01*
X70805000Y-35365750D01*
X70805000Y-36056310D01*
X70901673Y-36289699D01*
X71080302Y-36468327D01*
X71254777Y-36540597D01*
X71210853Y-36569946D01*
X70888946Y-37051715D01*
X70775907Y-37620000D01*
X61104093Y-37620000D01*
X60991054Y-37051715D01*
X60669147Y-36569946D01*
X60627548Y-36542150D01*
X60675317Y-36533162D01*
X60891441Y-36394090D01*
X61036431Y-36181890D01*
X61087440Y-35930000D01*
X61087440Y-34230000D01*
X61063674Y-34103690D01*
X70805000Y-34103690D01*
X70805000Y-34794250D01*
X70963750Y-34953000D01*
X72163000Y-34953000D01*
X72163000Y-33753750D01*
X72417000Y-33753750D01*
X72417000Y-34953000D01*
X73616250Y-34953000D01*
X73775000Y-34794250D01*
X73775000Y-34315119D01*
X75827613Y-34315119D01*
X76167155Y-35136872D01*
X76795321Y-35766136D01*
X77616481Y-36107111D01*
X78505619Y-36107887D01*
X79327372Y-35768345D01*
X79956636Y-35140179D01*
X80297611Y-34319019D01*
X80298387Y-33429881D01*
X79958845Y-32608128D01*
X79330679Y-31978864D01*
X78509519Y-31637889D01*
X77620381Y-31637113D01*
X76798628Y-31976655D01*
X76169364Y-32604821D01*
X75828389Y-33425981D01*
X75827613Y-34315119D01*
X73775000Y-34315119D01*
X73775000Y-34103690D01*
X73678327Y-33870301D01*
X73499698Y-33691673D01*
X73266309Y-33595000D01*
X72575750Y-33595000D01*
X72417000Y-33753750D01*
X72163000Y-33753750D01*
X72004250Y-33595000D01*
X71313691Y-33595000D01*
X71080302Y-33691673D01*
X70901673Y-33870301D01*
X70805000Y-34103690D01*
X61063674Y-34103690D01*
X61043162Y-33994683D01*
X60904090Y-33778559D01*
X60691890Y-33633569D01*
X60440000Y-33582560D01*
X58740000Y-33582560D01*
X58504683Y-33626838D01*
X58288559Y-33765910D01*
X58143569Y-33978110D01*
X58092560Y-34230000D01*
X58092560Y-35930000D01*
X58136838Y-36165317D01*
X58275910Y-36381441D01*
X58488110Y-36526431D01*
X58555541Y-36540086D01*
X58510853Y-36569946D01*
X58188946Y-37051715D01*
X58075907Y-37620000D01*
X58188946Y-38188285D01*
X58510853Y-38670054D01*
X58840026Y-38890000D01*
X58510853Y-39109946D01*
X58188946Y-39591715D01*
X58075907Y-40160000D01*
X58188946Y-40728285D01*
X58510853Y-41210054D01*
X58840026Y-41430000D01*
X58510853Y-41649946D01*
X58400568Y-41815000D01*
X53720574Y-41815000D01*
X53559485Y-41653629D01*
X53105734Y-41465215D01*
X52614421Y-41464786D01*
X52160343Y-41652408D01*
X51812629Y-41999515D01*
X51624215Y-42453266D01*
X51623786Y-42944579D01*
X51811408Y-43398657D01*
X52158515Y-43746371D01*
X52612266Y-43934785D01*
X53103579Y-43935214D01*
X53557657Y-43747592D01*
X53720533Y-43585000D01*
X58400568Y-43585000D01*
X58510853Y-43750054D01*
X58840026Y-43970000D01*
X58510853Y-44189946D01*
X58188946Y-44671715D01*
X58075907Y-45240000D01*
X58188946Y-45808285D01*
X58510853Y-46290054D01*
X58840026Y-46510000D01*
X58510853Y-46729946D01*
X58188946Y-47211715D01*
X58075907Y-47780000D01*
X58188946Y-48348285D01*
X58510853Y-48830054D01*
X58840026Y-49050000D01*
X58510853Y-49269946D01*
X58188946Y-49751715D01*
X58075907Y-50320000D01*
X58188946Y-50888285D01*
X58510853Y-51370054D01*
X58840026Y-51590000D01*
X58510853Y-51809946D01*
X58188946Y-52291715D01*
X58075907Y-52860000D01*
X58188946Y-53428285D01*
X58510853Y-53910054D01*
X58992622Y-54231961D01*
X59560907Y-54345000D01*
X59619093Y-54345000D01*
X60187378Y-54231961D01*
X60669147Y-53910054D01*
X60868000Y-53612449D01*
X60868000Y-54519000D01*
X58409132Y-54519000D01*
X57740500Y-53850368D01*
X57740500Y-49621500D01*
X57654103Y-49187154D01*
X57408066Y-48818934D01*
X57039846Y-48572897D01*
X56751027Y-48515447D01*
X56723290Y-48487710D01*
X56640660Y-48432499D01*
X56436175Y-48295867D01*
X56350324Y-48278790D01*
X56097500Y-48228499D01*
X56097495Y-48228500D01*
X56075227Y-48228500D01*
X56092440Y-48143500D01*
X56092440Y-47543500D01*
X56048162Y-47308183D01*
X55909090Y-47092059D01*
X55696890Y-46947069D01*
X55445000Y-46896060D01*
X53895000Y-46896060D01*
X53659683Y-46940338D01*
X53443559Y-47079410D01*
X53298569Y-47291610D01*
X53247560Y-47543500D01*
X53247560Y-48143500D01*
X53291838Y-48378817D01*
X53355678Y-48478028D01*
X53298569Y-48561610D01*
X53247560Y-48813500D01*
X53247560Y-49413500D01*
X53291838Y-49648817D01*
X53355678Y-49748028D01*
X53298569Y-49831610D01*
X53247560Y-50083500D01*
X53247560Y-50345981D01*
X51389290Y-48487710D01*
X51306660Y-48432499D01*
X51102175Y-48295867D01*
X51016324Y-48278790D01*
X50763500Y-48228499D01*
X50763495Y-48228500D01*
X50680000Y-48228500D01*
X50680000Y-48129250D01*
X50521250Y-47970500D01*
X49397000Y-47970500D01*
X49397000Y-47990500D01*
X49143000Y-47990500D01*
X49143000Y-47970500D01*
X49123000Y-47970500D01*
X49123000Y-47716500D01*
X49143000Y-47716500D01*
X49143000Y-47067250D01*
X49397000Y-47067250D01*
X49397000Y-47716500D01*
X50521250Y-47716500D01*
X50680000Y-47557750D01*
X50680000Y-47417190D01*
X50583327Y-47183801D01*
X50404698Y-47005173D01*
X50171309Y-46908500D01*
X49555750Y-46908500D01*
X49397000Y-47067250D01*
X49143000Y-47067250D01*
X48984250Y-46908500D01*
X48472000Y-46908500D01*
X48472000Y-45725974D01*
X48510691Y-45742000D01*
X48951250Y-45742000D01*
X49110000Y-45583250D01*
X49110000Y-44859000D01*
X49364000Y-44859000D01*
X49364000Y-45583250D01*
X49522750Y-45742000D01*
X49963309Y-45742000D01*
X50196698Y-45645327D01*
X50375327Y-45466699D01*
X50472000Y-45233310D01*
X50472000Y-45017750D01*
X50313250Y-44859000D01*
X49364000Y-44859000D01*
X49110000Y-44859000D01*
X49090000Y-44859000D01*
X49090000Y-44605000D01*
X49110000Y-44605000D01*
X49110000Y-43880750D01*
X49030250Y-43801000D01*
X49110000Y-43721250D01*
X49110000Y-42422000D01*
X49364000Y-42422000D01*
X49364000Y-43721250D01*
X49443750Y-43801000D01*
X49364000Y-43880750D01*
X49364000Y-44605000D01*
X50313250Y-44605000D01*
X50472000Y-44446250D01*
X50472000Y-44230690D01*
X50375327Y-43997301D01*
X50196698Y-43818673D01*
X50030284Y-43749742D01*
X50175327Y-43604698D01*
X50272000Y-43371309D01*
X50272000Y-42580750D01*
X50113250Y-42422000D01*
X49364000Y-42422000D01*
X49110000Y-42422000D01*
X49090000Y-42422000D01*
X49090000Y-42168000D01*
X49110000Y-42168000D01*
X49110000Y-42148000D01*
X49364000Y-42148000D01*
X49364000Y-42168000D01*
X50113250Y-42168000D01*
X50272000Y-42009250D01*
X50272000Y-41218691D01*
X50175327Y-40985302D01*
X50128500Y-40938475D01*
X50128500Y-40276106D01*
X52059803Y-38344803D01*
X52086994Y-38304410D01*
X52097000Y-38255000D01*
X52097000Y-34730750D01*
X52498000Y-34730750D01*
X52498000Y-35821310D01*
X52594673Y-36054699D01*
X52773302Y-36233327D01*
X53006691Y-36330000D01*
X54097250Y-36330000D01*
X54256000Y-36171250D01*
X54256000Y-34572000D01*
X54510000Y-34572000D01*
X54510000Y-36171250D01*
X54668750Y-36330000D01*
X55759309Y-36330000D01*
X55992698Y-36233327D01*
X56171327Y-36054699D01*
X56268000Y-35821310D01*
X56268000Y-34730750D01*
X56109250Y-34572000D01*
X54510000Y-34572000D01*
X54256000Y-34572000D01*
X52656750Y-34572000D01*
X52498000Y-34730750D01*
X52097000Y-34730750D01*
X52097000Y-33068690D01*
X52498000Y-33068690D01*
X52498000Y-34159250D01*
X52656750Y-34318000D01*
X54256000Y-34318000D01*
X54256000Y-32718750D01*
X54510000Y-32718750D01*
X54510000Y-34318000D01*
X56109250Y-34318000D01*
X56268000Y-34159250D01*
X56268000Y-33068690D01*
X56171327Y-32835301D01*
X55992698Y-32656673D01*
X55759309Y-32560000D01*
X54668750Y-32560000D01*
X54510000Y-32718750D01*
X54256000Y-32718750D01*
X54097250Y-32560000D01*
X53006691Y-32560000D01*
X52773302Y-32656673D01*
X52594673Y-32835301D01*
X52498000Y-33068690D01*
X52097000Y-33068690D01*
X52097000Y-30710000D01*
X91290000Y-30710000D01*
X91290000Y-83290000D01*
X91290000Y-83290000D01*
G37*
X91290000Y-83290000D02*
X38710000Y-83290000D01*
X38710000Y-78942619D01*
X39764613Y-78942619D01*
X40104155Y-79764372D01*
X40732321Y-80393636D01*
X41553481Y-80734611D01*
X42442619Y-80735387D01*
X43264372Y-80395845D01*
X43893636Y-79767679D01*
X44234611Y-78946519D01*
X44234725Y-78815119D01*
X75827613Y-78815119D01*
X76167155Y-79636872D01*
X76795321Y-80266136D01*
X77616481Y-80607111D01*
X78505619Y-80607887D01*
X79327372Y-80268345D01*
X79956636Y-79640179D01*
X80297611Y-78819019D01*
X80298387Y-77929881D01*
X79958845Y-77108128D01*
X79330679Y-76478864D01*
X78509519Y-76137889D01*
X77620381Y-76137113D01*
X76798628Y-76476655D01*
X76169364Y-77104821D01*
X75828389Y-77925981D01*
X75827613Y-78815119D01*
X44234725Y-78815119D01*
X44235387Y-78057381D01*
X43895845Y-77235628D01*
X43267679Y-76606364D01*
X42446519Y-76265389D01*
X41557381Y-76264613D01*
X40735628Y-76604155D01*
X40106364Y-77232321D01*
X39765389Y-78053481D01*
X39764613Y-78942619D01*
X38710000Y-78942619D01*
X38710000Y-70061440D01*
X39591500Y-70061440D01*
X39591500Y-70222926D01*
X39430129Y-70384015D01*
X39241715Y-70837766D01*
X39241286Y-71329079D01*
X39428908Y-71783157D01*
X39776015Y-72130871D01*
X40229766Y-72319285D01*
X40721079Y-72319714D01*
X41175157Y-72132092D01*
X41522871Y-71784985D01*
X41711285Y-71331234D01*
X41711714Y-70839921D01*
X41524092Y-70385843D01*
X41361500Y-70222967D01*
X41361500Y-70099000D01*
X41573962Y-70099000D01*
X41592838Y-70199317D01*
X41731910Y-70415441D01*
X41944110Y-70560431D01*
X42196000Y-70611440D01*
X44022360Y-70611440D01*
X45438708Y-72027787D01*
X45438710Y-72027790D01*
X45725825Y-72219633D01*
X46064500Y-72287000D01*
X56315426Y-72287000D01*
X56476515Y-72448371D01*
X56930266Y-72636785D01*
X57421579Y-72637214D01*
X57875657Y-72449592D01*
X58132282Y-72193415D01*
X58188946Y-72478285D01*
X58510853Y-72960054D01*
X58840026Y-73180000D01*
X58510853Y-73399946D01*
X58188946Y-73881715D01*
X58075907Y-74450000D01*
X58188946Y-75018285D01*
X58510853Y-75500054D01*
X58840026Y-75720000D01*
X58510853Y-75939946D01*
X58400568Y-76105000D01*
X47764579Y-76105000D01*
X44886515Y-73226935D01*
X44886714Y-72998921D01*
X44699092Y-72544843D01*
X44351985Y-72197129D01*
X43898234Y-72008715D01*
X43406921Y-72008286D01*
X42952843Y-72195908D01*
X42605129Y-72543015D01*
X42416715Y-72996766D01*
X42416286Y-73488079D01*
X42603908Y-73942157D01*
X42951015Y-74289871D01*
X43404766Y-74478285D01*
X43634906Y-74478486D01*
X46772208Y-77615787D01*
X46772210Y-77615790D01*
X47007755Y-77773175D01*
X47059325Y-77807633D01*
X47398000Y-77875001D01*
X47398005Y-77875000D01*
X58400568Y-77875000D01*
X58510853Y-78040054D01*
X58992622Y-78361961D01*
X59560907Y-78475000D01*
X59619093Y-78475000D01*
X60187378Y-78361961D01*
X60669147Y-78040054D01*
X60991054Y-77558285D01*
X61104093Y-76990000D01*
X70775907Y-76990000D01*
X70888946Y-77558285D01*
X71210853Y-78040054D01*
X71692622Y-78361961D01*
X72260907Y-78475000D01*
X72319093Y-78475000D01*
X72887378Y-78361961D01*
X73369147Y-78040054D01*
X73691054Y-77558285D01*
X73804093Y-76990000D01*
X73691054Y-76421715D01*
X73369147Y-75939946D01*
X73028447Y-75712298D01*
X73171358Y-75645183D01*
X73561645Y-75216924D01*
X73731476Y-74806890D01*
X73610155Y-74577000D01*
X72417000Y-74577000D01*
X72417000Y-74597000D01*
X72163000Y-74597000D01*
X72163000Y-74577000D01*
X70969845Y-74577000D01*
X70848524Y-74806890D01*
X71018355Y-75216924D01*
X71408642Y-75645183D01*
X71551553Y-75712298D01*
X71210853Y-75939946D01*
X70888946Y-76421715D01*
X70775907Y-76990000D01*
X61104093Y-76990000D01*
X60991054Y-76421715D01*
X60669147Y-75939946D01*
X60339974Y-75720000D01*
X60669147Y-75500054D01*
X60991054Y-75018285D01*
X61104093Y-74450000D01*
X60991054Y-73881715D01*
X60669147Y-73399946D01*
X60339974Y-73180000D01*
X60669147Y-72960054D01*
X60868000Y-72662449D01*
X60868000Y-72672000D01*
X60954397Y-73106346D01*
X61200434Y-73474566D01*
X62714560Y-74988692D01*
X62714560Y-75250000D01*
X62758838Y-75485317D01*
X62897910Y-75701441D01*
X63110110Y-75846431D01*
X63362000Y-75897440D01*
X64962000Y-75897440D01*
X65197317Y-75853162D01*
X65413441Y-75714090D01*
X65558431Y-75501890D01*
X65567370Y-75457745D01*
X66833861Y-75457745D01*
X66907995Y-75703864D01*
X67445223Y-75896965D01*
X68015454Y-75869778D01*
X68416005Y-75703864D01*
X68490139Y-75457745D01*
X67662000Y-74629605D01*
X66833861Y-75457745D01*
X65567370Y-75457745D01*
X65609440Y-75250000D01*
X65609440Y-74233223D01*
X66215035Y-74233223D01*
X66242222Y-74803454D01*
X66408136Y-75204005D01*
X66654255Y-75278139D01*
X67482395Y-74450000D01*
X67841605Y-74450000D01*
X68669745Y-75278139D01*
X68915864Y-75204005D01*
X69108965Y-74666777D01*
X69081778Y-74096546D01*
X68915864Y-73695995D01*
X68669745Y-73621861D01*
X67841605Y-74450000D01*
X67482395Y-74450000D01*
X66654255Y-73621861D01*
X66408136Y-73695995D01*
X66215035Y-74233223D01*
X65609440Y-74233223D01*
X65609440Y-73650000D01*
X65570351Y-73442255D01*
X66833861Y-73442255D01*
X67662000Y-74270395D01*
X68490139Y-73442255D01*
X68416005Y-73196136D01*
X67878777Y-73003035D01*
X67308546Y-73030222D01*
X66907995Y-73196136D01*
X66833861Y-73442255D01*
X65570351Y-73442255D01*
X65565162Y-73414683D01*
X65426090Y-73198559D01*
X65213890Y-73053569D01*
X64962000Y-73002560D01*
X63938692Y-73002560D01*
X63138000Y-72201868D01*
X63138000Y-58233690D01*
X70805000Y-58233690D01*
X70805000Y-58924250D01*
X70963750Y-59083000D01*
X72163000Y-59083000D01*
X72163000Y-57883750D01*
X72417000Y-57883750D01*
X72417000Y-59083000D01*
X73616250Y-59083000D01*
X73775000Y-58924250D01*
X73775000Y-58233690D01*
X73678327Y-58000301D01*
X73499698Y-57821673D01*
X73266309Y-57725000D01*
X72575750Y-57725000D01*
X72417000Y-57883750D01*
X72163000Y-57883750D01*
X72004250Y-57725000D01*
X71313691Y-57725000D01*
X71080302Y-57821673D01*
X70901673Y-58000301D01*
X70805000Y-58233690D01*
X63138000Y-58233690D01*
X63138000Y-52860000D01*
X70775907Y-52860000D01*
X70888946Y-53428285D01*
X71210853Y-53910054D01*
X71692622Y-54231961D01*
X72260907Y-54345000D01*
X72319093Y-54345000D01*
X72887378Y-54231961D01*
X73369147Y-53910054D01*
X73691054Y-53428285D01*
X73804093Y-52860000D01*
X73691054Y-52291715D01*
X73369147Y-51809946D01*
X73028447Y-51582298D01*
X73171358Y-51515183D01*
X73561645Y-51086924D01*
X73731476Y-50676890D01*
X73610155Y-50447000D01*
X72417000Y-50447000D01*
X72417000Y-50467000D01*
X72163000Y-50467000D01*
X72163000Y-50447000D01*
X70969845Y-50447000D01*
X70848524Y-50676890D01*
X71018355Y-51086924D01*
X71408642Y-51515183D01*
X71551553Y-51582298D01*
X71210853Y-51809946D01*
X70888946Y-52291715D01*
X70775907Y-52860000D01*
X63138000Y-52860000D01*
X63138000Y-51722079D01*
X63362000Y-51767440D01*
X64962000Y-51767440D01*
X65197317Y-51723162D01*
X65413441Y-51584090D01*
X65558431Y-51371890D01*
X65567370Y-51327745D01*
X66833861Y-51327745D01*
X66907995Y-51573864D01*
X67445223Y-51766965D01*
X68015454Y-51739778D01*
X68416005Y-51573864D01*
X68490139Y-51327745D01*
X67662000Y-50499605D01*
X66833861Y-51327745D01*
X65567370Y-51327745D01*
X65609440Y-51120000D01*
X65609440Y-50103223D01*
X66215035Y-50103223D01*
X66242222Y-50673454D01*
X66408136Y-51074005D01*
X66654255Y-51148139D01*
X67482395Y-50320000D01*
X67841605Y-50320000D01*
X68669745Y-51148139D01*
X68915864Y-51074005D01*
X69108965Y-50536777D01*
X69081778Y-49966546D01*
X68915864Y-49565995D01*
X68669745Y-49491861D01*
X67841605Y-50320000D01*
X67482395Y-50320000D01*
X66654255Y-49491861D01*
X66408136Y-49565995D01*
X66215035Y-50103223D01*
X65609440Y-50103223D01*
X65609440Y-49520000D01*
X65570351Y-49312255D01*
X66833861Y-49312255D01*
X67662000Y-50140395D01*
X68490139Y-49312255D01*
X68416005Y-49066136D01*
X67878777Y-48873035D01*
X67308546Y-48900222D01*
X66907995Y-49066136D01*
X66833861Y-49312255D01*
X65570351Y-49312255D01*
X65565162Y-49284683D01*
X65426090Y-49068559D01*
X65213890Y-48923569D01*
X64962000Y-48872560D01*
X63362000Y-48872560D01*
X63126683Y-48916838D01*
X62910559Y-49055910D01*
X62822356Y-49185000D01*
X62638000Y-49185000D01*
X62203655Y-49271396D01*
X61835434Y-49517434D01*
X61200434Y-50152434D01*
X61100509Y-50301982D01*
X60991054Y-49751715D01*
X60669147Y-49269946D01*
X60339974Y-49050000D01*
X60669147Y-48830054D01*
X60991054Y-48348285D01*
X61104093Y-47780000D01*
X60991054Y-47211715D01*
X60669147Y-46729946D01*
X60339974Y-46510000D01*
X60669147Y-46290054D01*
X60991054Y-45808285D01*
X61104093Y-45240000D01*
X60991054Y-44671715D01*
X60669147Y-44189946D01*
X60339974Y-43970000D01*
X60669147Y-43750054D01*
X60991054Y-43268285D01*
X61104093Y-42700000D01*
X60991054Y-42131715D01*
X60669147Y-41649946D01*
X60339974Y-41430000D01*
X60669147Y-41210054D01*
X60991054Y-40728285D01*
X61104093Y-40160000D01*
X60991054Y-39591715D01*
X60669147Y-39109946D01*
X60339974Y-38890000D01*
X60669147Y-38670054D01*
X60991054Y-38188285D01*
X61104093Y-37620000D01*
X70775907Y-37620000D01*
X70888946Y-38188285D01*
X71210853Y-38670054D01*
X71540026Y-38890000D01*
X71210853Y-39109946D01*
X70888946Y-39591715D01*
X70775907Y-40160000D01*
X70888946Y-40728285D01*
X71210853Y-41210054D01*
X71540026Y-41430000D01*
X71210853Y-41649946D01*
X70888946Y-42131715D01*
X70775907Y-42700000D01*
X70888946Y-43268285D01*
X71210853Y-43750054D01*
X71540026Y-43970000D01*
X71210853Y-44189946D01*
X70888946Y-44671715D01*
X70775907Y-45240000D01*
X70888946Y-45808285D01*
X71210853Y-46290054D01*
X71540026Y-46510000D01*
X71210853Y-46729946D01*
X70888946Y-47211715D01*
X70775907Y-47780000D01*
X70888946Y-48348285D01*
X71210853Y-48830054D01*
X71551553Y-49057702D01*
X71408642Y-49124817D01*
X71018355Y-49553076D01*
X70848524Y-49963110D01*
X70969845Y-50193000D01*
X72163000Y-50193000D01*
X72163000Y-50173000D01*
X72417000Y-50173000D01*
X72417000Y-50193000D01*
X73610155Y-50193000D01*
X73731476Y-49963110D01*
X73561645Y-49553076D01*
X73171358Y-49124817D01*
X73028447Y-49057702D01*
X73369147Y-48830054D01*
X73691054Y-48348285D01*
X73804093Y-47780000D01*
X73691054Y-47211715D01*
X73369147Y-46729946D01*
X73039974Y-46510000D01*
X73369147Y-46290054D01*
X73691054Y-45808285D01*
X73754500Y-45489321D01*
X73754500Y-46255995D01*
X73754499Y-46256000D01*
X73810690Y-46538484D01*
X73821867Y-46594675D01*
X73980836Y-46832590D01*
X74013710Y-46881790D01*
X75215000Y-48083079D01*
X75215000Y-55617926D01*
X75053629Y-55779015D01*
X74865215Y-56232766D01*
X74864786Y-56724079D01*
X75052408Y-57178157D01*
X75215000Y-57341033D01*
X75215000Y-60557921D01*
X74907920Y-60865000D01*
X73479432Y-60865000D01*
X73369147Y-60699946D01*
X73325223Y-60670597D01*
X73499698Y-60598327D01*
X73678327Y-60419699D01*
X73775000Y-60186310D01*
X73775000Y-59495750D01*
X73616250Y-59337000D01*
X72417000Y-59337000D01*
X72417000Y-59357000D01*
X72163000Y-59357000D01*
X72163000Y-59337000D01*
X70963750Y-59337000D01*
X70805000Y-59495750D01*
X70805000Y-60186310D01*
X70901673Y-60419699D01*
X71080302Y-60598327D01*
X71254777Y-60670597D01*
X71210853Y-60699946D01*
X70888946Y-61181715D01*
X70775907Y-61750000D01*
X70888946Y-62318285D01*
X71210853Y-62800054D01*
X71540026Y-63020000D01*
X71210853Y-63239946D01*
X70888946Y-63721715D01*
X70775907Y-64290000D01*
X70888946Y-64858285D01*
X71210853Y-65340054D01*
X71540026Y-65560000D01*
X71210853Y-65779946D01*
X70888946Y-66261715D01*
X70775907Y-66830000D01*
X70888946Y-67398285D01*
X71210853Y-67880054D01*
X71540026Y-68100000D01*
X71210853Y-68319946D01*
X70888946Y-68801715D01*
X70775907Y-69370000D01*
X70888946Y-69938285D01*
X71210853Y-70420054D01*
X71540026Y-70640000D01*
X71210853Y-70859946D01*
X70888946Y-71341715D01*
X70775907Y-71910000D01*
X70888946Y-72478285D01*
X71210853Y-72960054D01*
X71551553Y-73187702D01*
X71408642Y-73254817D01*
X71018355Y-73683076D01*
X70848524Y-74093110D01*
X70969845Y-74323000D01*
X72163000Y-74323000D01*
X72163000Y-74303000D01*
X72417000Y-74303000D01*
X72417000Y-74323000D01*
X73610155Y-74323000D01*
X73731476Y-74093110D01*
X73561645Y-73683076D01*
X73171358Y-73254817D01*
X73028447Y-73187702D01*
X73369147Y-72960054D01*
X73691054Y-72478285D01*
X73804093Y-71910000D01*
X73691054Y-71341715D01*
X73369147Y-70859946D01*
X73039974Y-70640000D01*
X73369147Y-70420054D01*
X73691054Y-69938285D01*
X73804093Y-69370000D01*
X73775518Y-69226343D01*
X73948847Y-69485750D01*
X73950210Y-69487790D01*
X74114560Y-69652140D01*
X74114560Y-70909000D01*
X74158838Y-71144317D01*
X74297910Y-71360441D01*
X74510110Y-71505431D01*
X74627000Y-71529102D01*
X74627000Y-72288962D01*
X74526683Y-72307838D01*
X74310559Y-72446910D01*
X74165569Y-72659110D01*
X74114560Y-72911000D01*
X74114560Y-74211000D01*
X74158838Y-74446317D01*
X74297910Y-74662441D01*
X74510110Y-74807431D01*
X74762000Y-74858440D01*
X76262000Y-74858440D01*
X76497317Y-74814162D01*
X76713441Y-74675090D01*
X76858431Y-74462890D01*
X76861081Y-74449803D01*
X76997910Y-74662441D01*
X77210110Y-74807431D01*
X77462000Y-74858440D01*
X78962000Y-74858440D01*
X79197317Y-74814162D01*
X79413441Y-74675090D01*
X79558431Y-74462890D01*
X79561851Y-74446000D01*
X80432420Y-74446000D01*
X81565000Y-75578579D01*
X81565000Y-76572926D01*
X81403629Y-76734015D01*
X81215215Y-77187766D01*
X81214786Y-77679079D01*
X81402408Y-78133157D01*
X81749515Y-78480871D01*
X82203266Y-78669285D01*
X82694579Y-78669714D01*
X82820200Y-78617808D01*
X82675715Y-78965766D01*
X82675286Y-79457079D01*
X82862908Y-79911157D01*
X83210015Y-80258871D01*
X83663766Y-80447285D01*
X84155079Y-80447714D01*
X84609157Y-80260092D01*
X84956871Y-79912985D01*
X85145285Y-79459234D01*
X85145714Y-78967921D01*
X84958092Y-78513843D01*
X84610985Y-78166129D01*
X84605000Y-78163644D01*
X84605000Y-76609000D01*
X90260500Y-76609000D01*
X90306659Y-76600315D01*
X90349053Y-76573035D01*
X90377494Y-76531410D01*
X90387500Y-76482000D01*
X90387500Y-66131500D01*
X90378166Y-66083711D01*
X90350303Y-66041697D01*
X89641608Y-65333002D01*
X89663600Y-65279909D01*
X89663600Y-64575750D01*
X89504850Y-64417000D01*
X88725606Y-64417000D01*
X88471606Y-64163000D01*
X89504850Y-64163000D01*
X89663600Y-64004250D01*
X89663600Y-63300091D01*
X89566927Y-63066702D01*
X89388299Y-62888073D01*
X89154910Y-62791400D01*
X88450750Y-62791400D01*
X88292000Y-62950150D01*
X88292000Y-63983394D01*
X88038000Y-63729394D01*
X88038000Y-62950150D01*
X87879250Y-62791400D01*
X87175090Y-62791400D01*
X87121998Y-62813392D01*
X86476803Y-62168197D01*
X86436410Y-62141006D01*
X86387000Y-62131000D01*
X83529500Y-62131000D01*
X83483341Y-62139685D01*
X83440947Y-62166965D01*
X83412506Y-62208590D01*
X83402500Y-62258000D01*
X83402500Y-73325421D01*
X80336080Y-70259000D01*
X81314287Y-69280792D01*
X81314290Y-69280790D01*
X81506133Y-68993675D01*
X81506134Y-68993674D01*
X81573501Y-68655000D01*
X81573500Y-68654995D01*
X81573500Y-68034183D01*
X81703817Y-68009662D01*
X81919941Y-67870590D01*
X82064931Y-67658390D01*
X82115940Y-67406500D01*
X82115940Y-66756500D01*
X82089581Y-66616414D01*
X82103500Y-66582810D01*
X82103500Y-66417250D01*
X81944750Y-66258500D01*
X81864449Y-66258500D01*
X81720390Y-66160069D01*
X81583380Y-66132324D01*
X81703817Y-66109662D01*
X81867243Y-66004500D01*
X81944750Y-66004500D01*
X82103500Y-65845750D01*
X82103500Y-65680190D01*
X82088232Y-65643329D01*
X82115940Y-65506500D01*
X82115940Y-64856500D01*
X82071662Y-64621183D01*
X81932590Y-64405059D01*
X81720390Y-64260069D01*
X81573500Y-64230323D01*
X81573500Y-62735080D01*
X82186787Y-62121792D01*
X82186790Y-62121790D01*
X82378633Y-61834675D01*
X82446000Y-61496000D01*
X82446000Y-57989080D01*
X83837787Y-56597292D01*
X83837790Y-56597290D01*
X84029633Y-56310175D01*
X84029634Y-56310174D01*
X84097001Y-55971500D01*
X84097000Y-55971495D01*
X84097000Y-54610574D01*
X84258371Y-54449485D01*
X84446785Y-53995734D01*
X84447214Y-53504421D01*
X84259592Y-53050343D01*
X83912485Y-52702629D01*
X83458734Y-52514215D01*
X82967421Y-52513786D01*
X82513343Y-52701408D01*
X82165629Y-53048515D01*
X81977215Y-53502266D01*
X81976786Y-53993579D01*
X82158335Y-54432960D01*
X82125234Y-54419215D01*
X81633921Y-54418786D01*
X81179843Y-54606408D01*
X80832129Y-54953515D01*
X80643715Y-55407266D01*
X80643514Y-55637406D01*
X79982710Y-56298210D01*
X79790867Y-56585325D01*
X79790867Y-56585326D01*
X79723499Y-56924000D01*
X79723500Y-56924005D01*
X79723500Y-60684921D01*
X77362710Y-63045710D01*
X77170867Y-63332825D01*
X77159690Y-63389016D01*
X77103499Y-63671500D01*
X77103500Y-63671505D01*
X77103500Y-64228817D01*
X76973183Y-64253338D01*
X76757059Y-64392410D01*
X76612069Y-64604610D01*
X76561060Y-64856500D01*
X76561060Y-65506500D01*
X76605338Y-65741817D01*
X76744410Y-65957941D01*
X76956610Y-66102931D01*
X77093620Y-66130676D01*
X76973183Y-66153338D01*
X76757059Y-66292410D01*
X76612069Y-66504610D01*
X76561060Y-66756500D01*
X76561060Y-67406500D01*
X76605338Y-67641817D01*
X76744410Y-67857941D01*
X76885413Y-67954285D01*
X76324599Y-68515099D01*
X76159852Y-68761661D01*
X76120089Y-68961560D01*
X75927139Y-68961560D01*
X75461000Y-68495420D01*
X75461000Y-64148580D01*
X77995787Y-61613792D01*
X77995790Y-61613790D01*
X78187633Y-61326675D01*
X78200264Y-61263175D01*
X78255001Y-60988000D01*
X78255000Y-60987995D01*
X78255000Y-58611074D01*
X78416371Y-58449985D01*
X78604785Y-57996234D01*
X78605214Y-57504921D01*
X78417592Y-57050843D01*
X78070485Y-56703129D01*
X77616734Y-56514715D01*
X77334970Y-56514469D01*
X77335214Y-56234921D01*
X77147592Y-55780843D01*
X76985000Y-55617967D01*
X76985000Y-47716505D01*
X76985001Y-47716500D01*
X76917633Y-47377826D01*
X76917633Y-47377825D01*
X76725790Y-47090710D01*
X76725787Y-47090708D01*
X75524500Y-45889420D01*
X75524500Y-38890005D01*
X75524501Y-38890000D01*
X75457133Y-38551325D01*
X75426180Y-38505000D01*
X75265290Y-38264210D01*
X75265287Y-38264208D01*
X75065580Y-38064500D01*
X83720000Y-38064500D01*
X83720000Y-51653500D01*
X83728685Y-51699659D01*
X83755965Y-51742053D01*
X83797590Y-51770494D01*
X83847000Y-51780500D01*
X85285861Y-51780500D01*
X85625000Y-51847959D01*
X85964139Y-51780500D01*
X87825861Y-51780500D01*
X88165000Y-51847959D01*
X88504139Y-51780500D01*
X90197000Y-51780500D01*
X90243159Y-51771815D01*
X90285553Y-51744535D01*
X90313994Y-51702910D01*
X90324000Y-51653500D01*
X90324000Y-41938000D01*
X90314666Y-41890211D01*
X90286803Y-41848197D01*
X89641608Y-41203002D01*
X89663600Y-41149909D01*
X89663600Y-40445750D01*
X89504850Y-40287000D01*
X88725606Y-40287000D01*
X88471606Y-40033000D01*
X89504850Y-40033000D01*
X89663600Y-39874250D01*
X89663600Y-39170091D01*
X89566927Y-38936702D01*
X89388299Y-38758073D01*
X89154910Y-38661400D01*
X88450750Y-38661400D01*
X88292000Y-38820150D01*
X88292000Y-39853394D01*
X88038000Y-39599394D01*
X88038000Y-38820150D01*
X87879250Y-38661400D01*
X87175090Y-38661400D01*
X87121998Y-38683392D01*
X86413303Y-37974697D01*
X86372910Y-37947506D01*
X86323500Y-37937500D01*
X83847000Y-37937500D01*
X83800841Y-37946185D01*
X83758447Y-37973465D01*
X83730006Y-38015090D01*
X83720000Y-38064500D01*
X75065580Y-38064500D01*
X73995290Y-36994210D01*
X73708175Y-36802367D01*
X73651984Y-36791190D01*
X73496283Y-36760218D01*
X73369147Y-36569946D01*
X73325223Y-36540597D01*
X73499698Y-36468327D01*
X73678327Y-36289699D01*
X73775000Y-36056310D01*
X73775000Y-35365750D01*
X73616250Y-35207000D01*
X72417000Y-35207000D01*
X72417000Y-35227000D01*
X72163000Y-35227000D01*
X72163000Y-35207000D01*
X70963750Y-35207000D01*
X70805000Y-35365750D01*
X70805000Y-36056310D01*
X70901673Y-36289699D01*
X71080302Y-36468327D01*
X71254777Y-36540597D01*
X71210853Y-36569946D01*
X70888946Y-37051715D01*
X70775907Y-37620000D01*
X61104093Y-37620000D01*
X60991054Y-37051715D01*
X60669147Y-36569946D01*
X60627548Y-36542150D01*
X60675317Y-36533162D01*
X60891441Y-36394090D01*
X61036431Y-36181890D01*
X61087440Y-35930000D01*
X61087440Y-34230000D01*
X61063674Y-34103690D01*
X70805000Y-34103690D01*
X70805000Y-34794250D01*
X70963750Y-34953000D01*
X72163000Y-34953000D01*
X72163000Y-33753750D01*
X72417000Y-33753750D01*
X72417000Y-34953000D01*
X73616250Y-34953000D01*
X73775000Y-34794250D01*
X73775000Y-34315119D01*
X75827613Y-34315119D01*
X76167155Y-35136872D01*
X76795321Y-35766136D01*
X77616481Y-36107111D01*
X78505619Y-36107887D01*
X79327372Y-35768345D01*
X79956636Y-35140179D01*
X80297611Y-34319019D01*
X80298387Y-33429881D01*
X79958845Y-32608128D01*
X79330679Y-31978864D01*
X78509519Y-31637889D01*
X77620381Y-31637113D01*
X76798628Y-31976655D01*
X76169364Y-32604821D01*
X75828389Y-33425981D01*
X75827613Y-34315119D01*
X73775000Y-34315119D01*
X73775000Y-34103690D01*
X73678327Y-33870301D01*
X73499698Y-33691673D01*
X73266309Y-33595000D01*
X72575750Y-33595000D01*
X72417000Y-33753750D01*
X72163000Y-33753750D01*
X72004250Y-33595000D01*
X71313691Y-33595000D01*
X71080302Y-33691673D01*
X70901673Y-33870301D01*
X70805000Y-34103690D01*
X61063674Y-34103690D01*
X61043162Y-33994683D01*
X60904090Y-33778559D01*
X60691890Y-33633569D01*
X60440000Y-33582560D01*
X58740000Y-33582560D01*
X58504683Y-33626838D01*
X58288559Y-33765910D01*
X58143569Y-33978110D01*
X58092560Y-34230000D01*
X58092560Y-35930000D01*
X58136838Y-36165317D01*
X58275910Y-36381441D01*
X58488110Y-36526431D01*
X58555541Y-36540086D01*
X58510853Y-36569946D01*
X58188946Y-37051715D01*
X58075907Y-37620000D01*
X58188946Y-38188285D01*
X58510853Y-38670054D01*
X58840026Y-38890000D01*
X58510853Y-39109946D01*
X58188946Y-39591715D01*
X58075907Y-40160000D01*
X58188946Y-40728285D01*
X58510853Y-41210054D01*
X58840026Y-41430000D01*
X58510853Y-41649946D01*
X58400568Y-41815000D01*
X53720574Y-41815000D01*
X53559485Y-41653629D01*
X53105734Y-41465215D01*
X52614421Y-41464786D01*
X52160343Y-41652408D01*
X51812629Y-41999515D01*
X51624215Y-42453266D01*
X51623786Y-42944579D01*
X51811408Y-43398657D01*
X52158515Y-43746371D01*
X52612266Y-43934785D01*
X53103579Y-43935214D01*
X53557657Y-43747592D01*
X53720533Y-43585000D01*
X58400568Y-43585000D01*
X58510853Y-43750054D01*
X58840026Y-43970000D01*
X58510853Y-44189946D01*
X58188946Y-44671715D01*
X58075907Y-45240000D01*
X58188946Y-45808285D01*
X58510853Y-46290054D01*
X58840026Y-46510000D01*
X58510853Y-46729946D01*
X58188946Y-47211715D01*
X58075907Y-47780000D01*
X58188946Y-48348285D01*
X58510853Y-48830054D01*
X58840026Y-49050000D01*
X58510853Y-49269946D01*
X58188946Y-49751715D01*
X58075907Y-50320000D01*
X58188946Y-50888285D01*
X58510853Y-51370054D01*
X58840026Y-51590000D01*
X58510853Y-51809946D01*
X58188946Y-52291715D01*
X58075907Y-52860000D01*
X58188946Y-53428285D01*
X58510853Y-53910054D01*
X58992622Y-54231961D01*
X59560907Y-54345000D01*
X59619093Y-54345000D01*
X60187378Y-54231961D01*
X60669147Y-53910054D01*
X60868000Y-53612449D01*
X60868000Y-54519000D01*
X58409132Y-54519000D01*
X57740500Y-53850368D01*
X57740500Y-49621500D01*
X57654103Y-49187154D01*
X57408066Y-48818934D01*
X57039846Y-48572897D01*
X56751027Y-48515447D01*
X56723290Y-48487710D01*
X56640660Y-48432499D01*
X56436175Y-48295867D01*
X56350324Y-48278790D01*
X56097500Y-48228499D01*
X56097495Y-48228500D01*
X56075227Y-48228500D01*
X56092440Y-48143500D01*
X56092440Y-47543500D01*
X56048162Y-47308183D01*
X55909090Y-47092059D01*
X55696890Y-46947069D01*
X55445000Y-46896060D01*
X53895000Y-46896060D01*
X53659683Y-46940338D01*
X53443559Y-47079410D01*
X53298569Y-47291610D01*
X53247560Y-47543500D01*
X53247560Y-48143500D01*
X53291838Y-48378817D01*
X53355678Y-48478028D01*
X53298569Y-48561610D01*
X53247560Y-48813500D01*
X53247560Y-49413500D01*
X53291838Y-49648817D01*
X53355678Y-49748028D01*
X53298569Y-49831610D01*
X53247560Y-50083500D01*
X53247560Y-50345981D01*
X51389290Y-48487710D01*
X51306660Y-48432499D01*
X51102175Y-48295867D01*
X51016324Y-48278790D01*
X50763500Y-48228499D01*
X50763495Y-48228500D01*
X50680000Y-48228500D01*
X50680000Y-48129250D01*
X50521250Y-47970500D01*
X49397000Y-47970500D01*
X49397000Y-47990500D01*
X49143000Y-47990500D01*
X49143000Y-47970500D01*
X49123000Y-47970500D01*
X49123000Y-47716500D01*
X49143000Y-47716500D01*
X49143000Y-47067250D01*
X49397000Y-47067250D01*
X49397000Y-47716500D01*
X50521250Y-47716500D01*
X50680000Y-47557750D01*
X50680000Y-47417190D01*
X50583327Y-47183801D01*
X50404698Y-47005173D01*
X50171309Y-46908500D01*
X49555750Y-46908500D01*
X49397000Y-47067250D01*
X49143000Y-47067250D01*
X48984250Y-46908500D01*
X48472000Y-46908500D01*
X48472000Y-45725974D01*
X48510691Y-45742000D01*
X48951250Y-45742000D01*
X49110000Y-45583250D01*
X49110000Y-44859000D01*
X49364000Y-44859000D01*
X49364000Y-45583250D01*
X49522750Y-45742000D01*
X49963309Y-45742000D01*
X50196698Y-45645327D01*
X50375327Y-45466699D01*
X50472000Y-45233310D01*
X50472000Y-45017750D01*
X50313250Y-44859000D01*
X49364000Y-44859000D01*
X49110000Y-44859000D01*
X49090000Y-44859000D01*
X49090000Y-44605000D01*
X49110000Y-44605000D01*
X49110000Y-43880750D01*
X49030250Y-43801000D01*
X49110000Y-43721250D01*
X49110000Y-42422000D01*
X49364000Y-42422000D01*
X49364000Y-43721250D01*
X49443750Y-43801000D01*
X49364000Y-43880750D01*
X49364000Y-44605000D01*
X50313250Y-44605000D01*
X50472000Y-44446250D01*
X50472000Y-44230690D01*
X50375327Y-43997301D01*
X50196698Y-43818673D01*
X50030284Y-43749742D01*
X50175327Y-43604698D01*
X50272000Y-43371309D01*
X50272000Y-42580750D01*
X50113250Y-42422000D01*
X49364000Y-42422000D01*
X49110000Y-42422000D01*
X49090000Y-42422000D01*
X49090000Y-42168000D01*
X49110000Y-42168000D01*
X49110000Y-42148000D01*
X49364000Y-42148000D01*
X49364000Y-42168000D01*
X50113250Y-42168000D01*
X50272000Y-42009250D01*
X50272000Y-41218691D01*
X50175327Y-40985302D01*
X50128500Y-40938475D01*
X50128500Y-40276106D01*
X52059803Y-38344803D01*
X52086994Y-38304410D01*
X52097000Y-38255000D01*
X52097000Y-34730750D01*
X52498000Y-34730750D01*
X52498000Y-35821310D01*
X52594673Y-36054699D01*
X52773302Y-36233327D01*
X53006691Y-36330000D01*
X54097250Y-36330000D01*
X54256000Y-36171250D01*
X54256000Y-34572000D01*
X54510000Y-34572000D01*
X54510000Y-36171250D01*
X54668750Y-36330000D01*
X55759309Y-36330000D01*
X55992698Y-36233327D01*
X56171327Y-36054699D01*
X56268000Y-35821310D01*
X56268000Y-34730750D01*
X56109250Y-34572000D01*
X54510000Y-34572000D01*
X54256000Y-34572000D01*
X52656750Y-34572000D01*
X52498000Y-34730750D01*
X52097000Y-34730750D01*
X52097000Y-33068690D01*
X52498000Y-33068690D01*
X52498000Y-34159250D01*
X52656750Y-34318000D01*
X54256000Y-34318000D01*
X54256000Y-32718750D01*
X54510000Y-32718750D01*
X54510000Y-34318000D01*
X56109250Y-34318000D01*
X56268000Y-34159250D01*
X56268000Y-33068690D01*
X56171327Y-32835301D01*
X55992698Y-32656673D01*
X55759309Y-32560000D01*
X54668750Y-32560000D01*
X54510000Y-32718750D01*
X54256000Y-32718750D01*
X54097250Y-32560000D01*
X53006691Y-32560000D01*
X52773302Y-32656673D01*
X52594673Y-32835301D01*
X52498000Y-33068690D01*
X52097000Y-33068690D01*
X52097000Y-30710000D01*
X91290000Y-30710000D01*
X91290000Y-83290000D01*
G36*
X56903000Y-61686500D02*
X56923000Y-61686500D01*
X56923000Y-61940500D01*
X56903000Y-61940500D01*
X56903000Y-62914750D01*
X57061750Y-63073500D01*
X57652309Y-63073500D01*
X57885698Y-62976827D01*
X58064327Y-62798199D01*
X58161000Y-62564810D01*
X58161000Y-62177791D01*
X58188946Y-62318285D01*
X58510853Y-62800054D01*
X58840026Y-63020000D01*
X58510853Y-63239946D01*
X58188946Y-63721715D01*
X58075907Y-64290000D01*
X58188946Y-64858285D01*
X58510853Y-65340054D01*
X58840026Y-65560000D01*
X58510853Y-65779946D01*
X58188946Y-66261715D01*
X58075907Y-66830000D01*
X58188946Y-67398285D01*
X58510853Y-67880054D01*
X58840026Y-68100000D01*
X58510853Y-68319946D01*
X58188946Y-68801715D01*
X58075907Y-69370000D01*
X58188946Y-69938285D01*
X58510853Y-70420054D01*
X58840026Y-70640000D01*
X58510853Y-70859946D01*
X58373955Y-71064828D01*
X58224592Y-70703343D01*
X57877485Y-70355629D01*
X57423734Y-70167215D01*
X56932421Y-70166786D01*
X56478343Y-70354408D01*
X56315467Y-70517000D01*
X46431079Y-70517000D01*
X46383387Y-70469308D01*
X46447441Y-70428090D01*
X46592431Y-70215890D01*
X46643440Y-69964000D01*
X46643440Y-69372250D01*
X47710000Y-69372250D01*
X47710000Y-69612809D01*
X47806673Y-69846198D01*
X47985301Y-70024827D01*
X48218690Y-70121500D01*
X48509250Y-70121500D01*
X48668000Y-69962750D01*
X48668000Y-69213500D01*
X48922000Y-69213500D01*
X48922000Y-69962750D01*
X49080750Y-70121500D01*
X49371310Y-70121500D01*
X49604699Y-70024827D01*
X49742000Y-69887525D01*
X49742000Y-69926309D01*
X49838673Y-70159698D01*
X50017301Y-70338327D01*
X50250690Y-70435000D01*
X50541250Y-70435000D01*
X50700000Y-70276250D01*
X50700000Y-69327000D01*
X50954000Y-69327000D01*
X50954000Y-70276250D01*
X51112750Y-70435000D01*
X51403310Y-70435000D01*
X51636699Y-70338327D01*
X51815327Y-70159698D01*
X51912000Y-69926309D01*
X51912000Y-69485750D01*
X51753250Y-69327000D01*
X50954000Y-69327000D01*
X50700000Y-69327000D01*
X49900750Y-69327000D01*
X49867750Y-69360000D01*
X49721250Y-69213500D01*
X48922000Y-69213500D01*
X48668000Y-69213500D01*
X47868750Y-69213500D01*
X47710000Y-69372250D01*
X46643440Y-69372250D01*
X46643440Y-68560191D01*
X47710000Y-68560191D01*
X47710000Y-68800750D01*
X47868750Y-68959500D01*
X48668000Y-68959500D01*
X48668000Y-68210250D01*
X48509250Y-68051500D01*
X48218690Y-68051500D01*
X47985301Y-68148173D01*
X47806673Y-68326802D01*
X47710000Y-68560191D01*
X46643440Y-68560191D01*
X46643440Y-67964000D01*
X46599162Y-67728683D01*
X46460090Y-67512559D01*
X46247890Y-67367569D01*
X45996000Y-67316560D01*
X44981000Y-67316560D01*
X44981000Y-64286038D01*
X45081317Y-64267162D01*
X45247477Y-64160241D01*
X45394110Y-64260431D01*
X45646000Y-64311440D01*
X47146000Y-64311440D01*
X47381317Y-64267162D01*
X47514570Y-64181416D01*
X47507060Y-64218500D01*
X47507060Y-65418500D01*
X47551338Y-65653817D01*
X47690410Y-65869941D01*
X47719500Y-65889817D01*
X47719500Y-66478157D01*
X47697560Y-66586500D01*
X47697560Y-67386500D01*
X47741838Y-67621817D01*
X47880910Y-67837941D01*
X48093110Y-67982931D01*
X48345000Y-68033940D01*
X49245000Y-68033940D01*
X49480317Y-67989662D01*
X49642966Y-67885000D01*
X49805808Y-67885000D01*
X49912910Y-68051441D01*
X49981006Y-68097969D01*
X49838673Y-68240302D01*
X49793085Y-68350360D01*
X49783327Y-68326802D01*
X49604699Y-68148173D01*
X49371310Y-68051500D01*
X49080750Y-68051500D01*
X48922000Y-68210250D01*
X48922000Y-68959500D01*
X49721250Y-68959500D01*
X49754250Y-68926500D01*
X49900750Y-69073000D01*
X50700000Y-69073000D01*
X50700000Y-69053000D01*
X50954000Y-69053000D01*
X50954000Y-69073000D01*
X51753250Y-69073000D01*
X51912000Y-68914250D01*
X51912000Y-68558442D01*
X52107690Y-68639500D01*
X52573250Y-68639500D01*
X52732000Y-68480750D01*
X52732000Y-67381500D01*
X52986000Y-67381500D01*
X52986000Y-68480750D01*
X53144750Y-68639500D01*
X53610310Y-68639500D01*
X53843699Y-68542827D01*
X54022327Y-68364198D01*
X54119000Y-68130809D01*
X54119000Y-67540250D01*
X53960250Y-67381500D01*
X52986000Y-67381500D01*
X52732000Y-67381500D01*
X52712000Y-67381500D01*
X52712000Y-67127500D01*
X52732000Y-67127500D01*
X52732000Y-67107500D01*
X52986000Y-67107500D01*
X52986000Y-67127500D01*
X53960250Y-67127500D01*
X54119000Y-66968750D01*
X54119000Y-66378191D01*
X54022327Y-66144802D01*
X53881090Y-66003564D01*
X53935441Y-65968590D01*
X54080431Y-65756390D01*
X54131440Y-65504500D01*
X54131440Y-64004500D01*
X54087162Y-63769183D01*
X53948090Y-63553059D01*
X53735890Y-63408069D01*
X53484000Y-63357060D01*
X53363000Y-63357060D01*
X53363000Y-63052932D01*
X53526000Y-63085940D01*
X55026000Y-63085940D01*
X55261317Y-63041662D01*
X55477441Y-62902590D01*
X55523969Y-62834494D01*
X55666302Y-62976827D01*
X55899691Y-63073500D01*
X56490250Y-63073500D01*
X56649000Y-62914750D01*
X56649000Y-61940500D01*
X56629000Y-61940500D01*
X56629000Y-61686500D01*
X56649000Y-61686500D01*
X56649000Y-61666500D01*
X56903000Y-61666500D01*
X56903000Y-61686500D01*
X56903000Y-61686500D01*
G37*
X56903000Y-61686500D02*
X56923000Y-61686500D01*
X56923000Y-61940500D01*
X56903000Y-61940500D01*
X56903000Y-62914750D01*
X57061750Y-63073500D01*
X57652309Y-63073500D01*
X57885698Y-62976827D01*
X58064327Y-62798199D01*
X58161000Y-62564810D01*
X58161000Y-62177791D01*
X58188946Y-62318285D01*
X58510853Y-62800054D01*
X58840026Y-63020000D01*
X58510853Y-63239946D01*
X58188946Y-63721715D01*
X58075907Y-64290000D01*
X58188946Y-64858285D01*
X58510853Y-65340054D01*
X58840026Y-65560000D01*
X58510853Y-65779946D01*
X58188946Y-66261715D01*
X58075907Y-66830000D01*
X58188946Y-67398285D01*
X58510853Y-67880054D01*
X58840026Y-68100000D01*
X58510853Y-68319946D01*
X58188946Y-68801715D01*
X58075907Y-69370000D01*
X58188946Y-69938285D01*
X58510853Y-70420054D01*
X58840026Y-70640000D01*
X58510853Y-70859946D01*
X58373955Y-71064828D01*
X58224592Y-70703343D01*
X57877485Y-70355629D01*
X57423734Y-70167215D01*
X56932421Y-70166786D01*
X56478343Y-70354408D01*
X56315467Y-70517000D01*
X46431079Y-70517000D01*
X46383387Y-70469308D01*
X46447441Y-70428090D01*
X46592431Y-70215890D01*
X46643440Y-69964000D01*
X46643440Y-69372250D01*
X47710000Y-69372250D01*
X47710000Y-69612809D01*
X47806673Y-69846198D01*
X47985301Y-70024827D01*
X48218690Y-70121500D01*
X48509250Y-70121500D01*
X48668000Y-69962750D01*
X48668000Y-69213500D01*
X48922000Y-69213500D01*
X48922000Y-69962750D01*
X49080750Y-70121500D01*
X49371310Y-70121500D01*
X49604699Y-70024827D01*
X49742000Y-69887525D01*
X49742000Y-69926309D01*
X49838673Y-70159698D01*
X50017301Y-70338327D01*
X50250690Y-70435000D01*
X50541250Y-70435000D01*
X50700000Y-70276250D01*
X50700000Y-69327000D01*
X50954000Y-69327000D01*
X50954000Y-70276250D01*
X51112750Y-70435000D01*
X51403310Y-70435000D01*
X51636699Y-70338327D01*
X51815327Y-70159698D01*
X51912000Y-69926309D01*
X51912000Y-69485750D01*
X51753250Y-69327000D01*
X50954000Y-69327000D01*
X50700000Y-69327000D01*
X49900750Y-69327000D01*
X49867750Y-69360000D01*
X49721250Y-69213500D01*
X48922000Y-69213500D01*
X48668000Y-69213500D01*
X47868750Y-69213500D01*
X47710000Y-69372250D01*
X46643440Y-69372250D01*
X46643440Y-68560191D01*
X47710000Y-68560191D01*
X47710000Y-68800750D01*
X47868750Y-68959500D01*
X48668000Y-68959500D01*
X48668000Y-68210250D01*
X48509250Y-68051500D01*
X48218690Y-68051500D01*
X47985301Y-68148173D01*
X47806673Y-68326802D01*
X47710000Y-68560191D01*
X46643440Y-68560191D01*
X46643440Y-67964000D01*
X46599162Y-67728683D01*
X46460090Y-67512559D01*
X46247890Y-67367569D01*
X45996000Y-67316560D01*
X44981000Y-67316560D01*
X44981000Y-64286038D01*
X45081317Y-64267162D01*
X45247477Y-64160241D01*
X45394110Y-64260431D01*
X45646000Y-64311440D01*
X47146000Y-64311440D01*
X47381317Y-64267162D01*
X47514570Y-64181416D01*
X47507060Y-64218500D01*
X47507060Y-65418500D01*
X47551338Y-65653817D01*
X47690410Y-65869941D01*
X47719500Y-65889817D01*
X47719500Y-66478157D01*
X47697560Y-66586500D01*
X47697560Y-67386500D01*
X47741838Y-67621817D01*
X47880910Y-67837941D01*
X48093110Y-67982931D01*
X48345000Y-68033940D01*
X49245000Y-68033940D01*
X49480317Y-67989662D01*
X49642966Y-67885000D01*
X49805808Y-67885000D01*
X49912910Y-68051441D01*
X49981006Y-68097969D01*
X49838673Y-68240302D01*
X49793085Y-68350360D01*
X49783327Y-68326802D01*
X49604699Y-68148173D01*
X49371310Y-68051500D01*
X49080750Y-68051500D01*
X48922000Y-68210250D01*
X48922000Y-68959500D01*
X49721250Y-68959500D01*
X49754250Y-68926500D01*
X49900750Y-69073000D01*
X50700000Y-69073000D01*
X50700000Y-69053000D01*
X50954000Y-69053000D01*
X50954000Y-69073000D01*
X51753250Y-69073000D01*
X51912000Y-68914250D01*
X51912000Y-68558442D01*
X52107690Y-68639500D01*
X52573250Y-68639500D01*
X52732000Y-68480750D01*
X52732000Y-67381500D01*
X52986000Y-67381500D01*
X52986000Y-68480750D01*
X53144750Y-68639500D01*
X53610310Y-68639500D01*
X53843699Y-68542827D01*
X54022327Y-68364198D01*
X54119000Y-68130809D01*
X54119000Y-67540250D01*
X53960250Y-67381500D01*
X52986000Y-67381500D01*
X52732000Y-67381500D01*
X52712000Y-67381500D01*
X52712000Y-67127500D01*
X52732000Y-67127500D01*
X52732000Y-67107500D01*
X52986000Y-67107500D01*
X52986000Y-67127500D01*
X53960250Y-67127500D01*
X54119000Y-66968750D01*
X54119000Y-66378191D01*
X54022327Y-66144802D01*
X53881090Y-66003564D01*
X53935441Y-65968590D01*
X54080431Y-65756390D01*
X54131440Y-65504500D01*
X54131440Y-64004500D01*
X54087162Y-63769183D01*
X53948090Y-63553059D01*
X53735890Y-63408069D01*
X53484000Y-63357060D01*
X53363000Y-63357060D01*
X53363000Y-63052932D01*
X53526000Y-63085940D01*
X55026000Y-63085940D01*
X55261317Y-63041662D01*
X55477441Y-62902590D01*
X55523969Y-62834494D01*
X55666302Y-62976827D01*
X55899691Y-63073500D01*
X56490250Y-63073500D01*
X56649000Y-62914750D01*
X56649000Y-61940500D01*
X56629000Y-61940500D01*
X56629000Y-61686500D01*
X56649000Y-61686500D01*
X56649000Y-61666500D01*
X56903000Y-61666500D01*
X56903000Y-61686500D01*
G36*
X42356410Y-44619941D02*
X42426211Y-44667634D01*
X42369059Y-44704410D01*
X42224069Y-44916610D01*
X42173060Y-45168500D01*
X42173060Y-46368500D01*
X42217338Y-46603817D01*
X42356410Y-46819941D01*
X42388000Y-46841526D01*
X42388000Y-46852319D01*
X42287629Y-46952515D01*
X42099215Y-47406266D01*
X42098786Y-47897579D01*
X42286408Y-48351657D01*
X42388000Y-48453427D01*
X42388000Y-48455025D01*
X42276569Y-48618110D01*
X42225560Y-48870000D01*
X42225560Y-49770000D01*
X42269838Y-50005317D01*
X42408910Y-50221441D01*
X42621110Y-50366431D01*
X42873000Y-50417440D01*
X43377534Y-50417440D01*
X43284673Y-50510302D01*
X43188000Y-50743691D01*
X43188000Y-51034250D01*
X43346750Y-51193000D01*
X44096000Y-51193000D01*
X44096000Y-50393750D01*
X44009988Y-50307738D01*
X44124441Y-50234090D01*
X44223633Y-50088917D01*
X44308910Y-50221441D01*
X44435686Y-50308064D01*
X44350000Y-50393750D01*
X44350000Y-51193000D01*
X45099250Y-51193000D01*
X45258000Y-51034250D01*
X45258000Y-50743691D01*
X45161327Y-50510302D01*
X45068466Y-50417440D01*
X45573000Y-50417440D01*
X45808317Y-50373162D01*
X46024441Y-50234090D01*
X46169431Y-50021890D01*
X46220440Y-49770000D01*
X46220440Y-49716704D01*
X46288397Y-50058346D01*
X46534434Y-50426566D01*
X46902654Y-50672603D01*
X47191474Y-50730053D01*
X47470708Y-51009287D01*
X47470710Y-51009290D01*
X47745653Y-51193000D01*
X47757825Y-51201133D01*
X47862194Y-51221894D01*
X47860000Y-51227190D01*
X47860000Y-51367750D01*
X48018750Y-51526500D01*
X49143000Y-51526500D01*
X49143000Y-51506500D01*
X49397000Y-51506500D01*
X49397000Y-51526500D01*
X50521250Y-51526500D01*
X50680000Y-51367750D01*
X50680000Y-51227190D01*
X50590194Y-51010378D01*
X50641431Y-50935390D01*
X50692440Y-50683500D01*
X50692440Y-50294020D01*
X51847000Y-51448579D01*
X51847000Y-52351995D01*
X51846999Y-52352000D01*
X51903190Y-52634484D01*
X51914367Y-52690675D01*
X52075191Y-52931367D01*
X52106210Y-52977790D01*
X52545500Y-53417079D01*
X52545500Y-56620921D01*
X51291486Y-57874935D01*
X51239592Y-57749343D01*
X50892485Y-57401629D01*
X50438734Y-57213215D01*
X49947421Y-57212786D01*
X49493343Y-57400408D01*
X49330467Y-57563000D01*
X48780579Y-57563000D01*
X48150790Y-56933210D01*
X48084303Y-56888785D01*
X47863675Y-56741367D01*
X47776763Y-56724079D01*
X47525000Y-56673999D01*
X47524995Y-56674000D01*
X44286505Y-56674000D01*
X44286500Y-56673999D01*
X44034737Y-56724079D01*
X43947825Y-56741367D01*
X43717145Y-56895501D01*
X43470421Y-56895286D01*
X43016343Y-57082908D01*
X42668629Y-57430015D01*
X42480215Y-57883766D01*
X42479786Y-58375079D01*
X42667408Y-58829157D01*
X43014515Y-59176871D01*
X43151759Y-59233860D01*
X43105059Y-59263910D01*
X42960069Y-59476110D01*
X42909060Y-59728000D01*
X42909060Y-60978000D01*
X42944066Y-61164040D01*
X42905699Y-61125673D01*
X42672310Y-61029000D01*
X42081750Y-61029000D01*
X41923000Y-61187750D01*
X41923000Y-62537000D01*
X41943000Y-62537000D01*
X41943000Y-62791000D01*
X41923000Y-62791000D01*
X41923000Y-64140250D01*
X42081750Y-64299000D01*
X42672310Y-64299000D01*
X42905699Y-64202327D01*
X42947660Y-64160366D01*
X43094110Y-64260431D01*
X43211000Y-64284102D01*
X43211000Y-67316560D01*
X42196000Y-67316560D01*
X41960683Y-67360838D01*
X41744559Y-67499910D01*
X41599569Y-67712110D01*
X41575898Y-67829000D01*
X40699632Y-67829000D01*
X40476940Y-67606308D01*
X40476940Y-66214000D01*
X40432662Y-65978683D01*
X40327018Y-65814507D01*
X40367827Y-65773698D01*
X40464500Y-65540309D01*
X40464500Y-64099750D01*
X40305752Y-63941002D01*
X40464500Y-63941002D01*
X40464500Y-63919469D01*
X40507673Y-64023698D01*
X40686301Y-64202327D01*
X40919690Y-64299000D01*
X41510250Y-64299000D01*
X41669000Y-64140250D01*
X41669000Y-62791000D01*
X41649000Y-62791000D01*
X41649000Y-62537000D01*
X41669000Y-62537000D01*
X41669000Y-61187750D01*
X41510250Y-61029000D01*
X40919690Y-61029000D01*
X40686301Y-61125673D01*
X40507673Y-61304302D01*
X40411000Y-61537691D01*
X40411000Y-61958531D01*
X40367827Y-61854302D01*
X40189199Y-61675673D01*
X39955810Y-61579000D01*
X39365250Y-61579000D01*
X39206500Y-61737750D01*
X39206500Y-63687000D01*
X39226500Y-63687000D01*
X39226500Y-63941000D01*
X39206500Y-63941000D01*
X39206500Y-63961000D01*
X38952500Y-63961000D01*
X38952500Y-63941000D01*
X38932500Y-63941000D01*
X38932500Y-63687000D01*
X38952500Y-63687000D01*
X38952500Y-61737750D01*
X38793750Y-61579000D01*
X38710000Y-61579000D01*
X38710000Y-55898579D01*
X39431786Y-55898579D01*
X39619408Y-56352657D01*
X39966515Y-56700371D01*
X40420266Y-56888785D01*
X40911579Y-56889214D01*
X41365657Y-56701592D01*
X41528533Y-56539000D01*
X48758926Y-56539000D01*
X48920015Y-56700371D01*
X49373766Y-56888785D01*
X49865079Y-56889214D01*
X50319157Y-56701592D01*
X50666871Y-56354485D01*
X50855285Y-55900734D01*
X50855535Y-55614555D01*
X51144657Y-55495092D01*
X51492371Y-55147985D01*
X51680785Y-54694234D01*
X51681214Y-54202921D01*
X51493592Y-53748843D01*
X51146485Y-53401129D01*
X50692734Y-53212715D01*
X50201421Y-53212286D01*
X49747343Y-53399908D01*
X49584467Y-53562500D01*
X44272079Y-53562500D01*
X43934126Y-53224546D01*
X43934214Y-53123421D01*
X43746592Y-52669343D01*
X43399485Y-52321629D01*
X42945734Y-52133215D01*
X42454421Y-52132786D01*
X42000343Y-52320408D01*
X41652629Y-52667515D01*
X41464215Y-53121266D01*
X41463786Y-53612579D01*
X41651408Y-54066657D01*
X41998515Y-54414371D01*
X42452266Y-54602785D01*
X42809518Y-54603097D01*
X42975421Y-54769000D01*
X41528574Y-54769000D01*
X41367485Y-54607629D01*
X40913734Y-54419215D01*
X40422421Y-54418786D01*
X39968343Y-54606408D01*
X39620629Y-54953515D01*
X39432215Y-55407266D01*
X39431786Y-55898579D01*
X38710000Y-55898579D01*
X38710000Y-51605750D01*
X43188000Y-51605750D01*
X43188000Y-51896309D01*
X43284673Y-52129698D01*
X43463301Y-52308327D01*
X43696690Y-52405000D01*
X43937250Y-52405000D01*
X44096000Y-52246250D01*
X44096000Y-51447000D01*
X44350000Y-51447000D01*
X44350000Y-52246250D01*
X44508750Y-52405000D01*
X44749310Y-52405000D01*
X44982699Y-52308327D01*
X45161327Y-52129698D01*
X45240213Y-51939250D01*
X47860000Y-51939250D01*
X47860000Y-52079810D01*
X47956673Y-52313199D01*
X48135302Y-52491827D01*
X48368691Y-52588500D01*
X48984250Y-52588500D01*
X49143000Y-52429750D01*
X49143000Y-51780500D01*
X49397000Y-51780500D01*
X49397000Y-52429750D01*
X49555750Y-52588500D01*
X50171309Y-52588500D01*
X50404698Y-52491827D01*
X50583327Y-52313199D01*
X50680000Y-52079810D01*
X50680000Y-51939250D01*
X50521250Y-51780500D01*
X49397000Y-51780500D01*
X49143000Y-51780500D01*
X48018750Y-51780500D01*
X47860000Y-51939250D01*
X45240213Y-51939250D01*
X45258000Y-51896309D01*
X45258000Y-51605750D01*
X45099250Y-51447000D01*
X44350000Y-51447000D01*
X44096000Y-51447000D01*
X43346750Y-51447000D01*
X43188000Y-51605750D01*
X38710000Y-51605750D01*
X38710000Y-45387063D01*
X39016353Y-45845554D01*
X39498122Y-46167461D01*
X40066407Y-46280500D01*
X40124593Y-46280500D01*
X40692878Y-46167461D01*
X41174647Y-45845554D01*
X41496554Y-45363785D01*
X41548638Y-45101942D01*
X42197079Y-44453500D01*
X42249308Y-44453500D01*
X42356410Y-44619941D01*
X42356410Y-44619941D01*
G37*
X42356410Y-44619941D02*
X42426211Y-44667634D01*
X42369059Y-44704410D01*
X42224069Y-44916610D01*
X42173060Y-45168500D01*
X42173060Y-46368500D01*
X42217338Y-46603817D01*
X42356410Y-46819941D01*
X42388000Y-46841526D01*
X42388000Y-46852319D01*
X42287629Y-46952515D01*
X42099215Y-47406266D01*
X42098786Y-47897579D01*
X42286408Y-48351657D01*
X42388000Y-48453427D01*
X42388000Y-48455025D01*
X42276569Y-48618110D01*
X42225560Y-48870000D01*
X42225560Y-49770000D01*
X42269838Y-50005317D01*
X42408910Y-50221441D01*
X42621110Y-50366431D01*
X42873000Y-50417440D01*
X43377534Y-50417440D01*
X43284673Y-50510302D01*
X43188000Y-50743691D01*
X43188000Y-51034250D01*
X43346750Y-51193000D01*
X44096000Y-51193000D01*
X44096000Y-50393750D01*
X44009988Y-50307738D01*
X44124441Y-50234090D01*
X44223633Y-50088917D01*
X44308910Y-50221441D01*
X44435686Y-50308064D01*
X44350000Y-50393750D01*
X44350000Y-51193000D01*
X45099250Y-51193000D01*
X45258000Y-51034250D01*
X45258000Y-50743691D01*
X45161327Y-50510302D01*
X45068466Y-50417440D01*
X45573000Y-50417440D01*
X45808317Y-50373162D01*
X46024441Y-50234090D01*
X46169431Y-50021890D01*
X46220440Y-49770000D01*
X46220440Y-49716704D01*
X46288397Y-50058346D01*
X46534434Y-50426566D01*
X46902654Y-50672603D01*
X47191474Y-50730053D01*
X47470708Y-51009287D01*
X47470710Y-51009290D01*
X47745653Y-51193000D01*
X47757825Y-51201133D01*
X47862194Y-51221894D01*
X47860000Y-51227190D01*
X47860000Y-51367750D01*
X48018750Y-51526500D01*
X49143000Y-51526500D01*
X49143000Y-51506500D01*
X49397000Y-51506500D01*
X49397000Y-51526500D01*
X50521250Y-51526500D01*
X50680000Y-51367750D01*
X50680000Y-51227190D01*
X50590194Y-51010378D01*
X50641431Y-50935390D01*
X50692440Y-50683500D01*
X50692440Y-50294020D01*
X51847000Y-51448579D01*
X51847000Y-52351995D01*
X51846999Y-52352000D01*
X51903190Y-52634484D01*
X51914367Y-52690675D01*
X52075191Y-52931367D01*
X52106210Y-52977790D01*
X52545500Y-53417079D01*
X52545500Y-56620921D01*
X51291486Y-57874935D01*
X51239592Y-57749343D01*
X50892485Y-57401629D01*
X50438734Y-57213215D01*
X49947421Y-57212786D01*
X49493343Y-57400408D01*
X49330467Y-57563000D01*
X48780579Y-57563000D01*
X48150790Y-56933210D01*
X48084303Y-56888785D01*
X47863675Y-56741367D01*
X47776763Y-56724079D01*
X47525000Y-56673999D01*
X47524995Y-56674000D01*
X44286505Y-56674000D01*
X44286500Y-56673999D01*
X44034737Y-56724079D01*
X43947825Y-56741367D01*
X43717145Y-56895501D01*
X43470421Y-56895286D01*
X43016343Y-57082908D01*
X42668629Y-57430015D01*
X42480215Y-57883766D01*
X42479786Y-58375079D01*
X42667408Y-58829157D01*
X43014515Y-59176871D01*
X43151759Y-59233860D01*
X43105059Y-59263910D01*
X42960069Y-59476110D01*
X42909060Y-59728000D01*
X42909060Y-60978000D01*
X42944066Y-61164040D01*
X42905699Y-61125673D01*
X42672310Y-61029000D01*
X42081750Y-61029000D01*
X41923000Y-61187750D01*
X41923000Y-62537000D01*
X41943000Y-62537000D01*
X41943000Y-62791000D01*
X41923000Y-62791000D01*
X41923000Y-64140250D01*
X42081750Y-64299000D01*
X42672310Y-64299000D01*
X42905699Y-64202327D01*
X42947660Y-64160366D01*
X43094110Y-64260431D01*
X43211000Y-64284102D01*
X43211000Y-67316560D01*
X42196000Y-67316560D01*
X41960683Y-67360838D01*
X41744559Y-67499910D01*
X41599569Y-67712110D01*
X41575898Y-67829000D01*
X40699632Y-67829000D01*
X40476940Y-67606308D01*
X40476940Y-66214000D01*
X40432662Y-65978683D01*
X40327018Y-65814507D01*
X40367827Y-65773698D01*
X40464500Y-65540309D01*
X40464500Y-64099750D01*
X40305752Y-63941002D01*
X40464500Y-63941002D01*
X40464500Y-63919469D01*
X40507673Y-64023698D01*
X40686301Y-64202327D01*
X40919690Y-64299000D01*
X41510250Y-64299000D01*
X41669000Y-64140250D01*
X41669000Y-62791000D01*
X41649000Y-62791000D01*
X41649000Y-62537000D01*
X41669000Y-62537000D01*
X41669000Y-61187750D01*
X41510250Y-61029000D01*
X40919690Y-61029000D01*
X40686301Y-61125673D01*
X40507673Y-61304302D01*
X40411000Y-61537691D01*
X40411000Y-61958531D01*
X40367827Y-61854302D01*
X40189199Y-61675673D01*
X39955810Y-61579000D01*
X39365250Y-61579000D01*
X39206500Y-61737750D01*
X39206500Y-63687000D01*
X39226500Y-63687000D01*
X39226500Y-63941000D01*
X39206500Y-63941000D01*
X39206500Y-63961000D01*
X38952500Y-63961000D01*
X38952500Y-63941000D01*
X38932500Y-63941000D01*
X38932500Y-63687000D01*
X38952500Y-63687000D01*
X38952500Y-61737750D01*
X38793750Y-61579000D01*
X38710000Y-61579000D01*
X38710000Y-55898579D01*
X39431786Y-55898579D01*
X39619408Y-56352657D01*
X39966515Y-56700371D01*
X40420266Y-56888785D01*
X40911579Y-56889214D01*
X41365657Y-56701592D01*
X41528533Y-56539000D01*
X48758926Y-56539000D01*
X48920015Y-56700371D01*
X49373766Y-56888785D01*
X49865079Y-56889214D01*
X50319157Y-56701592D01*
X50666871Y-56354485D01*
X50855285Y-55900734D01*
X50855535Y-55614555D01*
X51144657Y-55495092D01*
X51492371Y-55147985D01*
X51680785Y-54694234D01*
X51681214Y-54202921D01*
X51493592Y-53748843D01*
X51146485Y-53401129D01*
X50692734Y-53212715D01*
X50201421Y-53212286D01*
X49747343Y-53399908D01*
X49584467Y-53562500D01*
X44272079Y-53562500D01*
X43934126Y-53224546D01*
X43934214Y-53123421D01*
X43746592Y-52669343D01*
X43399485Y-52321629D01*
X42945734Y-52133215D01*
X42454421Y-52132786D01*
X42000343Y-52320408D01*
X41652629Y-52667515D01*
X41464215Y-53121266D01*
X41463786Y-53612579D01*
X41651408Y-54066657D01*
X41998515Y-54414371D01*
X42452266Y-54602785D01*
X42809518Y-54603097D01*
X42975421Y-54769000D01*
X41528574Y-54769000D01*
X41367485Y-54607629D01*
X40913734Y-54419215D01*
X40422421Y-54418786D01*
X39968343Y-54606408D01*
X39620629Y-54953515D01*
X39432215Y-55407266D01*
X39431786Y-55898579D01*
X38710000Y-55898579D01*
X38710000Y-51605750D01*
X43188000Y-51605750D01*
X43188000Y-51896309D01*
X43284673Y-52129698D01*
X43463301Y-52308327D01*
X43696690Y-52405000D01*
X43937250Y-52405000D01*
X44096000Y-52246250D01*
X44096000Y-51447000D01*
X44350000Y-51447000D01*
X44350000Y-52246250D01*
X44508750Y-52405000D01*
X44749310Y-52405000D01*
X44982699Y-52308327D01*
X45161327Y-52129698D01*
X45240213Y-51939250D01*
X47860000Y-51939250D01*
X47860000Y-52079810D01*
X47956673Y-52313199D01*
X48135302Y-52491827D01*
X48368691Y-52588500D01*
X48984250Y-52588500D01*
X49143000Y-52429750D01*
X49143000Y-51780500D01*
X49397000Y-51780500D01*
X49397000Y-52429750D01*
X49555750Y-52588500D01*
X50171309Y-52588500D01*
X50404698Y-52491827D01*
X50583327Y-52313199D01*
X50680000Y-52079810D01*
X50680000Y-51939250D01*
X50521250Y-51780500D01*
X49397000Y-51780500D01*
X49143000Y-51780500D01*
X48018750Y-51780500D01*
X47860000Y-51939250D01*
X45240213Y-51939250D01*
X45258000Y-51896309D01*
X45258000Y-51605750D01*
X45099250Y-51447000D01*
X44350000Y-51447000D01*
X44096000Y-51447000D01*
X43346750Y-51447000D01*
X43188000Y-51605750D01*
X38710000Y-51605750D01*
X38710000Y-45387063D01*
X39016353Y-45845554D01*
X39498122Y-46167461D01*
X40066407Y-46280500D01*
X40124593Y-46280500D01*
X40692878Y-46167461D01*
X41174647Y-45845554D01*
X41496554Y-45363785D01*
X41548638Y-45101942D01*
X42197079Y-44453500D01*
X42249308Y-44453500D01*
X42356410Y-44619941D01*
G36*
X47788208Y-59073787D02*
X47788210Y-59073790D01*
X48075325Y-59265633D01*
X48130253Y-59276559D01*
X48414000Y-59333001D01*
X48414005Y-59333000D01*
X49330426Y-59333000D01*
X49491515Y-59494371D01*
X49619080Y-59547341D01*
X48191500Y-60974920D01*
X48191500Y-60638750D01*
X48032750Y-60480000D01*
X46933500Y-60480000D01*
X46933500Y-60500000D01*
X46679500Y-60500000D01*
X46679500Y-60480000D01*
X46659500Y-60480000D01*
X46659500Y-60226000D01*
X46679500Y-60226000D01*
X46679500Y-59251750D01*
X46933500Y-59251750D01*
X46933500Y-60226000D01*
X48032750Y-60226000D01*
X48191500Y-60067250D01*
X48191500Y-59601690D01*
X48094827Y-59368301D01*
X47916198Y-59189673D01*
X47682809Y-59093000D01*
X47092250Y-59093000D01*
X46933500Y-59251750D01*
X46679500Y-59251750D01*
X46520750Y-59093000D01*
X46223380Y-59093000D01*
X46283285Y-58948734D01*
X46283714Y-58457421D01*
X46278169Y-58444000D01*
X47158420Y-58444000D01*
X47788208Y-59073787D01*
X47788208Y-59073787D01*
G37*
X47788208Y-59073787D02*
X47788210Y-59073790D01*
X48075325Y-59265633D01*
X48130253Y-59276559D01*
X48414000Y-59333001D01*
X48414005Y-59333000D01*
X49330426Y-59333000D01*
X49491515Y-59494371D01*
X49619080Y-59547341D01*
X48191500Y-60974920D01*
X48191500Y-60638750D01*
X48032750Y-60480000D01*
X46933500Y-60480000D01*
X46933500Y-60500000D01*
X46679500Y-60500000D01*
X46679500Y-60480000D01*
X46659500Y-60480000D01*
X46659500Y-60226000D01*
X46679500Y-60226000D01*
X46679500Y-59251750D01*
X46933500Y-59251750D01*
X46933500Y-60226000D01*
X48032750Y-60226000D01*
X48191500Y-60067250D01*
X48191500Y-59601690D01*
X48094827Y-59368301D01*
X47916198Y-59189673D01*
X47682809Y-59093000D01*
X47092250Y-59093000D01*
X46933500Y-59251750D01*
X46679500Y-59251750D01*
X46520750Y-59093000D01*
X46223380Y-59093000D01*
X46283285Y-58948734D01*
X46283714Y-58457421D01*
X46278169Y-58444000D01*
X47158420Y-58444000D01*
X47788208Y-59073787D01*
G36*
X57177000Y-59484500D02*
X57197000Y-59484500D01*
X57197000Y-59738500D01*
X57177000Y-59738500D01*
X57177000Y-59758500D01*
X56923000Y-59758500D01*
X56923000Y-59738500D01*
X56903000Y-59738500D01*
X56903000Y-59484500D01*
X56923000Y-59484500D01*
X56923000Y-59464500D01*
X57177000Y-59464500D01*
X57177000Y-59484500D01*
X57177000Y-59484500D01*
G37*
X57177000Y-59484500D02*
X57197000Y-59484500D01*
X57197000Y-59738500D01*
X57177000Y-59738500D01*
X57177000Y-59758500D01*
X56923000Y-59758500D01*
X56923000Y-59738500D01*
X56903000Y-59738500D01*
X56903000Y-59484500D01*
X56923000Y-59484500D01*
X56923000Y-59464500D01*
X57177000Y-59464500D01*
X57177000Y-59484500D01*
G36*
X45937500Y-41833564D02*
X45801290Y-41629710D01*
X45801287Y-41629708D01*
X45293290Y-41121710D01*
X45250487Y-41093110D01*
X45006175Y-40929867D01*
X44949984Y-40918690D01*
X44667500Y-40862499D01*
X44667495Y-40862500D01*
X41619500Y-40862500D01*
X41499948Y-40886281D01*
X41580500Y-40691810D01*
X41580500Y-40001250D01*
X41421750Y-39842500D01*
X40222500Y-39842500D01*
X40222500Y-39862500D01*
X39968500Y-39862500D01*
X39968500Y-39842500D01*
X39948500Y-39842500D01*
X39948500Y-39588500D01*
X39968500Y-39588500D01*
X39968500Y-38389250D01*
X40222500Y-38389250D01*
X40222500Y-39588500D01*
X41421750Y-39588500D01*
X41580500Y-39429750D01*
X41580500Y-38739190D01*
X41483827Y-38505801D01*
X41305198Y-38327173D01*
X41071809Y-38230500D01*
X40381250Y-38230500D01*
X40222500Y-38389250D01*
X39968500Y-38389250D01*
X39809750Y-38230500D01*
X39119191Y-38230500D01*
X38885802Y-38327173D01*
X38710000Y-38502974D01*
X38710000Y-34442619D01*
X39764613Y-34442619D01*
X40104155Y-35264372D01*
X40732321Y-35893636D01*
X41553481Y-36234611D01*
X42442619Y-36235387D01*
X43264372Y-35895845D01*
X43893636Y-35267679D01*
X44234611Y-34446519D01*
X44235387Y-33557381D01*
X43895845Y-32735628D01*
X43267679Y-32106364D01*
X42446519Y-31765389D01*
X41557381Y-31764613D01*
X40735628Y-32104155D01*
X40106364Y-32732321D01*
X39765389Y-33553481D01*
X39764613Y-34442619D01*
X38710000Y-34442619D01*
X38710000Y-30710000D01*
X45937500Y-30710000D01*
X45937500Y-41833564D01*
X45937500Y-41833564D01*
G37*
X45937500Y-41833564D02*
X45801290Y-41629710D01*
X45801287Y-41629708D01*
X45293290Y-41121710D01*
X45250487Y-41093110D01*
X45006175Y-40929867D01*
X44949984Y-40918690D01*
X44667500Y-40862499D01*
X44667495Y-40862500D01*
X41619500Y-40862500D01*
X41499948Y-40886281D01*
X41580500Y-40691810D01*
X41580500Y-40001250D01*
X41421750Y-39842500D01*
X40222500Y-39842500D01*
X40222500Y-39862500D01*
X39968500Y-39862500D01*
X39968500Y-39842500D01*
X39948500Y-39842500D01*
X39948500Y-39588500D01*
X39968500Y-39588500D01*
X39968500Y-38389250D01*
X40222500Y-38389250D01*
X40222500Y-39588500D01*
X41421750Y-39588500D01*
X41580500Y-39429750D01*
X41580500Y-38739190D01*
X41483827Y-38505801D01*
X41305198Y-38327173D01*
X41071809Y-38230500D01*
X40381250Y-38230500D01*
X40222500Y-38389250D01*
X39968500Y-38389250D01*
X39809750Y-38230500D01*
X39119191Y-38230500D01*
X38885802Y-38327173D01*
X38710000Y-38502974D01*
X38710000Y-34442619D01*
X39764613Y-34442619D01*
X40104155Y-35264372D01*
X40732321Y-35893636D01*
X41553481Y-36234611D01*
X42442619Y-36235387D01*
X43264372Y-35895845D01*
X43893636Y-35267679D01*
X44234611Y-34446519D01*
X44235387Y-33557381D01*
X43895845Y-32735628D01*
X43267679Y-32106364D01*
X42446519Y-31765389D01*
X41557381Y-31764613D01*
X40735628Y-32104155D01*
X40106364Y-32732321D01*
X39765389Y-33553481D01*
X39764613Y-34442619D01*
X38710000Y-34442619D01*
X38710000Y-30710000D01*
X45937500Y-30710000D01*
X45937500Y-41833564D01*
M02*
