%FSLAX45Y45*%
G04 Gerber Fmt 4.5, Leading zero omitted, Abs format (unit mm)*
G04 Created by KiCad (PCBNEW 4.0.7) date Mon Jan 29 08:21:49 2018*
%MOMM*%
%LPD*%
G01*
G04 APERTURE LIST*
%ADD10C,0.127000*%
%ADD11C,0.150000*%
%ADD12C,0.200000*%
%ADD13C,0.300000*%
G04 APERTURE END LIST*
D10*
D11*
X9200000Y-8400000D02*
X9200000Y-8200000D01*
X3800000Y-8400000D02*
X9200000Y-8400000D01*
X3800000Y-8200000D02*
X3800000Y-8400000D01*
X9200000Y-3000000D02*
X9200000Y-8200000D01*
X8200000Y-3000000D02*
X9200000Y-3000000D01*
X3800000Y-8200000D02*
X3800000Y-3000000D01*
X3800000Y-3000000D02*
X8200000Y-3000000D01*
D12*
X4040000Y-3240000D02*
X4360000Y-3560000D01*
X4360000Y-3240000D02*
X4040000Y-3560000D01*
X4040000Y-7690000D02*
X4360000Y-8010000D01*
X4360000Y-7690000D02*
X4040000Y-8010000D01*
X7646300Y-3227250D02*
X7966300Y-3547250D01*
X7966300Y-3227250D02*
X7646300Y-3547250D01*
X7646300Y-7677250D02*
X7966300Y-7997250D01*
X7966300Y-7677250D02*
X7646300Y-7997250D01*
D13*
X4063928Y-8873214D02*
X4063928Y-8573214D01*
X4135357Y-8573214D01*
X4178214Y-8587500D01*
X4206786Y-8616072D01*
X4221071Y-8644643D01*
X4235357Y-8701786D01*
X4235357Y-8744643D01*
X4221071Y-8801786D01*
X4206786Y-8830357D01*
X4178214Y-8858929D01*
X4135357Y-8873214D01*
X4063928Y-8873214D01*
X4363929Y-8873214D02*
X4363929Y-8673214D01*
X4363929Y-8730357D02*
X4378214Y-8701786D01*
X4392500Y-8687500D01*
X4421071Y-8673214D01*
X4449643Y-8673214D01*
X4549643Y-8873214D02*
X4549643Y-8673214D01*
X4549643Y-8573214D02*
X4535357Y-8587500D01*
X4549643Y-8601786D01*
X4563929Y-8587500D01*
X4549643Y-8573214D01*
X4549643Y-8601786D01*
X4735357Y-8873214D02*
X4706786Y-8858929D01*
X4692500Y-8830357D01*
X4692500Y-8573214D01*
X4892500Y-8873214D02*
X4863929Y-8858929D01*
X4849643Y-8830357D01*
X4849643Y-8573214D01*
X5235357Y-8873214D02*
X5235357Y-8573214D01*
X5335357Y-8787500D01*
X5435357Y-8573214D01*
X5435357Y-8873214D01*
X5706786Y-8873214D02*
X5706786Y-8716072D01*
X5692500Y-8687500D01*
X5663928Y-8673214D01*
X5606786Y-8673214D01*
X5578214Y-8687500D01*
X5706786Y-8858929D02*
X5678214Y-8873214D01*
X5606786Y-8873214D01*
X5578214Y-8858929D01*
X5563929Y-8830357D01*
X5563929Y-8801786D01*
X5578214Y-8773214D01*
X5606786Y-8758929D01*
X5678214Y-8758929D01*
X5706786Y-8744643D01*
X5849643Y-8673214D02*
X5849643Y-8973214D01*
X5849643Y-8687500D02*
X5878214Y-8673214D01*
X5935357Y-8673214D01*
X5963928Y-8687500D01*
X5978214Y-8701786D01*
X5992500Y-8730357D01*
X5992500Y-8816072D01*
X5978214Y-8844643D01*
X5963928Y-8858929D01*
X5935357Y-8873214D01*
X5878214Y-8873214D01*
X5849643Y-8858929D01*
X6121071Y-8844643D02*
X6135357Y-8858929D01*
X6121071Y-8873214D01*
X6106786Y-8858929D01*
X6121071Y-8844643D01*
X6121071Y-8873214D01*
X6121071Y-8687500D02*
X6135357Y-8701786D01*
X6121071Y-8716072D01*
X6106786Y-8701786D01*
X6121071Y-8687500D01*
X6121071Y-8716072D01*
X3472500Y-9207500D02*
X3792500Y-9527500D01*
X3792500Y-9207500D02*
X3472500Y-9527500D01*
X4035357Y-9203214D02*
X4221071Y-9203214D01*
X4121071Y-9317500D01*
X4163928Y-9317500D01*
X4192500Y-9331786D01*
X4206786Y-9346072D01*
X4221071Y-9374643D01*
X4221071Y-9446072D01*
X4206786Y-9474643D01*
X4192500Y-9488929D01*
X4163928Y-9503214D01*
X4078214Y-9503214D01*
X4049643Y-9488929D01*
X4035357Y-9474643D01*
X4349643Y-9474643D02*
X4363929Y-9488929D01*
X4349643Y-9503214D01*
X4335357Y-9488929D01*
X4349643Y-9474643D01*
X4349643Y-9503214D01*
X4478214Y-9231786D02*
X4492500Y-9217500D01*
X4521071Y-9203214D01*
X4592500Y-9203214D01*
X4621071Y-9217500D01*
X4635357Y-9231786D01*
X4649643Y-9260357D01*
X4649643Y-9288929D01*
X4635357Y-9331786D01*
X4463928Y-9503214D01*
X4649643Y-9503214D01*
X4835357Y-9203214D02*
X4863929Y-9203214D01*
X4892500Y-9217500D01*
X4906786Y-9231786D01*
X4921071Y-9260357D01*
X4935357Y-9317500D01*
X4935357Y-9388929D01*
X4921071Y-9446072D01*
X4906786Y-9474643D01*
X4892500Y-9488929D01*
X4863929Y-9503214D01*
X4835357Y-9503214D01*
X4806786Y-9488929D01*
X4792500Y-9474643D01*
X4778214Y-9446072D01*
X4763929Y-9388929D01*
X4763929Y-9317500D01*
X4778214Y-9260357D01*
X4792500Y-9231786D01*
X4806786Y-9217500D01*
X4835357Y-9203214D01*
X5063929Y-9503214D02*
X5063929Y-9303214D01*
X5063929Y-9331786D02*
X5078214Y-9317500D01*
X5106786Y-9303214D01*
X5149643Y-9303214D01*
X5178214Y-9317500D01*
X5192500Y-9346072D01*
X5192500Y-9503214D01*
X5192500Y-9346072D02*
X5206786Y-9317500D01*
X5235357Y-9303214D01*
X5278214Y-9303214D01*
X5306786Y-9317500D01*
X5321071Y-9346072D01*
X5321071Y-9503214D01*
X5463929Y-9503214D02*
X5463929Y-9303214D01*
X5463929Y-9331786D02*
X5478214Y-9317500D01*
X5506786Y-9303214D01*
X5549643Y-9303214D01*
X5578214Y-9317500D01*
X5592500Y-9346072D01*
X5592500Y-9503214D01*
X5592500Y-9346072D02*
X5606786Y-9317500D01*
X5635357Y-9303214D01*
X5678214Y-9303214D01*
X5706786Y-9317500D01*
X5721071Y-9346072D01*
X5721071Y-9503214D01*
X6306786Y-9188929D02*
X6049643Y-9574643D01*
X6692500Y-9203214D02*
X6721071Y-9203214D01*
X6749643Y-9217500D01*
X6763928Y-9231786D01*
X6778214Y-9260357D01*
X6792500Y-9317500D01*
X6792500Y-9388929D01*
X6778214Y-9446072D01*
X6763928Y-9474643D01*
X6749643Y-9488929D01*
X6721071Y-9503214D01*
X6692500Y-9503214D01*
X6663928Y-9488929D01*
X6649643Y-9474643D01*
X6635357Y-9446072D01*
X6621071Y-9388929D01*
X6621071Y-9317500D01*
X6635357Y-9260357D01*
X6649643Y-9231786D01*
X6663928Y-9217500D01*
X6692500Y-9203214D01*
X6921071Y-9474643D02*
X6935357Y-9488929D01*
X6921071Y-9503214D01*
X6906786Y-9488929D01*
X6921071Y-9474643D01*
X6921071Y-9503214D01*
X7221071Y-9503214D02*
X7049643Y-9503214D01*
X7135357Y-9503214D02*
X7135357Y-9203214D01*
X7106785Y-9246072D01*
X7078214Y-9274643D01*
X7049643Y-9288929D01*
X7335357Y-9231786D02*
X7349643Y-9217500D01*
X7378214Y-9203214D01*
X7449643Y-9203214D01*
X7478214Y-9217500D01*
X7492500Y-9231786D01*
X7506785Y-9260357D01*
X7506785Y-9288929D01*
X7492500Y-9331786D01*
X7321071Y-9503214D01*
X7506785Y-9503214D01*
X7763928Y-9203214D02*
X7706785Y-9203214D01*
X7678214Y-9217500D01*
X7663928Y-9231786D01*
X7635357Y-9274643D01*
X7621071Y-9331786D01*
X7621071Y-9446072D01*
X7635357Y-9474643D01*
X7649643Y-9488929D01*
X7678214Y-9503214D01*
X7735357Y-9503214D01*
X7763928Y-9488929D01*
X7778214Y-9474643D01*
X7792500Y-9446072D01*
X7792500Y-9374643D01*
X7778214Y-9346072D01*
X7763928Y-9331786D01*
X7735357Y-9317500D01*
X7678214Y-9317500D01*
X7649643Y-9331786D01*
X7635357Y-9346072D01*
X7621071Y-9374643D01*
X7906786Y-9203214D02*
X7906786Y-9260357D01*
X8021071Y-9203214D02*
X8021071Y-9260357D01*
X8463928Y-9617500D02*
X8449643Y-9603214D01*
X8421071Y-9560357D01*
X8406786Y-9531786D01*
X8392500Y-9488929D01*
X8378214Y-9417500D01*
X8378214Y-9360357D01*
X8392500Y-9288929D01*
X8406786Y-9246072D01*
X8421071Y-9217500D01*
X8449643Y-9174643D01*
X8463928Y-9160357D01*
X8706786Y-9303214D02*
X8706786Y-9503214D01*
X8635357Y-9188929D02*
X8563928Y-9403214D01*
X8749643Y-9403214D01*
X9092500Y-9503214D02*
X9092500Y-9203214D01*
X9221071Y-9503214D02*
X9221071Y-9346072D01*
X9206786Y-9317500D01*
X9178214Y-9303214D01*
X9135357Y-9303214D01*
X9106786Y-9317500D01*
X9092500Y-9331786D01*
X9406786Y-9503214D02*
X9378214Y-9488929D01*
X9363928Y-9474643D01*
X9349643Y-9446072D01*
X9349643Y-9360357D01*
X9363928Y-9331786D01*
X9378214Y-9317500D01*
X9406786Y-9303214D01*
X9449643Y-9303214D01*
X9478214Y-9317500D01*
X9492500Y-9331786D01*
X9506786Y-9360357D01*
X9506786Y-9446072D01*
X9492500Y-9474643D01*
X9478214Y-9488929D01*
X9449643Y-9503214D01*
X9406786Y-9503214D01*
X9678214Y-9503214D02*
X9649643Y-9488929D01*
X9635357Y-9460357D01*
X9635357Y-9203214D01*
X9906786Y-9488929D02*
X9878214Y-9503214D01*
X9821071Y-9503214D01*
X9792500Y-9488929D01*
X9778214Y-9460357D01*
X9778214Y-9346072D01*
X9792500Y-9317500D01*
X9821071Y-9303214D01*
X9878214Y-9303214D01*
X9906786Y-9317500D01*
X9921071Y-9346072D01*
X9921071Y-9374643D01*
X9778214Y-9403214D01*
X10035357Y-9488929D02*
X10063929Y-9503214D01*
X10121071Y-9503214D01*
X10149643Y-9488929D01*
X10163929Y-9460357D01*
X10163929Y-9446072D01*
X10149643Y-9417500D01*
X10121071Y-9403214D01*
X10078214Y-9403214D01*
X10049643Y-9388929D01*
X10035357Y-9360357D01*
X10035357Y-9346072D01*
X10049643Y-9317500D01*
X10078214Y-9303214D01*
X10121071Y-9303214D01*
X10149643Y-9317500D01*
X10263928Y-9617500D02*
X10278214Y-9603214D01*
X10306786Y-9560357D01*
X10321071Y-9531786D01*
X10335357Y-9488929D01*
X10349643Y-9417500D01*
X10349643Y-9360357D01*
X10335357Y-9288929D01*
X10321071Y-9246072D01*
X10306786Y-9217500D01*
X10278214Y-9174643D01*
X10263928Y-9160357D01*
X10806786Y-9617500D02*
X10792500Y-9603214D01*
X10763928Y-9560357D01*
X10749643Y-9531786D01*
X10735357Y-9488929D01*
X10721071Y-9417500D01*
X10721071Y-9360357D01*
X10735357Y-9288929D01*
X10749643Y-9246072D01*
X10763928Y-9217500D01*
X10792500Y-9174643D01*
X10806786Y-9160357D01*
X10921071Y-9303214D02*
X10921071Y-9503214D01*
X10921071Y-9331786D02*
X10935357Y-9317500D01*
X10963928Y-9303214D01*
X11006786Y-9303214D01*
X11035357Y-9317500D01*
X11049643Y-9346072D01*
X11049643Y-9503214D01*
X11235357Y-9503214D02*
X11206786Y-9488929D01*
X11192500Y-9474643D01*
X11178214Y-9446072D01*
X11178214Y-9360357D01*
X11192500Y-9331786D01*
X11206786Y-9317500D01*
X11235357Y-9303214D01*
X11278214Y-9303214D01*
X11306786Y-9317500D01*
X11321071Y-9331786D01*
X11335357Y-9360357D01*
X11335357Y-9446072D01*
X11321071Y-9474643D01*
X11306786Y-9488929D01*
X11278214Y-9503214D01*
X11235357Y-9503214D01*
X11421071Y-9303214D02*
X11535357Y-9303214D01*
X11463928Y-9203214D02*
X11463928Y-9460357D01*
X11478214Y-9488929D01*
X11506786Y-9503214D01*
X11535357Y-9503214D01*
X11863928Y-9303214D02*
X11863928Y-9603214D01*
X11863928Y-9317500D02*
X11892500Y-9303214D01*
X11949643Y-9303214D01*
X11978214Y-9317500D01*
X11992500Y-9331786D01*
X12006786Y-9360357D01*
X12006786Y-9446072D01*
X11992500Y-9474643D01*
X11978214Y-9488929D01*
X11949643Y-9503214D01*
X11892500Y-9503214D01*
X11863928Y-9488929D01*
X12178214Y-9503214D02*
X12149643Y-9488929D01*
X12135357Y-9460357D01*
X12135357Y-9203214D01*
X12421071Y-9503214D02*
X12421071Y-9346072D01*
X12406786Y-9317500D01*
X12378214Y-9303214D01*
X12321071Y-9303214D01*
X12292500Y-9317500D01*
X12421071Y-9488929D02*
X12392500Y-9503214D01*
X12321071Y-9503214D01*
X12292500Y-9488929D01*
X12278214Y-9460357D01*
X12278214Y-9431786D01*
X12292500Y-9403214D01*
X12321071Y-9388929D01*
X12392500Y-9388929D01*
X12421071Y-9374643D01*
X12521071Y-9303214D02*
X12635357Y-9303214D01*
X12563929Y-9203214D02*
X12563929Y-9460357D01*
X12578214Y-9488929D01*
X12606786Y-9503214D01*
X12635357Y-9503214D01*
X12849643Y-9488929D02*
X12821071Y-9503214D01*
X12763929Y-9503214D01*
X12735357Y-9488929D01*
X12721071Y-9460357D01*
X12721071Y-9346072D01*
X12735357Y-9317500D01*
X12763929Y-9303214D01*
X12821071Y-9303214D01*
X12849643Y-9317500D01*
X12863929Y-9346072D01*
X12863929Y-9374643D01*
X12721071Y-9403214D01*
X13121071Y-9503214D02*
X13121071Y-9203214D01*
X13121071Y-9488929D02*
X13092500Y-9503214D01*
X13035357Y-9503214D01*
X13006786Y-9488929D01*
X12992500Y-9474643D01*
X12978214Y-9446072D01*
X12978214Y-9360357D01*
X12992500Y-9331786D01*
X13006786Y-9317500D01*
X13035357Y-9303214D01*
X13092500Y-9303214D01*
X13121071Y-9317500D01*
X13235357Y-9617500D02*
X13249643Y-9603214D01*
X13278214Y-9560357D01*
X13292500Y-9531786D01*
X13306786Y-9488929D01*
X13321071Y-9417500D01*
X13321071Y-9360357D01*
X13306786Y-9288929D01*
X13292500Y-9246072D01*
X13278214Y-9217500D01*
X13249643Y-9174643D01*
X13235357Y-9160357D01*
M02*
