999
dxfrw 0.6.3
  0
SECTION
  2
HEADER
  9
$ACADVER
  1
AC1021
  9
$DWGCODEPAGE
  3
ANSI_1252
  9
$INSBASE
 10
0
 20
0
 30
0
  9
$EXTMIN
 10
-17.372723509308
 20
-58.75526393678792
 30
0
  9
$EXTMAX
 10
291.0871412874057
 20
45.33044817137533
 30
0
  9
$LIMMIN
 10
0
 20
0
  9
$LIMMAX
 10
420
 20
297
  9
$ORTHOMODE
 70
    0
  9
$REGENMODE
 70
    1
  9
$FILLMODE
 70
    1
  9
$QTEXTMODE
 70
    0
  9
$MIRRTEXT
 70
    0
  9
$LTSCALE
 40
1
  9
$ATTMODE
 70
    0
  9
$TEXTSIZE
 40
2.5
  9
$TRACEWID
 40
15.68
  9
$TEXTSTYLE
  7
STANDARD
  9
$CLAYER
  8
ray
  9
$CELTYPE
  6
BYLAYER
  9
$CECOLOR
 62
  256
  9
$CELTSCALE
 40
1
  9
$DISPSILH
 70
    0
  9
$DIMSCALE
 40
1
  9
$DIMASZ
 40
4
  9
$DIMEXO
 40
0.625
  9
$DIMDLI
 40
3.75
  9
$DIMRND
 40
0
  9
$DIMDLE
 40
0
  9
$DIMEXE
 40
1.25
  9
$DIMTP
 40
0
  9
$DIMTM
 40
0
  9
$DIMTXT
 40
4
  9
$DIMCEN
 40
2.5
  9
$DIMTSZ
 40
0
  9
$DIMTOL
 70
    0
  9
$DIMLIM
 70
    0
  9
$DIMTIH
 70
    0
  9
$DIMTOH
 70
    0
  9
$DIMSE1
 70
    0
  9
$DIMSE2
 70
    0
  9
$DIMTAD
 70
    1
  9
$DIMZIN
 70
    1
  9
$DIMBLK
  1

  9
$DIMASO
 70
    1
  9
$DIMSHO
 70
    1
  9
$DIMPOST
  1

  9
$DIMAPOST
  1

  9
$DIMALT
 70
    0
  9
$DIMALTD
 70
    3
  9
$DIMALTF
 40
0.03937
  9
$DIMLFAC
 40
1
  9
$DIMTOFL
 70
    1
  9
$DIMTVP
 40
0
  9
$DIMTIX
 70
    0
  9
$DIMSOXD
 70
    0
  9
$DIMSAH
 70
    0
  9
$DIMBLK1
  1

  9
$DIMBLK2
  1

  9
$DIMSTYLE
  2
Standard
  9
$DIMCLRD
 70
    0
  9
$DIMCLRE
 70
    0
  9
$DIMCLRT
 70
    0
  9
$DIMTFAC
 40
1
  9
$DIMGAP
 40
0.625
  9
$DIMJUST
 70
    0
  9
$DIMSD1
 70
    0
  9
$DIMSD2
 70
    0
  9
$DIMTOLJ
 70
    0
  9
$DIMTZIN
 70
    8
  9
$DIMALTZ
 70
    0
  9
$DIMALTTZ
 70
    0
  9
$DIMUPT
 70
    0
  9
$DIMDEC
 70
    0
  9
$DIMTDEC
 70
    2
  9
$DIMALTU
 70
    2
  9
$DIMALTTD
 70
    3
  9
$DIMTXSTY
  7
standard
  9
$DIMAUNIT
 70
    0
  9
$DIMADEC
 70
    0
  9
$DIMALTRND
 40
0
  9
$DIMAZIN
 70
    0
  9
$DIMDSEP
 70
    0
  9
$DIMATFIT
 70
    3
  9
$DIMFRAC
 70
    0
  9
$DIMLDRBLK
  1
STANDARD
  9
$DIMLUNIT
 70
    2
  9
$DIMLWD
 70
   -2
  9
$DIMLWE
 70
   -2
  9
$DIMTMOVE
 70
    0
  9
$DIMFXL
 40
1
  9
$DIMFXLON
 70
    0
  9
$DIMJOGANG
 40
0.7854
  9
$DIMTFILL
 70
    0
  9
$DIMTFILLCLR
 70
    0
  9
$DIMARCSYM
 70
    0
  9
$DIMLTYPE
  6

  9
$DIMLTEX1
  6

  9
$DIMLTEX2
  6

  9
$LUNITS
 70
    2
  9
$LUPREC
 70
    0
  9
$SKETCHINC
 40
1
  9
$FILLETRAD
 40
0
  9
$AUNITS
 70
    0
  9
$AUPREC
 70
    0
  9
$MENU
  1
.
  9
$ELEVATION
 40
0
  9
$PELEVATION
 40
0
  9
$THICKNESS
 40
0
  9
$LIMCHECK
 70
    0
  9
$CHAMFERA
 40
0
  9
$CHAMFERB
 40
0
  9
$CHAMFERC
 40
0
  9
$CHAMFERD
 40
0
  9
$SKPOLY
 70
    0
  9
$USRTIMER
 70
    1
  9
$ANGBASE
 50
0
  9
$ANGDIR
 70
    0
  9
$PDMODE
 70
   34
  9
$PDSIZE
 40
0
  9
$PLINEWID
 40
0
  9
$SPLFRAME
 70
    0
  9
$SPLINETYPE
 70
    2
  9
$SPLINESEGS
 70
    8
  9
$HANDSEED
  5
20000
  9
$SURFTAB1
 70
    6
  9
$SURFTAB2
 70
    6
  9
$SURFTYPE
 70
    6
  9
$SURFU
 70
    6
  9
$SURFV
 70
    6
  9
$UCSBASE
  2

  9
$UCSNAME
  2

  9
$UCSORG
 10
0
 20
0
 30
0
  9
$UCSXDIR
 10
1
 20
0
 30
0
  9
$UCSYDIR
 10
0
 20
1
 30
0
  9
$UCSORTHOREF
  2

  9
$UCSORTHOVIEW
 70
    0
  9
$UCSORGTOP
 10
0
 20
0
 30
0
  9
$UCSORGBOTTOM
 10
0
 20
0
 30
0
  9
$UCSORGLEFT
 10
0
 20
0
 30
0
  9
$UCSORGRIGHT
 10
0
 20
0
 30
0
  9
$UCSORGFRONT
 10
0
 20
0
 30
0
  9
$UCSORGBACK
 10
0
 20
0
 30
0
  9
$PUCSBASE
  2

  9
$PUCSNAME
  2

  9
$PUCSORG
 10
0
 20
0
 30
0
  9
$PUCSXDIR
 10
1
 20
0
 30
0
  9
$PUCSYDIR
 10
0
 20
1
 30
0
  9
$PUCSORTHOREF
  2

  9
$PUCSORTHOVIEW
 70
    0
  9
$PUCSORGTOP
 10
0
 20
0
 30
0
  9
$PUCSORGBOTTOM
 10
0
 20
0
 30
0
  9
$PUCSORGLEFT
 10
0
 20
0
 30
0
  9
$PUCSORGRIGHT
 10
0
 20
0
 30
0
  9
$PUCSORGFRONT
 10
0
 20
0
 30
0
  9
$PUCSORGBACK
 10
0
 20
0
 30
0
  9
$USERI1
 70
    0
  9
$USERI2
 70
    0
  9
$USERI3
 70
    0
  9
$USERI4
 70
    0
  9
$USERI5
 70
    0
  9
$USERR1
 40
0
  9
$USERR2
 40
0
  9
$USERR3
 40
0
  9
$USERR4
 40
0
  9
$USERR5
 40
0
  9
$WORLDVIEW
 70
    1
  9
$SHADEDGE
 70
    3
  9
$SHADEDIF
 70
   70
  9
$TILEMODE
 70
    1
  9
$MAXACTVP
 70
   64
  9
$PINSBASE
 10
12.06715018020932
 20
39.16220501429632
 30
0
  9
$PLIMCHECK
 70
    0
  9
$PEXTMIN
 10
0
 20
0
 30
0
  9
$PEXTMAX
 10
0
 20
0
 30
0
  9
$GRIDMODE
 70
    1
  9
$SNAPSTYLE
 70
    0
  9
$GRIDUNIT
 10
0
 20
0
  9
$PLIMMIN
 10
0
 20
0
  9
$PLIMMAX
 10
190
 20
70
  9
$UNITMODE
 70
    0
  9
$VISRETAIN
 70
    1
  9
$PLINEGEN
 70
    0
  9
$PSLTSCALE
 70
    1
  9
$TREEDEPTH
 70
 3020
  9
$CMLSTYLE
  2
Standard
  9
$CMLJUST
 70
    0
  9
$CMLSCALE
 40
20
  9
$PROXYGRAPHICS
 70
    1
  9
$MEASUREMENT
 70
    1
  9
$CELWEIGHT
370
   -1
  9
$ENDCAPS
280
    0
  9
$JOINSTYLE
280
    0
  9
$LWDISPLAY
290
    0
  9
$INSUNITS
 70
    4
  9
$HYPERLINKBASE
  1

  9
$STYLESHEET
  1

  9
$XEDIT
290
    1
  9
$CEPSNTYPE
380
    0
  9
$PSTYLEMODE
290
    1
  9
$EXTNAMES
290
    1
  9
$PSVPSCALE
 40
0.5997541008186643
  9
$OLESTARTUP
290
    0
  9
$SORTENTS
280
  127
  9
$INDEXCTL
280
    0
  9
$HIDETEXT
280
    1
  9
$XCLIPFRAME
290
    0
  9
$HALOGAP
280
    0
  9
$OBSCOLOR
 70
  257
  9
$OBSLTYPE
280
    0
  9
$INTERSECTIONDISPLAY
280
    0
  9
$INTERSECTIONCOLOR
 70
  257
  9
$DIMASSOC
280
    1
  9
$PROJECTNAME
  1

  9
$CAMERADISPLAY
290
    0
  9
$LENSLENGTH
 40
50
  9
$CAMERAHEIGHT
 40
0
  9
$STEPSPERSEC
 40
2
  9
$STEPSIZE
 40
50
  9
$3DDWFPREC
 40
2
  9
$PSOLWIDTH
 40
5
  9
$PSOLHEIGHT
 40
80
  9
$LOFTANG1
 40
1.570796326794897
  9
$LOFTANG2
 40
1.570796326794897
  9
$LOFTMAG1
 40
0
  9
$LOFTMAG2
 40
0
  9
$LOFTPARAM
 70
    7
  9
$LOFTNORMALS
280
    1
  9
$LATITUDE
 40
1
  9
$LONGITUDE
 40
1
  9
$NORTHDIRECTION
 40
0
  9
$TIMEZONE
 70
-8000
  9
$LIGHTGLYPHDISPLAY
280
    1
  9
$TILEMODELIGHTSYNCH
280
    1
  9
$SOLIDHIST
280
    1
  9
$SHOWHIST
280
    1
  9
$DWFFRAME
280
    2
  9
$DGNFRAME
280
    0
  9
$REALWORLDSCALE
290
    1
  9
$INTERFERECOLOR
 62
    1
  9
$CSHADOW
280
    0
  9
$SHADOWPLANELOCATION
 40
0
  0
ENDSEC
  0
SECTION
  2
CLASSES
  0
ENDSEC
  0
SECTION
  2
TABLES
  0
TABLE
  2
VPORT
  5
8
330
0
100
AcDbSymbolTable
 70
    1
  0
VPORT
  5
31
330
2
100
AcDbSymbolTableRecord
100
AcDbViewportTableRecord
  2
*ACTIVE
 70
    0
 10
0
 20
0
 11
1
 21
1
 12
154.8231581049826
 22
31.45809188587296
 13
0
 23
0
 14
10
 24
10
 15
10
 25
10
 16
0
 26
0
 36
1
 17
0
 27
0
 37
0
 40
172.916701150452
 41
2.526753864447087
 42
50
 43
0
 44
0
 50
0
 51
0
 71
    0
 72
  100
 73
    1
 74
    3
 75
    0
 76
    1
 77
    0
 78
    0
281
    0
 65
    1
110
0
120
0
130
0
111
1
121
0
131
0
112
0
122
1
132
0
 79
    0
146
0
348
10020
 60
    7
 61
    5
292
1
282
    1
141
0
142
0
 63
  250
421
3358443
  0
ENDTAB
  0
TABLE
  2
LTYPE
  5
5
330
0
100
AcDbSymbolTable
 70
    4
  0
LTYPE
  5
14
330
5
100
AcDbSymbolTableRecord
100
AcDbLinetypeTableRecord
  2
ByBlock
 70
    0
  3

 72
   65
 73
    0
 40
0
  0
LTYPE
  5
15
330
5
100
AcDbSymbolTableRecord
100
AcDbLinetypeTableRecord
  2
ByLayer
 70
    0
  3

 72
   65
 73
    0
 40
0
  0
LTYPE
  5
16
330
5
100
AcDbSymbolTableRecord
100
AcDbLinetypeTableRecord
  2
Continuous
 70
    0
  3
Solid line
 72
   65
 73
    0
 40
0
  0
LTYPE
  5
32
330
5
100
AcDbSymbolTableRecord
100
AcDbLinetypeTableRecord
  2
DOT
 70
    0
  3
Dot . . . . . . . . . . . . . . . . . . . . . .
 72
   65
 73
    2
 40
6.35
 49
0
 74
    0
 49
-6.35
 74
    0
  0
LTYPE
  5
33
330
5
100
AcDbSymbolTableRecord
100
AcDbLinetypeTableRecord
  2
DOTTINY
 70
    0
  3
Dot (.15x) .....................................
 72
   65
 73
    2
 40
0.9525
 49
0
 74
    0
 49
-0.9525
 74
    0
  0
LTYPE
  5
34
330
5
100
AcDbSymbolTableRecord
100
AcDbLinetypeTableRecord
  2
DOT2
 70
    0
  3
Dot (.5x) .....................................
 72
   65
 73
    2
 40
3.175
 49
0
 74
    0
 49
-3.175
 74
    0
  0
LTYPE
  5
35
330
5
100
AcDbSymbolTableRecord
100
AcDbLinetypeTableRecord
  2
DOTX2
 70
    0
  3
Dot (2x) .  .  .  .  .  .  .  .  .  .  .  .  .
 72
   65
 73
    2
 40
12.7
 49
0
 74
    0
 49
-12.7
 74
    0
  0
LTYPE
  5
36
330
5
100
AcDbSymbolTableRecord
100
AcDbLinetypeTableRecord
  2
DASHED
 70
    0
  3
Dashed _ _ _ _ _ _ _ _ _ _ _ _ _ _ _ _ _
 72
   65
 73
    2
 40
19.05
 49
12.7
 74
    0
 49
-6.35
 74
    0
  0
LTYPE
  5
37
330
5
100
AcDbSymbolTableRecord
100
AcDbLinetypeTableRecord
  2
DASHEDTINY
 70
    0
  3
Dashed (.15x) _ _ _ _ _ _ _ _ _ _ _ _ _ _ _ _ _
 72
   65
 73
    2
 40
2.8575
 49
1.905
 74
    0
 49
-0.9525
 74
    0
  0
LTYPE
  5
38
330
5
100
AcDbSymbolTableRecord
100
AcDbLinetypeTableRecord
  2
DASHED2
 70
    0
  3
Dashed (.5x) _ _ _ _ _ _ _ _ _ _ _ _ _ _ _ _ _
 72
   65
 73
    2
 40
9.524999999999999
 49
6.35
 74
    0
 49
-3.175
 74
    0
  0
LTYPE
  5
39
330
5
100
AcDbSymbolTableRecord
100
AcDbLinetypeTableRecord
  2
DASHEDX2
 70
    0
  3
Dashed (2x) ____  ____  ____  ____  ____  ___
 72
   65
 73
    2
 40
38.09999999999999
 49
25.4
 74
    0
 49
-12.7
 74
    0
  0
LTYPE
  5
3A
330
5
100
AcDbSymbolTableRecord
100
AcDbLinetypeTableRecord
  2
DASHDOT
 70
    0
  3
Dash dot __ . __ . __ . __ . __ . __ . __ . __
 72
   65
 73
    4
 40
25.4
 49
12.7
 74
    0
 49
-6.35
 74
    0
 49
0
 74
    0
 49
-6.35
 74
    0
  0
LTYPE
  5
3B
330
5
100
AcDbSymbolTableRecord
100
AcDbLinetypeTableRecord
  2
DASHDOTTINY
 70
    0
  3
Dash dot (.15x) _._._._._._._._._._._._._._._.
 72
   65
 73
    4
 40
3.81
 49
1.905
 74
    0
 49
-0.9525
 74
    0
 49
0
 74
    0
 49
-0.9525
 74
    0
  0
LTYPE
  5
3C
330
5
100
AcDbSymbolTableRecord
100
AcDbLinetypeTableRecord
  2
DASHDOT2
 70
    0
  3
Dash dot (.5x) _._._._._._._._._._._._._._._.
 72
   65
 73
    4
 40
12.7
 49
6.35
 74
    0
 49
-3.175
 74
    0
 49
0
 74
    0
 49
-3.175
 74
    0
  0
LTYPE
  5
3D
330
5
100
AcDbSymbolTableRecord
100
AcDbLinetypeTableRecord
  2
DASHDOTX2
 70
    0
  3
Dash dot (2x) ____  .  ____  .  ____  .  ___
 72
   65
 73
    4
 40
50.8
 49
25.4
 74
    0
 49
-12.7
 74
    0
 49
0
 74
    0
 49
-12.7
 74
    0
  0
LTYPE
  5
3E
330
5
100
AcDbSymbolTableRecord
100
AcDbLinetypeTableRecord
  2
DIVIDE
 70
    0
  3
Divide ____ . . ____ . . ____ . . ____ . . ____
 72
   65
 73
    6
 40
31.75
 49
12.7
 74
    0
 49
-6.35
 74
    0
 49
0
 74
    0
 49
-6.35
 74
    0
 49
0
 74
    0
 49
-6.35
 74
    0
  0
LTYPE
  5
3F
330
5
100
AcDbSymbolTableRecord
100
AcDbLinetypeTableRecord
  2
DIVIDETINY
 70
    0
  3
Divide (.15x) __..__..__..__..__..__..__..__.._
 72
   65
 73
    6
 40
4.7625
 49
1.905
 74
    0
 49
-0.9525
 74
    0
 49
0
 74
    0
 49
-0.9525
 74
    0
 49
0
 74
    0
 49
-0.9525
 74
    0
  0
LTYPE
  5
40
330
5
100
AcDbSymbolTableRecord
100
AcDbLinetypeTableRecord
  2
DIVIDE2
 70
    0
  3
Divide (.5x) __..__..__..__..__..__..__..__.._
 72
   65
 73
    6
 40
15.875
 49
6.35
 74
    0
 49
-3.175
 74
    0
 49
0
 74
    0
 49
-3.175
 74
    0
 49
0
 74
    0
 49
-3.175
 74
    0
  0
LTYPE
  5
41
330
5
100
AcDbSymbolTableRecord
100
AcDbLinetypeTableRecord
  2
DIVIDEX2
 70
    0
  3
Divide (2x) ________  .  .  ________  .  .  _
 72
   65
 73
    6
 40
63.5
 49
25.4
 74
    0
 49
-12.7
 74
    0
 49
0
 74
    0
 49
-12.7
 74
    0
 49
0
 74
    0
 49
-12.7
 74
    0
  0
LTYPE
  5
42
330
5
100
AcDbSymbolTableRecord
100
AcDbLinetypeTableRecord
  2
BORDER
 70
    0
  3
Border __ __ . __ __ . __ __ . __ __ . __ __ .
 72
   65
 73
    6
 40
44.45
 49
12.7
 74
    0
 49
-6.35
 74
    0
 49
12.7
 74
    0
 49
-6.35
 74
    0
 49
0
 74
    0
 49
-6.35
 74
    0
  0
LTYPE
  5
43
330
5
100
AcDbSymbolTableRecord
100
AcDbLinetypeTableRecord
  2
BORDERTINY
 70
    0
  3
Border (.15x) __.__.__.__.__.__.__.__.__.__.__.
 72
   65
 73
    6
 40
6.6675
 49
1.905
 74
    0
 49
-0.9525
 74
    0
 49
1.905
 74
    0
 49
-0.9525
 74
    0
 49
0
 74
    0
 49
-0.9525
 74
    0
  0
LTYPE
  5
44
330
5
100
AcDbSymbolTableRecord
100
AcDbLinetypeTableRecord
  2
BORDER2
 70
    0
  3
Border (.5x) __.__.__.__.__.__.__.__.__.__.__.
 72
   65
 73
    6
 40
22.225
 49
6.35
 74
    0
 49
-3.175
 74
    0
 49
6.35
 74
    0
 49
-3.175
 74
    0
 49
0
 74
    0
 49
-3.175
 74
    0
  0
LTYPE
  5
45
330
5
100
AcDbSymbolTableRecord
100
AcDbLinetypeTableRecord
  2
BORDERX2
 70
    0
  3
Border (2x) ____  ____  .  ____  ____  .  ___
 72
   65
 73
    6
 40
88.89999999999999
 49
25.4
 74
    0
 49
-12.7
 74
    0
 49
25.4
 74
    0
 49
-12.7
 74
    0
 49
0
 74
    0
 49
-12.7
 74
    0
  0
LTYPE
  5
46
330
5
100
AcDbSymbolTableRecord
100
AcDbLinetypeTableRecord
  2
CENTER
 70
    0
  3
Center ____ _ ____ _ ____ _ ____ _ ____ _ ____
 72
   65
 73
    4
 40
50.8
 49
31.75
 74
    0
 49
-6.35
 74
    0
 49
6.35
 74
    0
 49
-6.35
 74
    0
  0
LTYPE
  5
47
330
5
100
AcDbSymbolTableRecord
100
AcDbLinetypeTableRecord
  2
CENTERTINY
 70
    0
  3
Center (.15x) ___ _ ___ _ ___ _ ___ _ ___ _ ___
 72
   65
 73
    4
 40
7.619999999999999
 49
4.7625
 74
    0
 49
-0.9525
 74
    0
 49
0.9525
 74
    0
 49
-0.9525
 74
    0
  0
LTYPE
  5
48
330
5
100
AcDbSymbolTableRecord
100
AcDbLinetypeTableRecord
  2
CENTER2
 70
    0
  3
Center (.5x) ___ _ ___ _ ___ _ ___ _ ___ _ ___
 72
   65
 73
    4
 40
28.575
 49
19.05
 74
    0
 49
-3.175
 74
    0
 49
3.175
 74
    0
 49
-3.175
 74
    0
  0
LTYPE
  5
49
330
5
100
AcDbSymbolTableRecord
100
AcDbLinetypeTableRecord
  2
CENTERX2
 70
    0
  3
Center (2x) ________  __  ________  __  _____
 72
   65
 73
    4
 40
101.6
 49
63.5
 74
    0
 49
-12.7
 74
    0
 49
12.7
 74
    0
 49
-12.7
 74
    0
  0
ENDTAB
  0
TABLE
  2
LAYER
  5
2
330
0
100
AcDbSymbolTable
 70
    1
  0
LAYER
  5
10
330
2
100
AcDbSymbolTableRecord
100
AcDbLayerTableRecord
  2
0
 70
    0
 62
    7
  6
CONTINUOUS
370
   35
390
F
  0
LAYER
  5
4A
330
2
100
AcDbSymbolTableRecord
100
AcDbLayerTableRecord
  2
Labels
 70
    0
 62
    5
  6
CONTINUOUS
370
   18
390
F
  0
LAYER
  5
4B
330
2
100
AcDbSymbolTableRecord
100
AcDbLayerTableRecord
  2
dash
 70
    0
 62
    7
  6
DASHEDX2
370
   13
390
F
  0
LAYER
  5
4C
330
2
100
AcDbSymbolTableRecord
100
AcDbLayerTableRecord
  2
dashdot
 70
    0
 62
    6
  6
DASHDOT
370
   18
390
F
  0
LAYER
  5
4D
330
2
100
AcDbSymbolTableRecord
100
AcDbLayerTableRecord
  2
ol
 70
    0
 62
    1
  6
CENTER
370
   -3
390
F
  0
LAYER
  5
4E
330
2
100
AcDbSymbolTableRecord
100
AcDbLayerTableRecord
  2
ray
 70
    0
 62
    3
  6
CONTINUOUS
370
   50
390
F
  0
LAYER
  5
4F
330
2
100
AcDbSymbolTableRecord
100
AcDbLayerTableRecord
  2
size
 70
    0
 62
    5
  6
CONTINUOUS
370
   13
390
F
  0
LAYER
  5
50
330
2
100
AcDbSymbolTableRecord
100
AcDbLayerTableRecord
  2
sm
 70
    0
 62
    1
  6
CONTINUOUS
370
   50
390
F
  0
LAYER
  5
51
330
2
100
AcDbSymbolTableRecord
100
AcDbLayerTableRecord
  2
thin
 70
    0
 62
    4
  6
CONTINUOUS
370
   25
390
F
  0
LAYER
  5
52
330
2
100
AcDbSymbolTableRecord
100
AcDbLayerTableRecord
  2
tmp
 70
    0
 62
    3
  6
CONTINUOUS
370
    0
390
F
  0
ENDTAB
  0
TABLE
  2
STYLE
  5
3
330
0
100
AcDbSymbolTable
 70
    3
  0
STYLE
  5
53
330
2
100
AcDbSymbolTableRecord
100
AcDbTextStyleTableRecord
  2
cyrillic_ii
 70
    0
 40
0
 41
1
 50
0
 71
    0
 42
1
  3
cyrillic_ii
  4

  0
STYLE
  5
54
330
2
100
AcDbSymbolTableRecord
100
AcDbTextStyleTableRecord
  2
cyrillic_ii2
 70
    0
 40
0
 41
1
 50
0
 71
    0
 42
1
  3
cyrillic_ii2
  4

  0
STYLE
  5
55
330
2
100
AcDbSymbolTableRecord
100
AcDbTextStyleTableRecord
  2
Standard
 70
    0
 40
0
 41
1
 50
0
 71
    0
 42
1
  3
txt
  4

  0
ENDTAB
  0
TABLE
  2
VIEW
  5
6
330
0
100
AcDbSymbolTable
 70
    0
  0
ENDTAB
  0
TABLE
  2
UCS
  5
7
330
0
100
AcDbSymbolTable
 70
    0
  0
ENDTAB
  0
TABLE
  2
APPID
  5
9
330
0
100
AcDbSymbolTable
 70
    1
  0
APPID
  5
12
330
9
100
AcDbSymbolTableRecord
100
AcDbRegAppTableRecord
  2
ACAD
 70
    0
  0
APPID
  5
56
330
9
100
AcDbSymbolTableRecord
100
AcDbRegAppTableRecord
  2
LibreCad
 70
    0
  0
ENDTAB
  0
TABLE
  2
DIMSTYLE
  5
A
330
0
100
AcDbSymbolTable
 70
    1
100
AcDbDimStyleTable
 71
    1
  0
DIMSTYLE
105
57
330
A
100
AcDbSymbolTableRecord
100
AcDbDimStyleTableRecord
  2
Standard
 70
    0
 40
1
 41
4
 42
0.625
 43
0.38
 44
1.25
 45
0
 46
0
 47
0
 48
0
 49
1
140
4
141
0.09
142
0
143
25.4
144
1
145
0
146
1
147
0.625
148
0
 71
    0
 72
    0
 73
    0
 74
    1
 75
    0
 76
    0
 77
    0
 78
    1
 79
    0
170
    0
171
    2
172
    0
173
    0
174
    0
175
    0
176
    0
177
    0
178
    0
179
    0
271
    0
272
    4
273
    2
274
    2
275
    0
276
    0
277
    2
278
    0
279
    0
280
    0
281
    0
282
    0
283
    1
284
    0
285
    0
286
    0
288
    0
289
    3
340
standard
341

371
   -2
372
   -2
  0
ENDTAB
  0
TABLE
  2
BLOCK_RECORD
  5
1
330
0
100
AcDbSymbolTable
 70
    2
  0
BLOCK_RECORD
  5
1F
330
1
100
AcDbSymbolTableRecord
100
AcDbBlockTableRecord
  2
*Model_Space
 70
    0
280
    1
281
    0
  0
BLOCK_RECORD
  5
1E
330
1
100
AcDbSymbolTableRecord
100
AcDbBlockTableRecord
  2
*Paper_Space
 70
    0
280
    1
281
    0
  0
BLOCK_RECORD
  5
58
330
1
100
AcDbSymbolTableRecord
100
AcDbBlockTableRecord
  2
*D6
 70
    0
280
    1
281
    0
  0
BLOCK_RECORD
  5
5B
330
1
100
AcDbSymbolTableRecord
100
AcDbBlockTableRecord
  2
*D9
 70
    0
280
    1
281
    0
  0
BLOCK_RECORD
  5
5E
330
1
100
AcDbSymbolTableRecord
100
AcDbBlockTableRecord
  2
*D3
 70
    0
280
    1
281
    0
  0
BLOCK_RECORD
  5
61
330
1
100
AcDbSymbolTableRecord
100
AcDbBlockTableRecord
  2
*D5
 70
    0
280
    1
281
    0
  0
BLOCK_RECORD
  5
64
330
1
100
AcDbSymbolTableRecord
100
AcDbBlockTableRecord
  2
*D10
 70
    0
280
    1
281
    0
  0
BLOCK_RECORD
  5
67
330
1
100
AcDbSymbolTableRecord
100
AcDbBlockTableRecord
  2
*D7
 70
    0
280
    1
281
    0
  0
BLOCK_RECORD
  5
6A
330
1
100
AcDbSymbolTableRecord
100
AcDbBlockTableRecord
  2
*D1
 70
    0
280
    1
281
    0
  0
BLOCK_RECORD
  5
6D
330
1
100
AcDbSymbolTableRecord
100
AcDbBlockTableRecord
  2
*D4
 70
    0
280
    1
281
    0
  0
BLOCK_RECORD
  5
70
330
1
100
AcDbSymbolTableRecord
100
AcDbBlockTableRecord
  2
*D2
 70
    0
280
    1
281
    0
  0
BLOCK_RECORD
  5
73
330
1
100
AcDbSymbolTableRecord
100
AcDbBlockTableRecord
  2
*D8
 70
    0
280
    1
281
    0
  0
BLOCK_RECORD
  5
76
330
1
100
AcDbSymbolTableRecord
100
AcDbBlockTableRecord
  2
A4_2_draw-0
 70
    0
280
    1
281
    0
  0
BLOCK_RECORD
  5
79
330
1
100
AcDbSymbolTableRecord
100
AcDbBlockTableRecord
  2
view
 70
    0
280
    1
281
    0
  0
BLOCK_RECORD
  5
7C
330
1
100
AcDbSymbolTableRecord
100
AcDbBlockTableRecord
  2
hole M1
 70
    0
280
    1
281
    0
  0
ENDTAB
  0
ENDSEC
  0
SECTION
  2
BLOCKS
  0
BLOCK
  5
20
330
1F
100
AcDbEntity
  8
0
100
AcDbBlockBegin
  2
*Model_Space
 70
    0
 10
0
 20
0
 30
0
  3
*Model_Space
  1

  0
ENDBLK
  5
21
330
1F
100
AcDbEntity
  8
0
100
AcDbBlockEnd
  0
BLOCK
  5
1C
330
1B
100
AcDbEntity
  8
0
100
AcDbBlockBegin
  2
*Paper_Space
 70
    0
 10
0
 20
0
 30
0
  3
*Paper_Space
  1

  0
ENDBLK
  5
1D
330
1F
100
AcDbEntity
  8
0
100
AcDbBlockEnd
  0
BLOCK
  5
59
330
58
100
AcDbEntity
  8
0
100
AcDbBlockBegin
  2
*D6
 70
    1
 10
0
 20
0
  3
*D6
  1

  0
LINE
  5
7F
100
AcDbEntity
  8
size
  6
ByBlock
 62
    0
370
   -2
100
AcDbLine
 10
0
 20
-57.50526393678792
 11
165
 21
-57.50526393678792
  0
SOLID
  5
80
100
AcDbEntity
  8
size
  6
ByBlock
 62
    0
370
   -2
100
AcDbTrace
 10
0
 20
-57.50526393678792
 30
0
 11
4
 21
-56.83920848435137
 31
0
 12
4
 22
-58.17131938922446
 32
0
 13
4
 23
-58.17131938922446
 33
0
  0
SOLID
  5
81
100
AcDbEntity
  8
size
  6
ByBlock
 62
    0
370
   -2
100
AcDbTrace
 10
165
 20
-57.50526393678792
 30
0
 11
161
 21
-58.17131938922446
 31
0
 12
161
 22
-56.83920848435137
 32
0
 13
161
 23
-56.83920848435137
 33
0
  0
MTEXT
  5
82
100
AcDbEntity
  8
size
  6
CONTINUOUS
 62
    0
370
   -2
100
AcDbMText
 10
82.5
 20
-54.88026393678792
 30
0
 40
4
 41
7.111111111111606
 71
    5
 72
    1
  1
165
  7
standard
210
0
220
0
230
1
 50
0
 73
    2
 44
1
  0
LINE
  5
83
100
AcDbEntity
  8
size
  6
ByBlock
 62
    0
370
   -2
100
AcDbLine
 10
-1.148106374200643e-16
 20
-30.625
 11
-2.296212748401287e-16
 21
-58.75526393678792
  0
LINE
  5
84
100
AcDbEntity
  8
size
  6
ByBlock
 62
    0
370
   -2
100
AcDbLine
 10
165
 20
-24.625
 11
165
 21
-58.75526393678792
  0
ENDBLK
  5
5A
330
58
100
AcDbEntity
  8
0
100
AcDbBlockEnd
  0
BLOCK
  5
5C
330
5B
100
AcDbEntity
  8
0
100
AcDbBlockBegin
  2
*D9
 70
    1
 10
0
 20
0
  3
*D9
  1

  0
LINE
  5
85
100
AcDbEntity
  8
size
  6
ByBlock
 62
    0
370
   -2
100
AcDbLine
 10
0
 20
40.70544817137533
 11
238
 21
40.70544817137533
  0
SOLID
  5
86
100
AcDbEntity
  8
size
  6
ByBlock
 62
    0
370
   -2
100
AcDbTrace
 10
0
 20
40.70544817137533
 30
0
 11
4
 21
41.37150362381188
 31
0
 12
4
 22
40.03939271893879
 32
0
 13
4
 23
40.03939271893879
 33
0
  0
SOLID
  5
87
100
AcDbEntity
  8
size
  6
ByBlock
 62
    0
370
   -2
100
AcDbTrace
 10
238
 20
40.70544817137533
 30
0
 11
234
 21
40.03939271893879
 31
0
 12
234
 22
41.37150362381188
 32
0
 13
234
 23
41.37150362381188
 33
0
  0
MTEXT
  5
88
100
AcDbEntity
  8
size
  6
CONTINUOUS
 62
    0
370
   -2
100
AcDbMText
 10
119
 20
43.33044817137533
 30
0
 40
4
 41
8.000000000000249
 71
    5
 72
    1
  1
238
  7
standard
210
0
220
0
230
1
 50
0
 73
    2
 44
1
  0
LINE
  5
89
100
AcDbEntity
  8
size
  6
ByBlock
 62
    0
370
   -2
100
AcDbLine
 10
1.73949233439521e-15
 20
30.625
 11
-2.010153312095795e-16
 21
41.95544817137533
  0
LINE
  5
8A
100
AcDbEntity
  8
size
  6
ByBlock
 62
    0
370
   -2
100
AcDbLine
 10
238
 20
20.175
 11
238
 21
41.95544817137533
  0
ENDBLK
  5
5D
330
5B
100
AcDbEntity
  8
0
100
AcDbBlockEnd
  0
BLOCK
  5
5F
330
5E
100
AcDbEntity
  8
0
100
AcDbBlockBegin
  2
*D3
 70
    1
 10
0
 20
0
  3
*D3
  1

  0
LINE
  5
8B
100
AcDbEntity
  8
size
  6
ByBlock
 62
    0
370
   -2
100
AcDbLine
 10
7.105427357601002e-15
 20
-35.6243301746768
 11
44.99999999999999
 21
-35.6243301746768
  0
SOLID
  5
8C
100
AcDbEntity
  8
size
  6
ByBlock
 62
    0
370
   -2
100
AcDbTrace
 10
7.105427357601002e-15
 20
-35.6243301746768
 30
0
 11
4.000000000000007
 21
-34.95827472224025
 31
0
 12
4.000000000000007
 22
-36.29038562711334
 32
0
 13
4.000000000000007
 23
-36.29038562711334
 33
0
  0
SOLID
  5
8D
100
AcDbEntity
  8
size
  6
ByBlock
 62
    0
370
   -2
100
AcDbTrace
 10
44.99999999999999
 20
-35.6243301746768
 30
0
 11
40.99999999999999
 21
-36.29038562711334
 31
0
 12
40.99999999999999
 22
-34.95827472224025
 32
0
 13
40.99999999999999
 23
-34.95827472224025
 33
0
  0
MTEXT
  5
8E
100
AcDbEntity
  8
size
  6
CONTINUOUS
 62
    0
370
   -2
100
AcDbMText
 10
22.5
 20
-32.9993301746768
 30
0
 40
4
 41
5.333333333333581
 71
    5
 72
    1
  1
45
  7
standard
210
0
220
0
230
1
 50
0
 73
    2
 44
1
  0
LINE
  5
8F
100
AcDbEntity
  8
size
  6
ByBlock
 62
    0
370
   -2
100
AcDbLine
 10
4.403008748925139e-16
 20
-30.625
 11
7.98602910738603e-15
 21
-36.8743301746768
  0
LINE
  5
90
100
AcDbEntity
  8
size
  6
ByBlock
 62
    0
370
   -2
100
AcDbLine
 10
44.99999999999999
 20
-8.048076923076923
 11
44.99999999999999
 21
-36.8743301746768
  0
ENDBLK
  5
60
330
5E
100
AcDbEntity
  8
0
100
AcDbBlockEnd
  0
BLOCK
  5
62
330
61
100
AcDbEntity
  8
0
100
AcDbBlockBegin
  2
*D5
 70
    1
 10
0
 20
0
  3
*D5
  1

  0
LINE
  5
91
100
AcDbEntity
  8
size
  6
ByBlock
 62
    0
370
   -2
100
AcDbLine
 10
0
 20
-50.81439989382832
 11
130
 21
-50.81439989382832
  0
SOLID
  5
92
100
AcDbEntity
  8
size
  6
ByBlock
 62
    0
370
   -2
100
AcDbTrace
 10
0
 20
-50.81439989382832
 30
0
 11
4
 21
-50.14834444139178
 31
0
 12
4
 22
-51.48045534626487
 32
0
 13
4
 23
-51.48045534626487
 33
0
  0
SOLID
  5
93
100
AcDbEntity
  8
size
  6
ByBlock
 62
    0
370
   -2
100
AcDbTrace
 10
130
 20
-50.81439989382832
 30
0
 11
126
 21
-51.48045534626487
 31
0
 12
126
 22
-50.14834444139178
 32
0
 13
126
 23
-50.14834444139178
 33
0
  0
MTEXT
  5
94
100
AcDbEntity
  8
size
  6
CONTINUOUS
 62
    0
370
   -2
100
AcDbMText
 10
65
 20
-48.18939989382832
 30
0
 40
4
 41
7.111111111111359
 71
    5
 72
    1
  1
130
  7
standard
210
0
220
0
230
1
 50
0
 73
    2
 44
1
  0
LINE
  5
95
100
AcDbEntity
  8
size
  6
ByBlock
 62
    0
370
   -2
100
AcDbLine
 10
-1.148106374200643e-16
 20
-30.625
 11
-2.296212748401287e-16
 21
-52.06439989382832
  0
LINE
  5
96
100
AcDbEntity
  8
size
  6
ByBlock
 62
    0
370
   -2
100
AcDbLine
 10
130
 20
-24.625
 11
130
 21
-52.06439989382832
  0
ENDBLK
  5
63
330
61
100
AcDbEntity
  8
0
100
AcDbBlockEnd
  0
BLOCK
  5
65
330
64
100
AcDbEntity
  8
0
100
AcDbBlockBegin
  2
*D10
 70
    1
 10
0
 20
0
  3
*D10
  1

  0
LINE
  5
97
100
AcDbEntity
  8
size
  6
ByBlock
 62
    0
370
   -2
100
AcDbLine
 10
-12.747723509308
 20
30
 11
-12.747723509308
 21
-30
  0
SOLID
  5
98
100
AcDbEntity
  8
size
  6
ByBlock
 62
    0
370
   -2
100
AcDbTrace
 10
-12.747723509308
 20
30
 30
0
 11
-12.08166805687145
 21
26
 31
0
 12
-13.41377896174454
 22
26
 32
0
 13
-13.41377896174454
 23
26
 33
0
  0
SOLID
  5
99
100
AcDbEntity
  8
size
  6
ByBlock
 62
    0
370
   -2
100
AcDbTrace
 10
-12.747723509308
 20
-30
 30
0
 11
-13.41377896174454
 21
-26
 31
0
 12
-12.08166805687146
 22
-26
 32
0
 13
-12.08166805687146
 23
-26
 33
0
  0
MTEXT
  5
9A
100
AcDbEntity
  8
size
  6
CONTINUOUS
 62
    0
370
   -2
100
AcDbMText
 10
-15.372723509308
 20
3.214697847761802e-16
 30
0
 40
4
 41
8.888888888889138
 71
    5
 72
    1
  1
%%C60
  7
standard
210
0
220
0
230
1
 50
90
 73
    2
 44
1
  0
LINE
  5
9B
100
AcDbEntity
  8
size
  6
ByBlock
 62
    0
370
   -2
100
AcDbLine
 10
-0.6249999999999981
 20
30
 11
-13.997723509308
 21
30
  0
LINE
  5
9C
100
AcDbEntity
  8
size
  6
ByBlock
 62
    0
370
   -2
100
AcDbLine
 10
-0.625
 20
-30
 11
-13.997723509308
 21
-30
  0
ENDBLK
  5
66
330
64
100
AcDbEntity
  8
0
100
AcDbBlockEnd
  0
BLOCK
  5
68
330
67
100
AcDbEntity
  8
0
100
AcDbBlockBegin
  2
*D7
 70
    1
 10
0
 20
0
  3
*D7
  1

  0
LINE
  5
9D
100
AcDbEntity
  8
size
  6
ByBlock
 62
    0
370
   -2
100
AcDbLine
 10
0
 20
30
 11
200
 21
30
  0
SOLID
  5
9E
100
AcDbEntity
  8
size
  6
ByBlock
 62
    0
370
   -2
100
AcDbTrace
 10
0
 20
30
 30
0
 11
4
 21
30.66605545243655
 31
0
 12
4
 22
29.33394454756345
 32
0
 13
4
 23
29.33394454756345
 33
0
  0
SOLID
  5
9F
100
AcDbEntity
  8
size
  6
ByBlock
 62
    0
370
   -2
100
AcDbTrace
 10
200
 20
30
 30
0
 11
196
 21
29.33394454756345
 31
0
 12
196
 22
30.66605545243655
 32
0
 13
196
 23
30.66605545243655
 33
0
  0
MTEXT
  5
A0
100
AcDbEntity
  8
size
  6
CONTINUOUS
 62
    0
370
   -2
100
AcDbMText
 10
100
 20
32.625
 30
0
 40
4
 41
8
 71
    5
 72
    1
  1
200
  7
standard
210
0
220
0
230
1
 50
0
 73
    2
 44
1
  0
LINE
  5
A1
100
AcDbEntity
  8
size
  6
ByBlock
 62
    0
370
   -2
100
AcDbLine
 10
1.878270212473355e-15
 20
30.625
 11
7.654042494670958e-17
 21
31.25
  0
LINE
  5
A2
100
AcDbEntity
  8
size
  6
ByBlock
 62
    0
370
   -2
100
AcDbLine
 10
200
 20
30.625
 11
200
 21
31.25
  0
ENDBLK
  5
69
330
67
100
AcDbEntity
  8
0
100
AcDbBlockEnd
  0
BLOCK
  5
6B
330
6A
100
AcDbEntity
  8
0
100
AcDbBlockBegin
  2
*D1
 70
    1
 10
0
 20
0
  3
*D1
  1

  0
LINE
  5
A3
100
AcDbEntity
  8
0
  6
CONTINUOUS
 62
    7
370
    0
100
AcDbLine
 10
239.9760301762941
 20
17.41321386419139
 11
256.9817228252647
 21
20.01752367270483
  0
SOLID
  5
A4
100
AcDbEntity
  8
0
  6
CONTINUOUS
 62
    7
370
    0
100
AcDbTrace
 10
239.9760301762941
 20
17.41321386419139
 30
0
 11
243.8291071038619
 21
18.67710786922713
 31
0
 12
244.0307601436074
 22
17.36034839443942
 32
0
 13
244.0307601436074
 23
17.36034839443942
 33
0
  0
ENDBLK
  5
6C
330
6A
100
AcDbEntity
  8
0
100
AcDbBlockEnd
  0
BLOCK
  5
6E
330
6D
100
AcDbEntity
  8
0
100
AcDbBlockBegin
  2
*D4
 70
    1
 10
0
 20
0
  3
*D4
  1

  0
LINE
  5
A5
100
AcDbEntity
  8
size
  6
ByBlock
 62
    0
370
   -2
100
AcDbLine
 10
0
 20
-43.40019919757579
 11
90
 21
-43.40019919757579
  0
SOLID
  5
A6
100
AcDbEntity
  8
size
  6
ByBlock
 62
    0
370
   -2
100
AcDbTrace
 10
0
 20
-43.40019919757579
 30
0
 11
4
 21
-42.73414374513924
 31
0
 12
4
 22
-44.06625465001233
 32
0
 13
4
 23
-44.06625465001233
 33
0
  0
SOLID
  5
A7
100
AcDbEntity
  8
size
  6
ByBlock
 62
    0
370
   -2
100
AcDbTrace
 10
90
 20
-43.40019919757579
 30
0
 11
86
 21
-44.06625465001233
 31
0
 12
86
 22
-42.73414374513924
 32
0
 13
86
 23
-42.73414374513924
 33
0
  0
MTEXT
  5
A8
100
AcDbEntity
  8
size
  6
CONTINUOUS
 62
    0
370
   -2
100
AcDbMText
 10
45
 20
-40.77519919757579
 30
0
 40
4
 41
4.888888888889136
 71
    5
 72
    1
  1
90
  7
standard
210
0
220
0
230
1
 50
0
 73
    2
 44
1
  0
LINE
  5
A9
100
AcDbEntity
  8
size
  6
ByBlock
 62
    0
370
   -2
100
AcDbLine
 10
-1.148106374200643e-16
 20
-30.625
 11
-2.296212748401287e-16
 21
-44.65019919757579
  0
LINE
  5
AA
100
AcDbEntity
  8
size
  6
ByBlock
 62
    0
370
   -2
100
AcDbLine
 10
90
 20
-24.625
 11
90
 21
-44.65019919757579
  0
ENDBLK
  5
6F
330
6D
100
AcDbEntity
  8
0
100
AcDbBlockEnd
  0
BLOCK
  5
71
330
70
100
AcDbEntity
  8
0
100
AcDbBlockBegin
  2
*D2
 70
    1
 10
0
 20
0
  3
*D2
  1

  0
LINE
  5
AB
100
AcDbEntity
  8
0
  6
CONTINUOUS
 62
    7
370
    0
100
AcDbLine
 10
218.0287037864877
 20
-8.764429283724816
 11
244.0336617884812
 21
-9.230609924269656
  0
SOLID
  5
AC
100
AcDbEntity
  8
0
  6
CONTINUOUS
 62
    7
370
    0
100
AcDbTrace
 10
218.0287037864877
 20
-8.764429283724816
 30
0
 11
222.0399994106285
 21
-8.170175733908165
 31
0
 12
222.016123019252
 22
-9.502072644639862
 32
0
 13
222.016123019252
 23
-9.502072644639862
 33
0
  0
ENDBLK
  5
72
330
70
100
AcDbEntity
  8
0
100
AcDbBlockEnd
  0
BLOCK
  5
74
330
73
100
AcDbEntity
  8
0
100
AcDbBlockBegin
  2
*D8
 70
    1
 10
0
 20
0
  3
*D8
  1

  0
LINE
  5
AD
100
AcDbEntity
  8
size
  6
ByBlock
 62
    0
370
   -2
100
AcDbLine
 10
0
 20
35.66972262440106
 11
216
 21
35.66972262440106
  0
SOLID
  5
AE
100
AcDbEntity
  8
size
  6
ByBlock
 62
    0
370
   -2
100
AcDbTrace
 10
0
 20
35.66972262440106
 30
0
 11
4
 21
36.33577807683761
 31
0
 12
4
 22
35.00366717196452
 32
0
 13
4
 23
35.00366717196452
 33
0
  0
SOLID
  5
AF
100
AcDbEntity
  8
size
  6
ByBlock
 62
    0
370
   -2
100
AcDbTrace
 10
216
 20
35.66972262440106
 30
0
 11
212
 21
35.00366717196452
 31
0
 12
212
 22
36.33577807683761
 32
0
 13
212
 23
36.33577807683761
 33
0
  0
MTEXT
  5
B0
100
AcDbEntity
  8
size
  6
CONTINUOUS
 62
    0
370
   -2
100
AcDbMText
 10
108
 20
38.29472262440106
 30
0
 40
4
 41
7.111111111111359
 71
    5
 72
    1
  1
216
  7
standard
210
0
220
0
230
1
 50
0
 73
    2
 44
1
  0
LINE
  5
B1
100
AcDbEntity
  8
size
  6
ByBlock
 62
    0
370
   -2
100
AcDbLine
 10
3.827021247335479e-17
 20
30.625
 11
7.654042494670958e-17
 21
36.91972262440106
  0
LINE
  5
B2
100
AcDbEntity
  8
size
  6
ByBlock
 62
    0
370
   -2
100
AcDbLine
 10
216
 20
11.525
 11
216
 21
36.91972262440106
  0
ENDBLK
  5
75
330
73
100
AcDbEntity
  8
0
100
AcDbBlockEnd
  0
BLOCK
  5
77
330
76
100
AcDbEntity
  8
0
100
AcDbBlockBegin
  2
A4_2_draw-0
 70
    0
 10
0
 20
0
  3
A4_2_draw-0
  1

  0
LINE
  5
B3
100
AcDbEntity
  8
0
  6
CONTINUOUS
 62
  256
370
   50
100
AcDbLine
 10
20
 20
292
 11
205
 21
292
  0
LINE
  5
B4
100
AcDbEntity
  8
0
  6
CONTINUOUS
 62
  256
370
   50
100
AcDbLine
 10
20
 20
292
 11
8
 21
292
  0
LINE
  5
B5
100
AcDbEntity
  8
0
  6
CONTINUOUS
 62
  256
370
   50
100
AcDbLine
 10
20
 20
172
 11
8
 21
172
  0
LINE
  5
B6
100
AcDbEntity
  8
0
  6
CONTINUOUS
 62
  256
370
   50
100
AcDbLine
 10
20
 20
232
 11
8
 21
232
  0
LINE
  5
B7
100
AcDbEntity
  8
0
  6
CONTINUOUS
 62
  256
370
   50
100
AcDbLine
 10
20
 20
150
 11
8
 21
150
  0
LINE
  5
B8
100
AcDbEntity
  8
0
  6
CONTINUOUS
 62
  256
370
   50
100
AcDbLine
 10
8
 20
5
 11
8
 21
150
  0
LINE
  5
B9
100
AcDbEntity
  8
0
  6
CONTINUOUS
 62
  256
370
   50
100
AcDbLine
 10
20
 20
115
 11
8
 21
115
  0
LINE
  5
BA
100
AcDbEntity
  8
0
  6
CONTINUOUS
 62
  256
370
   50
100
AcDbLine
 10
20
 20
90
 11
8
 21
90
  0
LINE
  5
BB
100
AcDbEntity
  8
0
  6
CONTINUOUS
 62
  256
370
   50
100
AcDbLine
 10
20
 20
65
 11
8
 21
65
  0
LINE
  5
BC
100
AcDbEntity
  8
0
  6
CONTINUOUS
 62
  256
370
   50
100
AcDbLine
 10
20
 20
30
 11
8
 21
30
  0
LINE
  5
BD
100
AcDbEntity
  8
0
  6
CONTINUOUS
 62
  256
370
   50
100
AcDbLine
 10
20
 20
5
 11
8
 21
5
  0
LINE
  5
BE
100
AcDbEntity
  8
0
  6
CONTINUOUS
 62
  256
370
   50
100
AcDbLine
 10
205
 20
5
 11
20
 21
5
  0
LINE
  5
BF
100
AcDbEntity
  8
0
  6
CONTINUOUS
 62
  256
370
   50
100
AcDbLine
 10
205
 20
292
 11
205
 21
5
  0
LINE
  5
C0
100
AcDbEntity
  8
0
  6
CONTINUOUS
 62
  256
370
   18
100
AcDbLine
 10
0
 20
297
 11
210
 21
297
  0
LINE
  5
C1
100
AcDbEntity
  8
0
  6
CONTINUOUS
 62
  256
370
   18
100
AcDbLine
 10
210
 20
297
 11
210
 21
0
  0
LINE
  5
C2
100
AcDbEntity
  8
0
  6
CONTINUOUS
 62
  256
370
   18
100
AcDbLine
 10
210
 20
0
 11
0
 21
0
  0
LINE
  5
C3
100
AcDbEntity
  8
0
  6
CONTINUOUS
 62
  256
370
   50
100
AcDbLine
 10
20
 20
5
 11
20
 21
292
  0
LINE
  5
C4
100
AcDbEntity
  8
0
  6
CONTINUOUS
 62
  256
370
   50
100
AcDbLine
 10
8
 20
172
 11
8
 21
292
  0
LINE
  5
C5
100
AcDbEntity
  8
0
  6
CONTINUOUS
 62
  256
370
   18
100
AcDbLine
 10
0
 20
0
 11
0
 21
297
  0
MTEXT
  5
C6
100
AcDbEntity
  8
0
  6
CONTINUOUS
 62
  256
370
   18
100
AcDbMText
 10
103
 20
1.5
 30
0
 40
2.8
 41
13.06666666666667
 71
    7
 72
    5
  1
Копировал
  7
cyrillic_ii2
210
0
220
0
230
1
 50
0
 73
    1
 44
0.96
  0
MTEXT
  5
C7
100
AcDbEntity
  8
0
  6
CONTINUOUS
 62
  256
370
   18
100
AcDbMText
 10
205.9495602275124
 20
5.071756980097064
 30
0
 40
1.2
 41
22.99999949119484
 71
    1
 72
    5
  1
KONSEXPERT & RIBBONSOFT
  7
cyrillic_ii2
210
0
220
0
230
1
 50
90
 73
    1
 44
0.96
  0
MTEXT
  5
C8
100
AcDbEntity
  8
0
  6
CONTINUOUS
 62
  256
370
   18
100
AcDbMText
 10
207.7609020061185
 20
7.124610995850617
 30
0
 40
1.2
 41
18.73333282452818
 71
    1
 72
    5
  1
OPEN SOURCE RELEASE
  7
cyrillic_ii2
210
0
220
0
230
1
 50
90
 73
    1
 44
0.96
  0
MTEXT
  5
C9
100
AcDbEntity
  8
0
  6
CONTINUOUS
 62
  256
370
   18
100
AcDbMText
 10
86.29236318127275
 20
288.8373065316765
 30
0
 40
5
 41
6.111111111111112
 71
    7
 72
    5
  1
_
  7
cyrillic_ii2
210
0
220
0
230
1
 50
180
 73
    2
 44
0.96
  0
MTEXT
  5
CA
100
AcDbEntity
  8
0
  6
CONTINUOUS
 62
  256
370
   18
100
AcDbMText
 10
75.56260911487479
 20
8.904583553017403
 30
0
 40
2.6
 41
4.911111111111111
 71
    1
 72
    5
  1
Дата
  7
cyrillic_ii2
210
0
220
0
230
1
 50
0
 73
    1
 44
0.96
  0
LINE
  5
CB
100
AcDbEntity
  8
0
  6
CONTINUOUS
 62
  256
370
   50
100
AcDbLine
 10
195
 20
5
 11
195
 21
20
  0
LINE
  5
CC
100
AcDbEntity
  8
0
  6
CONTINUOUS
 62
  256
370
   50
100
AcDbLine
 10
20
 20
20
 11
205
 21
20
  0
LINE
  5
CD
100
AcDbEntity
  8
0
  6
CONTINUOUS
 62
  256
370
   50
100
AcDbLine
 10
27
 20
5
 11
27
 21
20
  0
LINE
  5
CE
100
AcDbEntity
  8
0
  6
CONTINUOUS
 62
  256
370
   50
100
AcDbLine
 10
37
 20
5
 11
37
 21
20
  0
LINE
  5
CF
100
AcDbEntity
  8
0
  6
CONTINUOUS
 62
  256
370
   50
100
AcDbLine
 10
60
 20
5
 11
60
 21
20
  0
LINE
  5
D0
100
AcDbEntity
  8
0
  6
CONTINUOUS
 62
  256
370
   50
100
AcDbLine
 10
75
 20
5
 11
75
 21
20
  0
LINE
  5
D1
100
AcDbEntity
  8
0
  6
CONTINUOUS
 62
  256
370
   50
100
AcDbLine
 10
20
 20
10
 11
85
 21
10
  0
LINE
  5
D2
100
AcDbEntity
  8
0
  6
CONTINUOUS
 62
  256
370
   50
100
AcDbLine
 10
85
 20
5
 11
85
 21
20
  0
LINE
  5
D3
100
AcDbEntity
  8
0
  6
CONTINUOUS
 62
  256
370
   50
100
AcDbLine
 10
195
 20
12.5
 11
205
 21
12.5
  0
MTEXT
  5
D4
100
AcDbEntity
  8
0
  6
CONTINUOUS
 62
  256
370
   18
100
AcDbMText
 10
103.1080332830454
 20
6.673607069432771
 30
0
 40
7
 41
8.555555555555555
 71
    7
 72
    5
  1
_
  7
cyrillic_ii2
210
0
220
0
230
1
 50
0
 73
    2
 44
0.96
  0
MTEXT
  5
D5
100
AcDbEntity
  8
0
  6
CONTINUOUS
 62
  256
370
   18
100
AcDbMText
 10
195.8083905749186
 20
14.99855981169696
 30
0
 40
2.8
 41
5.28888888888889
 71
    7
 72
    5
  1
Лист
  7
cyrillic_ii2
210
0
220
0
230
1
 50
0
 73
    1
 44
0.96
  0
MTEXT
  5
D6
100
AcDbEntity
  8
0
  6
CONTINUOUS
 62
  256
370
   18
100
AcDbMText
 10
199.0773587896377
 20
11.5013653628709
 30
0
 40
5
 41
6.111111111111112
 71
    1
 72
    5
  1
_
  7
cyrillic_ii2
210
0
220
0
230
1
 50
0
 73
    1
 44
0.96
  0
MTEXT
  5
D7
100
AcDbEntity
  8
0
  6
CONTINUOUS
 62
  256
370
   18
100
AcDbMText
 10
12.72287361981867
 20
249.9483341540375
 30
0
 40
2.8
 41
25.43333333333346
 71
    7
 72
    5
  1
Перв. примен.
  7
cyrillic_ii
210
0
220
0
230
1
 50
90
 73
    1
 44
0.96
  0
MTEXT
  5
D8
100
AcDbEntity
  8
0
  6
CONTINUOUS
 62
  256
370
   18
100
AcDbMText
 10
12.93333333333333
 20
196
 30
0
 40
2.8
 41
15.94444444444457
 71
    7
 72
    5
  1
Справ. N
  7
cyrillic_ii
210
0
220
0
230
1
 50
90
 73
    1
 44
0.96
  0
MTEXT
  5
D9
100
AcDbEntity
  8
0
  6
CONTINUOUS
 62
  256
370
   18
100
AcDbMText
 10
11.76222872060952
 20
119.8600584854846
 30
0
 40
2.8
 41
25.66666666666693
 71
    7
 72
    5
  1
Подп. и дата
  7
cyrillic_ii
210
0
220
0
230
1
 50
90
 73
    1
 44
0.96
  0
MTEXT
  5
DA
100
AcDbEntity
  8
0
  6
CONTINUOUS
 62
  256
370
   18
100
AcDbMText
 10
12.93333333333333
 20
90.92503899490796
 30
0
 40
2.8
 41
23.17777777777778
 71
    7
 72
    5
  1
Инв. N дубл.
  7
cyrillic_ii
210
0
220
0
230
1
 50
90
 73
    1
 44
0.96
  0
MTEXT
  5
DB
100
AcDbEntity
  8
0
  6
CONTINUOUS
 62
  256
370
   18
100
AcDbMText
 10
12.00000000000013
 20
34.52428688148024
 30
0
 40
2.8
 41
25.66666666666693
 71
    7
 72
    5
  1
Подп. и дата
  7
cyrillic_ii
210
0
220
0
230
1
 50
90
 73
    1
 44
0.96
  0
MTEXT
  5
DC
100
AcDbEntity
  8
0
  6
CONTINUOUS
 62
  256
370
   18
100
AcDbMText
 10
12
 20
5.878448676648986
 30
0
 40
2.8
 41
23.17777777777791
 71
    7
 72
    5
  1
Инв. N подл.
  7
cyrillic_ii
210
0
220
0
230
1
 50
90
 73
    1
 44
0.96
  0
MTEXT
  5
DD
100
AcDbEntity
  8
0
  6
CONTINUOUS
 62
  256
370
   18
100
AcDbMText
 10
20.42261815820117
 20
8.467179597190977
 30
0
 40
2.6
 41
6.644444444444445
 71
    1
 72
    5
  1
Изм.
  7
cyrillic_ii
210
0
220
0
230
1
 50
0
 73
    1
 44
0.96
  0
MTEXT
  5
DE
100
AcDbEntity
  8
0
  6
CONTINUOUS
 62
  256
370
   18
100
AcDbMText
 10
27.71639559000678
 20
8.489777861176037
 30
0
 40
2.6
 41
8.666666666666789
 71
    1
 72
    5
  1
Лист.
  7
cyrillic_ii
210
0
220
0
230
1
 50
0
 73
    1
 44
0.96
  0
MTEXT
  5
DF
100
AcDbEntity
  8
0
  6
CONTINUOUS
 62
  256
370
   18
100
AcDbMText
 10
40.77494124163317
 20
8.67458244311166
 30
0
 40
2.6
 41
14.66111111111111
 71
    1
 72
    5
  1
N докум.
  7
cyrillic_ii
210
0
220
0
230
1
 50
0
 73
    1
 44
0.96
  0
MTEXT
  5
E0
100
AcDbEntity
  8
0
  6
CONTINUOUS
 62
  256
370
   18
100
AcDbMText
 10
63.37255028987113
 20
8.962083830493839
 30
0
 40
2.6
 41
8.377777777777899
 71
    1
 72
    5
  1
Подп.
  7
cyrillic_ii
210
0
220
0
230
1
 50
0
 73
    1
 44
0.96
  0
MTEXT
  5
E1
100
AcDbEntity
  8
0
  6
CONTINUOUS
 62
  256
370
   18
100
AcDbMText
 10
75.5537823676994
 20
8.858029200074355
 30
0
 40
2.5
 41
8.888888888889007
 71
    1
 72
    5
  1
Дата
  7
cyrillic_ii
210
0
220
0
230
1
 50
0
 73
    1
 44
0.96
  0
MTEXT
  5
E2
100
AcDbEntity
  8
0
  6
CONTINUOUS
 62
  256
370
   18
100
AcDbMText
 10
106.6465306028711
 20
5.719116926174175
 30
0
 40
7
 41
8.555555555555555
 71
    7
 72
    5
  1
_
  7
cyrillic_ii
210
0
220
0
230
1
 50
0
 73
    1
 44
0.96
  0
MTEXT
  5
E3
100
AcDbEntity
  8
0
  6
CONTINUOUS
 62
  256
370
   18
100
AcDbMText
 10
196.1579271859781
 20
17.14620394302065
 30
0
 40
2.5
 41
7.500000000000116
 71
    1
 72
    5
  1
Лист
  7
cyrillic_ii
210
0
220
0
230
1
 50
0
 73
    1
 44
0.96
  0
MTEXT
  5
E4
100
AcDbEntity
  8
0
  6
CONTINUOUS
 62
  256
370
   18
100
AcDbMText
 10
199.0000566892533
 20
11.71272106911238
 30
0
 40
5
 41
6.111111111111112
 71
    1
 72
    5
  1
_
  7
cyrillic_ii
210
0
220
0
230
1
 50
0
 73
    1
 44
0.96
  0
MTEXT
  5
E5
100
AcDbEntity
  8
0
  6
CONTINUOUS
 62
  256
370
   18
100
AcDbMText
 10
87.01199052938097
 20
290.4709157599352
 30
0
 40
5
 41
6.111111111111112
 71
    7
 72
    5
  1
_
  7
cyrillic_ii
210
0
220
0
230
1
 50
180
 73
    1
 44
0.96
  0
MTEXT
  5
E6
100
AcDbEntity
  8
0
  6
CONTINUOUS
 62
  256
370
   18
100
AcDbMText
 10
160.3835114503817
 20
0.5666666666666667
 30
0
 40
2.8
 41
44.72222222222252
 71
    7
 72
    5
  1
Формат А4 ГОСТ 2.301
  7
cyrillic_ii
210
0
220
0
230
1
 50
0
 73
    1
 44
0.96
  0
MTEXT
  5
E7
100
AcDbEntity
  8
0
  6
CONTINUOUS
 62
  256
370
   18
100
AcDbMText
 10
9.227786636297765
 20
66.41398664492914
 30
0
 40
2.8
 41
21.85555555555556
 71
    1
 72
    5
  1
Взам. инв.N
  7
cyrillic_ii
210
0
220
0
230
1
 50
90
 73
    1
 44
0.96
  0
LINE
  5
E8
100
AcDbEntity
  8
0
  6
ByLayer
 62
  256
370
   -1
100
AcDbLine
 10
20
 20
15
 11
85
 21
15
  0
LINE
  5
E9
100
AcDbEntity
  8
0
  6
ByLayer
 62
  256
370
   -1
100
AcDbLine
 10
13
 20
5
 11
13
 21
150
  0
LINE
  5
EA
100
AcDbEntity
  8
0
  6
CONTINUOUS
 62
  256
370
   18
100
AcDbLine
 10
13
 20
172
 11
13
 21
292
  0
ENDBLK
  5
78
330
76
100
AcDbEntity
  8
0
100
AcDbBlockEnd
  0
BLOCK
  5
7A
330
79
100
AcDbEntity
  8
0
100
AcDbBlockBegin
  2
view
 70
    0
 10
0
 20
0
  3
view
  1

  0
LEADER
  5
EB
100
AcDbEntity
  8
size
  6
ByLayer
 62
  256
370
   -1
100
AcDbLeader
  3
Standard
 71
    1
 72
    0
 73
    3
 74
    0
 75
    0
 40
1
 41
10
 76
2
 76
2
 10
0
 20
0
 30
0
 10
0
 20
-10
 30
0
  0
LINE
  5
EC
100
AcDbEntity
  8
size
  6
ByLayer
 62
  256
370
  100
100
AcDbLine
 10
-4
 20
0
 11
4
 21
0
  0
ENDBLK
  5
7B
330
79
100
AcDbEntity
  8
0
100
AcDbBlockEnd
  0
BLOCK
  5
7D
330
7C
100
AcDbEntity
  8
0
100
AcDbBlockBegin
  2
hole M1
 70
    0
 10
0
 20
0
  3
hole M1
  1

  0
CIRCLE
  5
ED
100
AcDbEntity
  8
ol
  6
ByLayer
 62
  256
370
   -1
100
AcDbCircle
 10
0
 20
0
 40
0.5
  0
ARC
  5
EE
100
AcDbEntity
  8
thin
  6
ByLayer
 62
  256
370
   -1
100
AcDbCircle
 10
0
 20
0
 40
0.4999999999999999
100
AcDbArc
 50
91.51741412501214
 51
53.130102354156
  0
CIRCLE
  5
EF
100
AcDbEntity
  8
0
  6
ByLayer
 62
  256
370
   -1
100
AcDbCircle
 10
0
 20
0
 40
0.4
  0
LINE
  5
F0
100
AcDbEntity
  8
dashdot
  6
ByLayer
 62
  256
370
   -1
100
AcDbLine
 10
-2e-16
 20
0.8000000000000003
 11
-2e-16
 21
-0.8
  0
LINE
  5
F1
100
AcDbEntity
  8
dashdot
  6
ByLayer
 62
  256
370
   -1
100
AcDbLine
 10
-0.8000000000000003
 20
0
 11
0.7999999999999998
 21
0
  0
ENDBLK
  5
7E
330
7C
100
AcDbEntity
  8
0
100
AcDbBlockEnd
  0
ENDSEC
  0
SECTION
  2
ENTITIES
  0
LINE
  5
F2
100
AcDbEntity
  8
sm
  6
ByLayer
 62
  256
370
   -1
100
AcDbLine
 10
45
 20
11.5
 11
45
 21
-11.5
  0
LINE
  5
F3
100
AcDbEntity
  8
sm
  6
ByLayer
 62
  256
370
   -1
100
AcDbLine
 10
90
 20
24
 11
90
 21
-24
  0
LINE
  5
F4
100
AcDbEntity
  8
sm
  6
ByLayer
 62
  256
370
   -1
100
AcDbLine
 10
216
 20
10.9
 11
216
 21
-10.9
  0
LINE
  5
F5
100
AcDbEntity
  8
sm
  6
ByLayer
 62
  256
370
   -1
100
AcDbLine
 10
220
 20
10.9
 11
220
 21
-10.9
  0
LINE
  5
F6
100
AcDbEntity
  8
sm
  6
ByLayer
 62
  256
370
   -1
100
AcDbLine
 10
216
 20
10.9
 11
220
 21
10.9
  0
LINE
  5
F7
100
AcDbEntity
  8
sm
  6
ByLayer
 62
  256
370
   -1
100
AcDbLine
 10
220
 20
-10.9
 11
216
 21
-10.9
  0
LINE
  5
F8
100
AcDbEntity
  8
sm
  6
ByLayer
 62
  256
370
   -1
100
AcDbLine
 10
238
 20
19.55
 11
238
 21
-19.55
  0
LINE
  5
F9
100
AcDbEntity
  8
sm
  6
ByLayer
 62
  256
370
   -1
100
AcDbLine
 10
243
 20
19.55
 11
243
 21
-19.55
  0
LINE
  5
FA
100
AcDbEntity
  8
sm
  6
ByLayer
 62
  256
370
   -1
100
AcDbLine
 10
238
 20
19.55
 11
243
 21
19.55
  0
LINE
  5
FB
100
AcDbEntity
  8
sm
  6
ByLayer
 62
  256
370
   -1
100
AcDbLine
 10
243
 20
-19.55
 11
238
 21
-19.55
  0
MTEXT
  5
FC
100
AcDbEntity
  8
0
  6
ByLayer
 62
  256
370
   -1
100
AcDbMText
 10
274.9760301762941
 20
17.86321386419139
 30
0
 40
10
 41
32.22222222222315
 71
    5
 72
    1
  1
Eagle
  7
cyrillic_ii
210
0
220
0
230
1
 50
0
 73
    2
 44
1
  0
LEADER
  5
FD
100
AcDbEntity
  8
0
  6
ByLayer
 62
  256
370
   -1
100
AcDbLeader
  3
Standard
 71
    1
 72
    0
 73
    3
 74
    0
 75
    0
 40
1
 41
10
 76
2
 76
2
 10
239.9760301762941
 20
17.41321386419139
 30
0
 10
256.9817228252647
 20
20.01752367270483
 30
0
  0
MTEXT
  5
FE
100
AcDbEntity
  8
0
  6
ByLayer
 62
  256
370
   -1
100
AcDbMText
 10
264.0287037864877
 20
-7.864429283724816
 30
0
 40
10
 41
36.66666666666713
 71
    5
 72
    1
  1
Andor
  7
cyrillic_ii
210
0
220
0
230
1
 50
0
 73
    2
 44
1
  0
LEADER
  5
FF
100
AcDbEntity
  8
0
  6
ByLayer
 62
  256
370
   -1
100
AcDbLeader
  3
Standard
 71
    1
 72
    0
 73
    3
 74
    0
 75
    0
 40
1
 41
10
 76
2
 76
2
 10
218.0287037864877
 20
-8.764429283724816
 30
0
 10
244.0336617884812
 20
-9.230609924269656
 30
0
  0
LINE
  5
100
100
AcDbEntity
  8
sm
  6
ByLayer
 62
  256
370
   -1
100
AcDbLine
 10
130
 20
24
 11
130
 21
-24
  0
LINE
  5
101
100
AcDbEntity
  8
sm
  6
ByLayer
 62
  256
370
   -1
100
AcDbLine
 10
165
 20
-24
 11
165
 21
24
  0
DIMENSION
  5
102
100
AcDbEntity
  8
size
  6
ByLayer
 62
  256
370
   -1
100
AcDbDimension
  2
*D3
 10
44.99999999999999
 20
-35.6243301746768
 30
0
 11
22.5
 21
-32.9993301746768
 31
0
 70
   32
 71
    5
 72
    0
  3
Standard
 53
0
210
0
220
0
230
1
100
AcDbAlignedDimension
 13
4.930380657631324e-32
 23
-30
 33
0
 14
44.99999999999999
 24
-7.423076923076923
 34
0
100
AcDbRotatedDimension
  0
DIMENSION
  5
103
100
AcDbEntity
  8
size
  6
ByLayer
 62
  256
370
   -1
100
AcDbDimension
  2
*D4
 10
90
 20
-43.40019919757579
 30
0
 11
45
 21
-40.77519919757579
 31
0
 70
   32
 71
    5
 72
    0
  3
Standard
 53
0
210
0
220
0
230
1
100
AcDbAlignedDimension
 13
4.930380657631324e-32
 23
-30
 33
0
 14
90
 24
-24
 34
0
100
AcDbRotatedDimension
  0
DIMENSION
  5
104
100
AcDbEntity
  8
size
  6
ByLayer
 62
  256
370
   -1
100
AcDbDimension
  2
*D5
 10
130
 20
-50.81439989382832
 30
0
 11
65
 21
-48.18939989382832
 31
0
 70
   32
 71
    5
 72
    0
  3
Standard
 53
0
210
0
220
0
230
1
100
AcDbAlignedDimension
 13
4.930380657631324e-32
 23
-30
 33
0
 14
130
 24
-24
 34
0
100
AcDbRotatedDimension
  0
DIMENSION
  5
105
100
AcDbEntity
  8
size
  6
ByLayer
 62
  256
370
   -1
100
AcDbDimension
  2
*D6
 10
165
 20
-57.50526393678792
 30
0
 11
82.5
 21
-54.88026393678792
 31
0
 70
   32
 71
    5
 72
    0
  3
Standard
 53
0
210
0
220
0
230
1
100
AcDbAlignedDimension
 13
4.930380657631324e-32
 23
-30
 33
0
 14
165
 24
-24
 34
0
100
AcDbRotatedDimension
  0
LINE
  5
106
100
AcDbEntity
  8
dashdot
  6
ByLayer
 62
  256
370
   -1
100
AcDbLine
 10
1.84e-15
 20
30
 11
0
 21
-30
  0
LINE
  5
107
100
AcDbEntity
  8
dashdot
  6
ByLayer
 62
  256
370
   -1
100
AcDbLine
 10
0
 20
-30
 11
10
 21
-30
  0
LINE
  5
108
100
AcDbEntity
  8
dashdot
  6
ByLayer
 62
  256
370
   -1
100
AcDbLine
 10
0
 20
30
 11
10
 21
30
  0
LINE
  5
109
100
AcDbEntity
  8
dashdot
  6
ByLayer
 62
  256
370
   -1
100
AcDbLine
 10
200
 20
30
 11
200
 21
-30
  0
DIMENSION
  5
10A
100
AcDbEntity
  8
size
  6
ByLayer
 62
  256
370
   -1
100
AcDbDimension
  2
*D7
 10
200
 20
30
 30
0
 11
100
 21
32.625
 31
0
 70
   32
 71
    5
 72
    0
  3
Standard
 53
0
210
0
220
0
230
1
100
AcDbAlignedDimension
 13
1.84e-15
 23
30
 33
0
 14
200
 24
30
 34
0
100
AcDbRotatedDimension
  0
DIMENSION
  5
10B
100
AcDbEntity
  8
size
  6
ByLayer
 62
  256
370
   -1
100
AcDbDimension
  2
*D8
 10
216
 20
35.66972262440106
 30
0
 11
108
 21
38.29472262440106
 31
0
 70
   32
 71
    5
 72
    0
  3
Standard
 53
0
210
0
220
0
230
1
100
AcDbAlignedDimension
 13
0
 23
30
 33
0
 14
216
 24
10.9
 34
0
100
AcDbRotatedDimension
  0
DIMENSION
  5
10C
100
AcDbEntity
  8
size
  6
ByLayer
 62
  256
370
   -1
100
AcDbDimension
  2
*D9
 10
238
 20
40.70544817137533
 30
0
 11
119
 21
43.33044817137533
 31
0
 70
   32
 71
    5
 72
    0
  3
Standard
 53
0
210
0
220
0
230
1
100
AcDbAlignedDimension
 13
1.84e-15
 23
30
 33
0
 14
238
 24
19.55
 34
0
100
AcDbRotatedDimension
  0
LINE
  5
10D
100
AcDbEntity
  8
dash
  6
ByLayer
 62
  256
370
   -1
100
AcDbLine
 10
-10
 20
24
 11
250
 21
24
  0
LINE
  5
10E
100
AcDbEntity
  8
ol
  6
ByLayer
 62
  256
370
   -1
100
AcDbLine
 10
-10
 20
0
 11
250
 21
0
  0
LINE
  5
10F
100
AcDbEntity
  8
dash
  6
ByLayer
 62
  256
370
   -1
100
AcDbLine
 10
-10
 20
-24
 11
250
 21
-24
  0
DIMENSION
  5
110
100
AcDbEntity
  8
size
  6
ByLayer
 62
  256
370
   -1
100
AcDbDimension
  2
*D10
 10
-12.747723509308
 20
-30
 30
0
 11
-15.372723509308
 21
3.214697847761802e-16
 31
0
 70
   32
  1
%%C<>
 71
    5
 72
    0
  3
Standard
 53
0
210
0
220
0
230
1
100
AcDbAlignedDimension
 13
1.84e-15
 23
30
 33
0
 14
0
 24
-30
 34
0
 50
90
100
AcDbRotatedDimension
  0
MTEXT
  5
111
100
AcDbEntity
  8
ray
  6
ByLayer
 62
  256
370
   -1
100
AcDbMText
 10
38.44877897162251
 20
9.869205297528772
 30
0
 40
15
 41
3.333333333333333
 71
    5
 72
    1
  1
1
  7
cyrillic_ii
210
0
220
0
230
1
 50
0
 73
    2
 44
1
  0
MTEXT
  5
112
100
AcDbEntity
  8
ray
  6
ByLayer
 62
  256
370
   -1
100
AcDbMText
 10
82.65459436680347
 20
10.89724751602135
 30
0
 40
15
 41
6.666666666666667
 71
    5
 72
    1
  1
2
  7
cyrillic_ii
210
0
220
0
230
1
 50
0
 73
    2
 44
1
  0
MTEXT
  5
113
100
AcDbEntity
  8
ray
  6
ByLayer
 62
  256
370
   -1
100
AcDbMText
 10
123.3650662191097
 20
11.30846440341838
 30
0
 40
15
 41
6.666666666667597
 71
    5
 72
    1
  1
3
  7
cyrillic_ii
210
0
220
0
230
1
 50
0
 73
    2
 44
1
  0
MTEXT
  5
114
100
AcDbEntity
  8
ray
  6
ByLayer
 62
  256
370
   -1
100
AcDbMText
 10
158.9353269789529
 20
9.869205297528772
 30
0
 40
15
 41
8.333333333333334
 71
    5
 72
    1
  1
4
  7
cyrillic_ii
210
0
220
0
230
1
 50
0
 73
    2
 44
1
  0
MTEXT
  5
115
100
AcDbEntity
  8
ray
  6
ByLayer
 62
  256
370
   -1
100
AcDbMText
 10
194.9168046261932
 20
9.869205297528772
 30
0
 40
15
 41
6.666666666667597
 71
    5
 72
    1
  1
5
  7
cyrillic_ii
210
0
220
0
230
1
 50
0
 73
    2
 44
1
  0
MTEXT
  5
116
100
AcDbEntity
  8
ray
  6
ByLayer
 62
  256
370
   -1
100
AcDbMText
 10
-5.551427979859934
 20
11.30846440341838
 30
0
 40
15
 41
6.666666666666668
 71
    5
 72
    1
  1
0
  7
cyrillic_ii
210
0
220
0
230
1
 50
0
 73
    2
 44
1
  0
ENDSEC
  0
SECTION
  2
OBJECTS
  0
DICTIONARY
  5
C
330
0
100
AcDbDictionary
281
    1
  3
ACAD_GROUP
350
D
  0
DICTIONARY
  5
D
330
C
100
AcDbDictionary
281
    1
  0
ENDSEC
  0
EOF
